G04*
G04 #@! TF.GenerationSoftware,Altium Limited,Altium Designer,23.0.1 (38)*
G04*
G04 Layer_Color=8421504*
%FSTAX44Y44*%
%MOMM*%
G71*
G04*
G04 #@! TF.SameCoordinates,E3829BB2-AA37-4C4C-BECC-1D93302A16C3*
G04*
G04*
G04 #@! TF.FilePolarity,Positive*
G04*
G01*
G75*
%ADD16R,1.3000X0.9000*%
%ADD17R,0.9000X1.3000*%
%ADD18R,0.6500X1.3000*%
%ADD19R,1.0000X0.6000*%
%ADD20R,0.5000X1.6000*%
%ADD21O,0.5000X1.6000*%
%ADD22R,1.1500X1.8000*%
%ADD23O,1.4500X0.6000*%
%ADD24O,1.6000X0.5000*%
%ADD25R,1.6000X0.5000*%
%ADD26R,1.3000X0.6500*%
%ADD27R,1.6000X0.6500*%
%ADD28O,1.6000X0.6500*%
%ADD29O,0.5000X1.4500*%
D16*
X00084804Y00281435D02*
D03*
Y00262435D02*
D03*
X00506348Y00223418D02*
D03*
Y00242418D02*
D03*
D17*
X00361544Y00074168D02*
D03*
X00342544D02*
D03*
X0013015D02*
D03*
X0011115D02*
D03*
X00381152D02*
D03*
X00400152D02*
D03*
D18*
X00197256Y0005842D02*
D03*
X00216256D02*
D03*
D19*
X0001759Y00272133D02*
D03*
X00055562Y00271935D02*
D03*
X0001568Y00207363D02*
D03*
X00053652Y00207165D02*
D03*
X0001759Y00239896D02*
D03*
X00055562Y00239698D02*
D03*
D20*
X00202946Y00298014D02*
D03*
D21*
X00190246D02*
D03*
X00177546D02*
D03*
X00164846D02*
D03*
X00152146D02*
D03*
X00139446D02*
D03*
X00126746D02*
D03*
X00114046D02*
D03*
X00202946Y00240974D02*
D03*
X00190246D02*
D03*
X00177546D02*
D03*
X00164846D02*
D03*
X00152146D02*
D03*
X00139446D02*
D03*
X00126746D02*
D03*
X00114046D02*
D03*
D22*
X00050854Y00150368D02*
D03*
X00020854D02*
D03*
X00050854Y00119226D02*
D03*
X00020854D02*
D03*
Y00180848D02*
D03*
X00050854D02*
D03*
X00020854Y00089353D02*
D03*
X00050854D02*
D03*
D23*
X00426466Y00187198D02*
D03*
Y00174498D02*
D03*
Y00161798D02*
D03*
Y00149098D02*
D03*
Y00136398D02*
D03*
Y00123698D02*
D03*
Y00110998D02*
D03*
Y00098298D02*
D03*
X00480966Y00187198D02*
D03*
Y00174498D02*
D03*
Y00161798D02*
D03*
Y00149098D02*
D03*
Y00136398D02*
D03*
Y00123698D02*
D03*
Y00110998D02*
D03*
Y00098298D02*
D03*
X0038539Y00107188D02*
D03*
Y00119888D02*
D03*
Y00132588D02*
D03*
Y00145288D02*
D03*
Y00157988D02*
D03*
Y00170688D02*
D03*
Y00183388D02*
D03*
X0033089Y00107188D02*
D03*
Y00119888D02*
D03*
Y00132588D02*
D03*
Y00145288D02*
D03*
Y00157988D02*
D03*
Y00170688D02*
D03*
Y00183388D02*
D03*
D24*
X00100458Y00186182D02*
D03*
Y00173482D02*
D03*
Y00160782D02*
D03*
Y00148082D02*
D03*
Y00135382D02*
D03*
Y00122682D02*
D03*
Y00109982D02*
D03*
Y00097282D02*
D03*
X00157498Y00186182D02*
D03*
Y00173482D02*
D03*
Y00160782D02*
D03*
Y00148082D02*
D03*
Y00135382D02*
D03*
Y00122682D02*
D03*
Y00109982D02*
D03*
D25*
Y00097282D02*
D03*
D26*
X00508508Y00161798D02*
D03*
Y00180798D02*
D03*
D27*
X00278964Y00095758D02*
D03*
D28*
Y00108458D02*
D03*
Y00121158D02*
D03*
Y00133858D02*
D03*
Y00146558D02*
D03*
Y00159258D02*
D03*
Y00171958D02*
D03*
Y00184658D02*
D03*
X00221924Y00095758D02*
D03*
Y00108458D02*
D03*
Y00121158D02*
D03*
Y00133858D02*
D03*
Y00146558D02*
D03*
Y00159258D02*
D03*
Y00171958D02*
D03*
Y00184658D02*
D03*
D29*
X00396494Y00228528D02*
D03*
X00409194D02*
D03*
X00421894D02*
D03*
X00434594D02*
D03*
X00447294D02*
D03*
X00459994D02*
D03*
X00472694D02*
D03*
X00485394D02*
D03*
X00396494Y00283028D02*
D03*
X00409194D02*
D03*
X00421894D02*
D03*
X00434594D02*
D03*
X00447294D02*
D03*
X00459994D02*
D03*
X00472694D02*
D03*
X00485394D02*
D03*
X003429Y00277948D02*
D03*
X003302D02*
D03*
X003175D02*
D03*
X003048D02*
D03*
X002921D02*
D03*
X002794D02*
D03*
X002667D02*
D03*
X003429Y00223448D02*
D03*
X003302D02*
D03*
X003175D02*
D03*
X003048D02*
D03*
X002921D02*
D03*
X002794D02*
D03*
X002667D02*
D03*
M02*
