G04*
G04 #@! TF.GenerationSoftware,Altium Limited,Altium Designer,23.0.1 (38)*
G04*
G04 Layer_Physical_Order=2*
G04 Layer_Color=16711680*
%FSTAX44Y44*%
%MOMM*%
G71*
G04*
G04 #@! TF.SameCoordinates,E3829BB2-AA37-4C4C-BECC-1D93302A16C3*
G04*
G04*
G04 #@! TF.FilePolarity,Positive*
G04*
G01*
G75*
%ADD15C,0.2540*%
%ADD16R,1.3000X0.9000*%
%ADD17R,0.9000X1.3000*%
%ADD18R,0.6500X1.3000*%
%ADD22R,1.1500X1.8000*%
%ADD23O,1.4500X0.6000*%
%ADD24O,1.6000X0.5000*%
%ADD25R,1.6000X0.5000*%
%ADD46C,0.3810*%
%ADD47C,0.5080*%
%ADD48C,0.3048*%
%ADD49C,0.6350*%
%ADD50C,0.7000*%
%ADD51C,0.5000*%
%ADD52R,0.9500X1.5000*%
%ADD53O,0.9500X1.5000*%
%ADD54C,0.6000*%
%ADD55O,0.6000X1.4500*%
%ADD56R,0.6500X1.5250*%
%ADD57O,1.6000X0.6000*%
%ADD58R,0.6350X2.2860*%
%ADD59O,0.6350X2.2860*%
%ADD60R,1.5000X2.8000*%
%ADD61R,0.9500X0.9000*%
%ADD62R,0.9500X0.9000*%
%ADD63O,1.4500X0.5000*%
D15*
X00218186Y00298704D02*
X0021844Y00298958D01*
X00252984D01*
X00253238Y00299212D01*
X00068072Y00043688D02*
X00073406Y00038354D01*
X00032766Y00052324D02*
X00041402Y00043688D01*
X00068072D01*
X00073406Y00038354D02*
X00097536D01*
X00390096Y00275318D02*
X0040008Y00265334D01*
X00347726Y00300127D02*
X00381863D01*
X00390096Y00291894D01*
Y00275318D02*
Y00291894D01*
X0033655Y00291337D02*
X00344678Y00299465D01*
X00347064D01*
X00347726Y00300127D01*
X00380699Y00313182D02*
X00382153Y00314636D01*
X00383089D01*
X00337217Y00308229D02*
X0034217Y00313182D01*
X00380699D01*
X00200854Y00330194D02*
X00223962Y00307086D01*
X00286955D01*
X00292543Y00312674D01*
X0031115Y00286962D02*
Y00299974D01*
X00319405Y00308229D02*
X00337217D01*
X0031115Y00299974D02*
X00319405Y00308229D01*
X00159482Y00141684D02*
X00183848D01*
X00192278Y00150114D01*
X00232966D01*
X00245735Y00221505D02*
X00247278Y00219962D01*
X00249395D01*
X00249604Y00219753D02*
X00309415D01*
X00244798Y00221505D02*
X00245735D01*
X00249395Y00219962D02*
X00249604Y00219753D01*
X00246574Y00213152D02*
X00246956Y0021277D01*
X00278808D01*
X00493014Y00253492D02*
Y0026543D01*
X00486664Y0027178D02*
Y00288139D01*
Y0027178D02*
X00493014Y0026543D01*
X00185095Y00197564D02*
X00219694D01*
X00178818Y00191287D02*
X00185095Y00197564D01*
X00323412Y0005087D02*
Y0006944D01*
X00479806Y00240284D02*
X00493014Y00253492D01*
X0040008Y00265334D02*
X00425477D01*
X00281917Y00263144D02*
X00285099Y00259962D01*
X00263906Y00263144D02*
X00281917D01*
X00255016Y00272034D02*
X00263906Y00263144D01*
X00168409Y00274127D02*
X00174312Y00268224D01*
X00138594Y00274127D02*
X00168409D01*
X00168656Y00282165D02*
X00176694Y00274127D01*
X00202895D01*
X0011782Y00257237D02*
X00148988D01*
X0011604Y00259016D02*
X0011782Y00257237D01*
X00115104Y00259016D02*
X0011604D01*
X00226378Y0006008D02*
X00232102Y00054356D01*
X00129286Y00350774D02*
X00196596D01*
X00081471Y0025471D02*
Y00302959D01*
X00129286Y00350774D01*
X00118912Y0014101D02*
X00158808D01*
X00159482Y00141684D01*
X00112522Y0013462D02*
X00118912Y0014101D01*
X00272796Y00185674D02*
Y00192024D01*
X00267462Y00197358D02*
X00272796Y00192024D01*
X00268986Y00181864D02*
X00272796Y00185674D01*
X00254583Y00189487D02*
X00262264D01*
X00262663Y00189886D01*
X00257374Y00181864D02*
X00268986D01*
X00231415Y00244904D02*
X00232425D01*
X00236251Y00223424D02*
Y00241078D01*
X00224536Y00251783D02*
Y00252486D01*
X00232425Y00244904D02*
X00236251Y00241078D01*
X00202895Y00274127D02*
X00224536Y00252486D01*
Y00251783D02*
X00231415Y00244904D01*
X00302174Y00259962D02*
X00304086Y00261874D01*
X00285099Y00259962D02*
X00302174D01*
X00295695Y00268684D02*
X00349171D01*
X00293783Y00266772D02*
X00295695Y00268684D01*
X00304086Y00261874D02*
X00331216D01*
X00349171Y00268684D02*
X00360141Y00279654D01*
X00292847Y00266772D02*
X00293783D01*
X00360141Y00279654D02*
X00379476D01*
X00448036Y00240284D02*
X00479806D01*
X00425477Y00265334D02*
X00425587Y00265224D01*
X00111506Y00202184D02*
X0012196Y0019173D01*
X00027686Y00171704D02*
Y00222504D01*
X00032766Y00052324D02*
Y00166624D01*
X00027686Y00171704D02*
X00032766Y00166624D01*
X00241114Y00200064D02*
X00241359Y00199819D01*
X00236118Y00206874D02*
X00243935D01*
X00244467Y00206342D02*
X00251024D01*
X00241359Y00199819D02*
X00251686D01*
X00245245Y00194564D02*
X00253615D01*
X00233466Y00193254D02*
X00243935D01*
X00228346Y00198374D02*
X00233466Y00193254D01*
X00286255Y00205788D02*
X00292811Y00212344D01*
X00251024Y00206342D02*
X00252201Y00207518D01*
X00229084Y00188174D02*
X0025327D01*
X00219694Y00197564D02*
X00229084Y00188174D01*
X00243935Y00193254D02*
X00245245Y00194564D01*
X00243935Y00206874D02*
X00244467Y00206342D01*
X00235886Y00207107D02*
X00236118Y00206874D01*
X00150694Y0014732D02*
X00180056D01*
X0019555Y00162814D02*
X00221608D01*
X00180056Y0014732D02*
X0019555Y00162814D01*
X00128958Y00280973D02*
X00130556Y00282571D01*
Y00282165D02*
Y00282571D01*
X00122427Y00279654D02*
X00123746Y00280973D01*
X00128958D01*
X00130556Y00282571D02*
Y00285822D01*
X00121491Y00279654D02*
X00122427D01*
X00196596Y00350774D02*
X00200854Y00346516D01*
X00027686Y00222504D02*
X00035753Y00230571D01*
X00174312Y00268224D02*
X00201614D01*
X00219456Y00250382D01*
X00392176Y00180594D02*
Y00194564D01*
X00385826Y00174244D02*
X00392176Y00180594D01*
X00364236Y00174244D02*
X00385826D01*
X00292862Y00051308D02*
X00293116Y00051054D01*
X00323412Y0006944D02*
X00324076Y00070104D01*
X00388366Y00110744D02*
X00389001Y00110109D01*
X00435737Y00198651D02*
Y0021973D01*
X0043561Y00198524D02*
X00435737Y00198651D01*
Y0021973D02*
X00435864Y00219857D01*
X00384556Y00202184D02*
X00392176Y00194564D01*
X0025327Y00188174D02*
X00254583Y00189487D01*
X00253615Y00194564D02*
X00256409Y00197358D01*
X00425587Y00265224D02*
X00430557D01*
X00433194Y00265252D02*
X00433857Y00265914D01*
X00430557Y00265224D02*
X00430584Y00265252D01*
X00433194D01*
X00435864Y00228112D02*
X00448036Y00240284D01*
X00435864Y00219857D02*
Y00228112D01*
X00268871Y00139171D02*
Y00141394D01*
X00268209Y00138509D02*
X00268871Y00139171D01*
Y00141394D02*
X00269204Y00141727D01*
Y00158786D01*
X00299466Y00202184D02*
X00327997D01*
X00290576Y00193294D02*
X00299466Y00202184D01*
X00288359Y00200708D02*
X00294915Y00207264D01*
X00292811Y00212344D02*
X00314706D01*
X00294915Y00207264D02*
X00323446D01*
X0033655Y00220368D01*
X00327997Y00202184D02*
X00331964Y00206151D01*
X00314706Y00212344D02*
X0032385Y00221488D01*
X00265176Y00162814D02*
X00269204Y00158786D01*
X00228346Y00198374D02*
Y00215519D01*
X00236251Y00223424D01*
X00348897Y00286609D02*
X0034925Y00286962D01*
X00309415Y00219753D02*
X0031115Y00221488D01*
X00278808Y0021277D02*
X0027898Y00212598D01*
X00251686Y00199819D02*
X00254305Y00202438D01*
X00269566D01*
X00256409Y00197358D02*
X00267462D01*
X00252201Y00207518D02*
X0027167D01*
X002734Y00205788D01*
X00286255D01*
X00271296Y00200708D02*
X00288359D01*
X00269566Y00202438D02*
X00271296Y00200708D01*
X0033655Y00220368D02*
Y00232722D01*
Y00286962D02*
Y00291337D01*
X00159251Y00191287D02*
X00178818D01*
X00151971Y00254254D02*
X0016581D01*
X00148988Y00257237D02*
X00151971Y00254254D01*
X00168656Y00282165D02*
Y00285822D01*
X0012196Y0019173D02*
X00158808D01*
X00159251Y00191287D01*
X00292543Y00312674D02*
X00293116D01*
X0031115Y00221488D02*
Y00232722D01*
X0032385Y00221488D02*
Y00232722D01*
X0025005Y00162814D02*
X00265176D01*
X0024832Y00164544D02*
X0025005Y00162814D01*
X00223338Y00164544D02*
X0024832D01*
X00232102Y00054356D02*
X00239776D01*
X00221608Y00162814D02*
X00223338Y00164544D01*
X00245792Y00142494D02*
X00246592Y00143293D01*
X00256903D02*
X00257374Y00143764D01*
X00246592Y00143293D02*
X00256903D01*
X00244856Y00142494D02*
X00245792D01*
X0008255Y0010922D02*
X00093654D01*
X00082042D02*
X0008255D01*
X00077216Y00104394D02*
X00082042Y0010922D01*
X0031496Y00032988D02*
X0032766D01*
X00206337Y00143764D02*
X00206756Y00143345D01*
X00035753Y00230571D02*
X00047004D01*
X00200854Y00330194D02*
Y00333248D01*
X00219456Y00231322D02*
Y00250382D01*
X00130556Y00282165D02*
X00138594Y00274127D01*
X00081471Y0025471D02*
X00091912Y00244269D01*
X00059436Y00132334D02*
Y00139274D01*
X00050849Y00147861D02*
Y00159098D01*
Y00147861D02*
X00059436Y00139274D01*
X00047004Y00162943D02*
X00050849Y00159098D01*
X00070879Y00120891D02*
X00070879D01*
X0008255Y0010922D01*
X00059436Y00132334D02*
X00070879Y00120891D01*
X00091912Y00244269D02*
X00135152D01*
X00143256Y00236165D01*
Y00231322D02*
Y00236165D01*
X00093654Y0013462D02*
X00112522D01*
X00143256Y00216154D02*
Y00231322D01*
X00200854Y00333248D02*
Y00346516D01*
D16*
X00517652Y00096164D02*
D03*
Y00115164D02*
D03*
X00508508Y00259994D02*
D03*
Y00278994D02*
D03*
X00373126Y00238608D02*
D03*
Y00219608D02*
D03*
D17*
X004096Y00354584D02*
D03*
X004286D02*
D03*
X00178156Y00066548D02*
D03*
X00159156D02*
D03*
X00090576Y00231394D02*
D03*
X00109576D02*
D03*
X00439826Y00076454D02*
D03*
X00458826D02*
D03*
D18*
X00133756Y00209042D02*
D03*
X00152756D02*
D03*
X00195174Y00307848D02*
D03*
X00176174D02*
D03*
X00301854Y000635D02*
D03*
X00282854D02*
D03*
D22*
X00324076D02*
D03*
X00354076D02*
D03*
X00047004Y00264386D02*
D03*
X00017004D02*
D03*
X00047004Y00230571D02*
D03*
X00017004D02*
D03*
Y00196757D02*
D03*
X00047004D02*
D03*
X00017004Y00162943D02*
D03*
X00047004D02*
D03*
X00017004Y00129129D02*
D03*
X00047004D02*
D03*
X00017004Y00095315D02*
D03*
X00047004D02*
D03*
Y000615D02*
D03*
X00017004D02*
D03*
X00047004Y00027686D02*
D03*
X00017004D02*
D03*
D23*
X00377008Y00186944D02*
D03*
Y00174244D02*
D03*
Y00161544D02*
D03*
Y00148844D02*
D03*
Y00136144D02*
D03*
Y00123444D02*
D03*
Y00110744D02*
D03*
Y00098044D02*
D03*
X00322508Y00186944D02*
D03*
Y00174244D02*
D03*
Y00161544D02*
D03*
Y00148844D02*
D03*
Y00136144D02*
D03*
Y00123444D02*
D03*
Y00110744D02*
D03*
Y00098044D02*
D03*
D24*
X00093654Y0010922D02*
D03*
Y0012192D02*
D03*
Y0013462D02*
D03*
Y0014732D02*
D03*
Y0016002D02*
D03*
Y0017272D02*
D03*
Y0018542D02*
D03*
X00150694Y0009652D02*
D03*
Y0010922D02*
D03*
Y0012192D02*
D03*
Y0013462D02*
D03*
Y0014732D02*
D03*
Y0016002D02*
D03*
Y0017272D02*
D03*
Y0018542D02*
D03*
D25*
X00093654Y0009652D02*
D03*
D46*
X00477012Y00368808D02*
X0052775Y0031807D01*
X00521716Y00137414D02*
X0052775Y00143448D01*
Y0031807D01*
X00096684Y00250619D02*
X00137782D01*
X00095589Y00251714D02*
X00096684Y00250619D01*
X00094996Y00251714D02*
X00095589D01*
X00036576Y00211497D02*
Y0021209D01*
X00034496Y00185214D02*
Y00209417D01*
X00036576Y00211497D01*
X00362792Y00097625D02*
X00376589D01*
X00330907Y001016D02*
X00358817D01*
X00362792Y00097625D01*
X00327351Y00098044D02*
X00330907Y001016D01*
X00322508Y00098044D02*
X00327351D01*
X001905Y0008382D02*
X00278861D01*
X00172054Y00106166D02*
X00177134D01*
X00177994Y00096326D02*
X001905Y0008382D01*
X00172914Y00096326D02*
X00177994D01*
X00135382Y0012192D02*
X001563D01*
X00192661Y00090639D02*
X00271605D01*
X00177134Y00106166D02*
X00192661Y00090639D01*
X001563Y0012192D02*
X00172054Y00106166D01*
X00150694Y0010922D02*
X00150922Y00108992D01*
X00157263D02*
X00157424Y00108831D01*
X00150922Y00108992D02*
X00157263D01*
X00157424Y00108831D02*
X00160409D01*
X00172914Y00096326D01*
X00145244Y0010922D02*
X00150694D01*
X00150922Y00134392D02*
X00157263D01*
X00150694Y0013462D02*
X00150922Y00134392D01*
X00157263D02*
X00157458Y00134197D01*
X00159769D02*
X00195882Y00098084D01*
X00157458Y00134197D02*
X00159769D01*
X00523748Y00127762D02*
X00529082Y00122428D01*
X00506476Y00053594D02*
X00529082Y000762D01*
Y00122428D01*
X00350879Y00217709D02*
Y0022477D01*
X00350595Y00225054D02*
Y00231377D01*
X0034925Y00232722D02*
X00350595Y00231377D01*
Y00225054D02*
X00350879Y0022477D01*
X00350595Y00288544D02*
X00355346D01*
X00268393Y00101346D02*
X00268986D01*
X00265132Y00098084D02*
X00268393Y00101346D01*
X00195882Y00098084D02*
X00265132D01*
X00140648Y00057645D02*
Y00058237D01*
X00138176Y00055173D02*
X00140648Y00057645D01*
X00138176Y0003556D02*
Y00055173D01*
X00160876Y0001286D02*
X00275242D01*
X00138176Y0003556D02*
X00160876Y0001286D01*
X00373126Y00240656D02*
X00374396D01*
X00359646Y00238608D02*
X00373126D01*
X0035948Y00238442D02*
X00359646Y00238608D01*
X0034925Y00232722D02*
Y00237097D01*
X00350595Y00238442D01*
X0035948D01*
X0033485Y00313944D02*
X00339908Y00319002D01*
X00361674D02*
X00366014Y00323342D01*
X00339908Y00319002D02*
X00361674D01*
X00365954Y00333248D02*
X00366014Y00333188D01*
Y00323342D02*
Y00333188D01*
X00276208Y00323706D02*
Y00332402D01*
X00224517Y00316738D02*
X0026924D01*
X00276208Y00323706D01*
Y00332402D02*
X00277054Y00333248D01*
X0022119Y00319489D02*
X00221767D01*
X00224517Y00316738D01*
X00285014Y00315674D02*
X00285587D01*
X00290207Y00320294D01*
X00330654D01*
X00310388Y00313944D02*
X0033485D01*
X0029845Y00302006D02*
X00310388Y00313944D01*
X0029845Y00286962D02*
Y00302006D01*
X00179235Y00135293D02*
X00187109D01*
X00195352Y00143536D02*
X00202646D01*
X00187109Y00135293D02*
X00195352Y00143536D01*
X00202646D02*
X00202874Y00143764D01*
X00202646Y00118592D02*
X00202874Y00118364D01*
X00195098Y00118592D02*
X00202646D01*
X00178816Y00134874D02*
X00195098Y00118592D01*
X00352981Y00185088D02*
Y0018663D01*
Y00129619D02*
Y00185088D01*
X0034876D02*
X00352981D01*
X00322089Y00111163D02*
X00322508Y00110744D01*
X00311493Y00111163D02*
X00322089D01*
X00305816Y0011684D02*
X00311493Y00111163D01*
X00305816Y0011684D02*
Y00161802D01*
X00318258Y00174244D01*
X00322508D01*
X00397256Y00086614D02*
Y00119634D01*
X00264776Y00063856D02*
X00282498D01*
X00282854Y000635D01*
X00152756Y00209042D02*
X00157582Y00213868D01*
X00168402D01*
X00184658Y0018542D02*
X00189992Y00190754D01*
X00150694Y0018542D02*
X00184658D01*
X00189992Y00190754D02*
X00213106D01*
X00180115Y00207016D02*
X00209929D01*
X00171196Y00198097D02*
X00180115Y00207016D01*
X00141451Y00198097D02*
X00171196D01*
X00184404Y00216154D02*
X00205232D01*
X00181356Y00219202D02*
X00184404Y00216154D01*
X00181356Y00219202D02*
Y00231322D01*
X00027686Y00249174D02*
X00049276D01*
X00018669D02*
X00027686D01*
X00018669Y00035447D02*
Y00230571D01*
X00017004D02*
Y00264386D01*
X00018669Y00266051D01*
Y00310134D01*
X00272657Y00274574D02*
Y00286569D01*
X00289408Y00084496D02*
X00289481Y00084569D01*
X00278861Y0008382D02*
X00279537Y00084496D01*
X00289408D01*
X00352981Y0018663D02*
X00376694D01*
X00264354Y00351984D02*
X00281178Y00368808D01*
X00477012D01*
X00431437Y00242189D02*
X00445788Y0025654D01*
X00469392D02*
X00473964Y00261112D01*
X00445788Y0025654D02*
X00469392D01*
X00475488Y00247396D02*
X00484886Y00256794D01*
X00434067Y00235839D02*
X00445624Y00247396D01*
X00475488D01*
X00272043Y00269954D02*
X00272463Y00270373D01*
Y0027438D01*
X00272657Y00274574D01*
X00225696Y00261112D02*
X00226289D01*
X00228321Y00263144D01*
X00303848Y00091605D02*
X00305397D01*
X00303439Y00092014D02*
X00303848Y00091605D01*
X0027298Y00092014D02*
X00303439D01*
X00305397Y00091605D02*
X00305816Y00091186D01*
X00271605Y00090639D02*
X0027298Y00092014D01*
X00250825Y00067491D02*
X00259823Y00076489D01*
X00130556Y00058674D02*
X00138176Y00066294D01*
X00130556Y00028787D02*
Y00058674D01*
X00138176Y00066294D02*
Y00080941D01*
X00192253Y00044933D02*
X00247625D01*
X00178816Y00134874D02*
X00179235Y00135293D01*
X00130556Y00028787D02*
X00138176Y00021167D01*
X00110022Y00061D02*
X00125476Y00076454D01*
X00117856Y00091694D02*
Y00121412D01*
X00125476Y00076454D02*
Y00112014D01*
X00135382Y0012192D01*
X00105331Y00079169D02*
X00117856Y00091694D01*
Y00121412D02*
X00131064Y0013462D01*
X00122936Y00167894D02*
Y00180225D01*
X00150466Y00147548D02*
X00150694Y0014732D01*
X00143282Y00147548D02*
X00150466D01*
X00122936Y00167894D02*
X00143282Y00147548D01*
X00227272Y00224359D02*
Y00239014D01*
X00209929Y00207016D02*
X00227272Y00224359D01*
X00346456Y00274574D02*
X00348897Y00277015D01*
X00272657Y00274574D02*
X00346456D01*
X00411294Y00228942D02*
X00424541Y00242189D01*
X00423994Y00228942D02*
X00430891Y00235839D01*
X00424541Y00242189D02*
X00431437D01*
X00430891Y00235839D02*
X00434067D01*
X00427317Y00272453D02*
Y00275048D01*
X00423164Y00279201D02*
X00427317Y00275048D01*
Y00272453D02*
X00427736Y00272034D01*
X00288471Y00031899D02*
X0028956Y00032988D01*
X00288471Y00026089D02*
Y00031899D01*
X00275242Y0001286D02*
X00288471Y00026089D01*
X00131826Y00070104D02*
Y00095802D01*
X00121666Y00059944D02*
X00131826Y00070104D01*
X00121666Y00041148D02*
Y00059944D01*
X00108204Y00027686D02*
X00121666Y00041148D01*
X00050849Y00120232D02*
X00074561Y0009652D01*
X00050849Y00120232D02*
Y00132904D01*
X00034496Y00185214D02*
X00039116Y00180594D01*
X00138176Y00080941D02*
X00143256Y00086021D01*
Y00086614D01*
X00138176Y00020574D02*
Y00021167D01*
X00182533Y0016002D02*
X00186845Y00164332D01*
X00150694Y0017272D02*
X00173116D01*
X00150694Y0016002D02*
X00182533D01*
X00173803Y00172034D02*
X00183737D01*
X00173116Y0017272D02*
X00173803Y00172034D01*
X00186845Y00164332D02*
X00187438D01*
X00130556Y00285822D02*
Y00312081D01*
X00133096Y00314621D01*
Y00315214D01*
X00348897Y00277015D02*
Y00286609D01*
X00051816Y00180594D02*
X00059436Y00172974D01*
X00039116Y00180594D02*
X00051816D01*
X00131826Y00095802D02*
X00145244Y0010922D01*
X0034036Y00077424D02*
X0034447Y00081534D01*
X00376936D02*
X00381Y00085598D01*
X0034447Y00081534D02*
X00376936D01*
X0025827Y00051308D02*
X00292862D01*
X00449326Y00131064D02*
X00460581Y00119809D01*
X00472646Y00156606D02*
Y00169974D01*
X00464566Y00178054D02*
X00472646Y00169974D01*
X00460581Y00104569D02*
Y00119809D01*
Y00104569D02*
X00467106Y00098044D01*
X00441031Y00102362D02*
X00453136Y00114467D01*
X00436118Y00102362D02*
X00441031D01*
X00453136Y00114467D02*
Y00114554D01*
X00416306Y00053594D02*
X00506476D01*
X00389001Y00093599D02*
Y00110744D01*
X00381Y00085598D02*
X00389001Y00093599D01*
Y00110744D02*
Y00146939D01*
X0034036Y00032988D02*
Y00077424D01*
X00354076Y00066854D02*
X0036576Y0005517D01*
Y00032988D02*
Y0005517D01*
X00354076Y00066854D02*
Y00070104D01*
X00439166Y00063754D02*
X00501396D01*
X00517906Y00080264D01*
Y00097672D01*
X00389001Y00146939D02*
X00407924Y00165862D01*
X00496818Y00178562D02*
X00501818D01*
X00507996Y00172383D01*
X00513416D01*
X00519176Y00166624D01*
Y00153924D02*
Y00166624D01*
X00423164Y00219857D02*
X00423994Y00220687D01*
Y00228942D01*
X00410464Y00219857D02*
X00411294Y00220687D01*
Y00228942D01*
X00473964Y00261112D02*
Y00288139D01*
X00509828Y00140043D02*
X00512457Y00137414D01*
X00521716D01*
X00497072Y00140462D02*
X00497491Y00140043D01*
X00509828D01*
X00497072Y00127762D02*
X00523748D01*
X005145Y00115062D02*
X00515906Y00113656D01*
X00517906D01*
X00497072Y00115062D02*
X005145D01*
X00257374Y00131064D02*
X00271891D01*
X00277876Y00137049D01*
X00271754Y00168936D02*
X00277876Y00162814D01*
Y00137049D02*
Y00162814D01*
X00285496Y00131064D02*
Y00168263D01*
X00272796Y00118364D02*
X00285496Y00131064D01*
Y00168263D02*
X00313702Y00196469D01*
X00407924Y00165862D02*
X00436118D01*
X00352981Y0018663D02*
X00352981Y0018663D01*
X00376694D02*
X00377008Y00186944D01*
X00333121Y00196469D02*
X00345186Y00208534D01*
X00313702Y00196469D02*
X00333121D01*
X00343916Y00145034D02*
Y00178054D01*
Y00119634D02*
Y00145034D01*
X00257374Y00118364D02*
X00272796D01*
X00257602Y00168936D02*
X00271754D01*
X00436118Y00115062D02*
Y00127762D01*
X00423164Y00279201D02*
Y00288143D01*
X00359156Y00123444D02*
X00377008D01*
X00352981Y00129619D02*
X00359156Y00123444D01*
X00250825Y00048133D02*
Y00067491D01*
X00247625Y00044933D02*
X00250825Y00048133D01*
X00507657Y00152743D02*
X00514096Y00146304D01*
X00497072Y00153162D02*
Y00165862D01*
X00497491Y00152743D02*
X00507657D01*
X00497072Y00153162D02*
X00497491Y00152743D01*
X00416306Y00053594D02*
X0041656Y0005334D01*
Y00032988D02*
Y0005334D01*
X00289782Y00295369D02*
Y00296555D01*
X0028575Y00291337D02*
X00289782Y00295369D01*
X0028575Y00286962D02*
Y00291337D01*
X00289782Y00296555D02*
X00290201Y00296974D01*
X0034925Y00287199D02*
X00350595Y00288544D01*
X0034925Y00286962D02*
Y00287199D01*
X00330654Y00320294D02*
X00340554Y00330194D01*
X00195579Y00179641D02*
X00197802Y00181864D01*
X00190665Y00179641D02*
X00195579D01*
X00197802Y00181864D02*
X00202874D01*
X00190246Y00179222D02*
X00190665Y00179641D01*
X00340554Y00330194D02*
Y00333248D01*
X00376589Y00097625D02*
X00377008Y00098044D01*
X00352806Y00110744D02*
X00377008D01*
X00343916Y00119634D02*
X00352806Y00110744D01*
X00377008D02*
X00388366D01*
X00322508Y00098044D02*
Y00110744D01*
X00133756Y00205792D02*
X00141451Y00198097D01*
X00229529Y0012961D02*
X00229694D01*
X00230126Y00129178D01*
X00240314D01*
X0022461Y00157734D02*
X00239776D01*
X00249564Y00156236D02*
X00257146D01*
X00247929Y00155194D02*
X00248522D01*
X00249564Y00156236D01*
X0022334Y00156464D02*
X0022461Y00157734D01*
X00202874Y00156464D02*
X0022334D01*
X00202874Y00131064D02*
X00228075D01*
X00229529Y0012961D01*
X00257374Y00169164D02*
X00257602Y00168936D01*
X00102616Y00086614D02*
X00110236Y00094234D01*
Y00110788D01*
X00047004Y00027686D02*
X00108204D01*
X00099104Y0012192D02*
X00110236Y00110788D01*
X00061336Y00061D02*
X00110022D01*
X00257374Y00169164D02*
Y00181864D01*
X00257146Y00156236D02*
X00257374Y00156464D01*
X00060836Y000615D02*
X00061336Y00061D01*
X00047004Y000615D02*
X00060836D01*
X00059899Y00079169D02*
X00105331D01*
X00047004Y00092065D02*
X00059899Y00079169D01*
X00074561Y0009652D02*
X00082804D01*
X00082296Y00091694D02*
X00082715Y00092113D01*
Y00096431D01*
X00082804Y0009652D01*
X00092195Y00086614D02*
X00102616D01*
X00298806Y00065584D02*
X0030226Y0006213D01*
Y00032988D02*
Y0006213D01*
X0034036Y00032988D02*
X0035306D01*
X00264354Y00333248D02*
Y00351984D01*
X00442154Y00333248D02*
X00454854D01*
X00428365Y00334337D02*
Y00345319D01*
Y00334337D02*
X00429454Y00333248D01*
X00428187Y00345497D02*
X00428365Y00345319D01*
X00428187Y00345497D02*
Y00353489D01*
X00427092Y00354584D02*
X00428187Y00353489D01*
X00395224Y00361188D02*
X00401828Y00354584D01*
X00411108D01*
X00047004Y00227321D02*
X0004925Y00225076D01*
Y00218088D02*
Y00225076D01*
Y00218088D02*
X00072136Y00195202D01*
X00082804Y0009652D02*
X00093654D01*
X00133756Y00205792D02*
Y00209042D01*
X00140297Y00250211D02*
X00140716Y00249792D01*
X0013819Y00250211D02*
X00140297D01*
X00137782Y00250619D02*
X0013819Y00250211D01*
X00154101Y00210589D02*
Y00216502D01*
X00066589Y00236941D02*
Y002448D01*
X00067056Y00236105D02*
Y00236474D01*
Y00236105D02*
X00122936Y00180225D01*
X00066589Y00236941D02*
X00067056Y00236474D01*
X00047004Y00261136D02*
X00050849Y00257291D01*
X00047004Y00261136D02*
Y00264386D01*
X00054099Y00257291D02*
X00066589Y002448D01*
X00050849Y00257291D02*
X00054099D01*
X00079756Y00181118D02*
Y00193294D01*
X00049276Y00249174D02*
X00054434Y00244016D01*
X00054595D01*
X00057199Y00241251D02*
Y00241413D01*
X00059436Y00218325D02*
Y00239014D01*
X00054595Y00244016D02*
X00057199Y00241413D01*
Y00241251D02*
X00059436Y00239014D01*
X00079337Y00193713D02*
Y00198424D01*
X00059436Y00218325D02*
X00079337Y00198424D01*
Y00193713D02*
X00079756Y00193294D01*
X00072136Y00163338D02*
Y00195202D01*
X00047535Y00196757D02*
X00050484Y00199706D01*
X00047004Y00201127D02*
Y00204377D01*
X00056237Y00193953D02*
X00065786Y00184404D01*
X00047004Y00201127D02*
X00049189Y00198942D01*
X00065786Y00159004D02*
Y00184404D01*
X00050484Y00194318D02*
X00050849Y00193953D01*
X00056237D01*
X00047004Y00196757D02*
X00047535D01*
X00050484Y00194318D02*
Y00199706D01*
X00059436Y00155194D02*
Y00172974D01*
X00071717Y00135293D02*
Y00142913D01*
Y00135293D02*
X00072136Y00134874D01*
X00059436Y00155194D02*
X00071717Y00142913D01*
X00047004Y00092065D02*
Y00095315D01*
Y00268756D02*
Y00272006D01*
X00072136Y00163338D02*
X00088154Y0014732D01*
X00065786Y00159004D02*
X00087926Y00136864D01*
X00088154Y0014732D02*
X00093654D01*
X00088476Y0013462D02*
X00093654D01*
X00087926Y0013517D02*
X00088476Y0013462D01*
X00087926Y0013517D02*
Y00136864D01*
X00079756Y00181118D02*
X00088154Y0017272D01*
X00018528Y00035306D02*
X00018669Y00035447D01*
X00088154Y0017272D02*
X00093654D01*
X00131064Y0013462D02*
X00150694D01*
X00093654Y0012192D02*
X00099104D01*
X00233426Y00118364D02*
X00257374D01*
X00220726Y00105664D02*
X00233426Y00118364D01*
X00202874Y00105664D02*
X00220726D01*
X00155956Y00218357D02*
Y00231322D01*
X00154101Y00216502D02*
X00155956Y00218357D01*
D47*
X005207Y00268646D02*
Y0029337D01*
X00511556Y00261502D02*
X00512008Y00261954D01*
X00514008D02*
X005207Y00268646D01*
X00507238Y00306832D02*
X005207Y0029337D01*
X00512008Y00261954D02*
X00514008D01*
X00340381Y00091694D02*
X00356616D01*
X00334031Y00085344D02*
X00340381Y00091694D01*
X00185596Y00078818D02*
X00191516Y00072898D01*
X00221996D01*
X00173912Y00078818D02*
X00185596D01*
X0018542Y00319094D02*
X00185669D01*
X00192223Y0031254D01*
X00193732D01*
X00397256Y00138176D02*
X00412242Y00153162D01*
X00436118D01*
X00397256Y00119634D02*
Y00138176D01*
X0040767Y00101595D02*
Y00130837D01*
X00405336Y00133171D02*
Y0013342D01*
Y00133171D02*
X0040767Y00130837D01*
X00405052Y00097725D02*
Y00098127D01*
X00405181Y00081954D02*
Y00097596D01*
X00404876Y00098801D02*
X0040767Y00101595D01*
X00405052Y00098127D02*
X00405177Y00098251D01*
X00404876Y00098552D02*
Y00098801D01*
X00402765Y00079538D02*
X00405181Y00081954D01*
X00405052Y00097725D02*
X00405181Y00097596D01*
X00355346Y00288544D02*
X00383286D01*
X00262044Y00105664D02*
X00262084Y00105704D01*
Y0010689D01*
X00257374Y00105664D02*
X00262044D01*
X00265572Y00110378D02*
X00290723D01*
X00262084Y0010689D02*
X00265572Y00110378D01*
X00295407Y00115062D02*
X00295656D01*
X00290723Y00110378D02*
X00295407Y00115062D01*
X00145621Y00066977D02*
Y00073152D01*
Y00066977D02*
X00149213Y00063385D01*
Y00058307D02*
Y00063385D01*
X00156466Y00051054D02*
X00176648D01*
X00149213Y00058307D02*
X00156466Y00051054D01*
X0042248Y00083644D02*
Y00088978D01*
X00422656Y00089154D01*
X00413258Y00074422D02*
X0042248Y00083644D01*
X00402765Y00040815D02*
Y00079538D01*
X00402771Y00034077D02*
X0040386Y00032988D01*
X00402771Y00034077D02*
Y00040809D01*
X00402765Y00040815D02*
X00402771Y00040809D01*
X00295656Y00115062D02*
Y00167894D01*
X0039116Y00080518D02*
X00397256Y00086614D01*
X00071628Y00249931D02*
Y00286517D01*
X00068834Y00289311D02*
Y0028956D01*
Y00289311D02*
X00071628Y00286517D01*
Y00249931D02*
X00074676Y00246883D01*
X00068658Y00289736D02*
X00068834Y0028956D01*
X00074676Y00246634D02*
Y00246883D01*
X00146053Y0005004D02*
X00146472Y00049621D01*
Y00042387D02*
Y00049621D01*
Y00042387D02*
X0016212Y00026739D01*
X00248206Y00263144D02*
X00248455D01*
X00228321D02*
X00248206D01*
X00206756Y00285822D02*
Y003132D01*
Y00281653D02*
Y00285822D01*
X00511556Y00238145D02*
X00513587Y00236114D01*
Y0023157D02*
X00513763Y00231394D01*
X00513587Y0023157D02*
Y00236114D01*
X00511556Y00238145D02*
Y00261502D01*
X00068381Y00289736D02*
X00068658D01*
X00054483Y00303634D02*
X00068381Y00289736D01*
X00054483Y00303634D02*
Y00310134D01*
X00395224Y00249174D02*
X00428544D01*
X00385064Y00259334D02*
X00395224Y00249174D01*
X00341376Y00259334D02*
X00385064D01*
X003815Y00248736D02*
X00397764Y00232472D01*
Y00232156D02*
Y00232472D01*
X00335534Y00253492D02*
X00341376Y00259334D01*
X00274795Y00256794D02*
X00278097Y00253492D01*
X00335534D01*
X00234411Y00251539D02*
X00249752D01*
X00272487Y00248326D02*
X00275194Y00245618D01*
X00249752Y00251539D02*
X00252965Y00248326D01*
X00341554Y00248736D02*
X003815D01*
X00251249Y0026035D02*
X00251717D01*
X00248455Y00263144D02*
X00251249Y0026035D01*
X00255273Y00256794D02*
X00274795D01*
X00251717Y0026035D02*
X00255273Y00256794D01*
X00275194Y00245618D02*
X00338436D01*
X00252965Y00248326D02*
X00272487D01*
X00338436Y00245618D02*
X00341554Y00248736D01*
X0022552Y00261288D02*
X00225696Y00261112D01*
X00207057Y00281353D02*
X0022552Y00262889D01*
Y00261288D02*
Y00262889D01*
X00415036Y00065024D02*
X00422148D01*
X00433578Y00076454D01*
X00259823Y00076489D02*
X00293099D01*
X00316484Y00085344D02*
X00334031D01*
X00293099Y00076489D02*
X00307629D01*
X00316484Y00085344D01*
X0018796Y00032988D02*
X00188806Y00033834D01*
Y00041486D01*
X00192253Y00044933D01*
X00222245Y00072898D02*
X00222703Y00073356D01*
X00239776D01*
X00173736Y00078994D02*
X00173912Y00078818D01*
X00161036Y00078994D02*
X00173736D01*
X00160664Y00066548D02*
Y00079366D01*
Y00091994D01*
X00156138Y0009652D02*
X00160664Y00091994D01*
Y00079366D02*
X00161036Y00078994D01*
X00150694Y0009652D02*
X00156138D01*
X00234236Y00251714D02*
X00234411Y00251539D01*
X00245105Y00231394D02*
X00246433Y00232722D01*
X0026035D01*
X00244856Y00231394D02*
X00245105D01*
X00428544Y00249174D02*
X00447594Y00268224D01*
X00191024Y00326426D02*
Y00326432D01*
Y00326426D02*
X0019729Y0032016D01*
X00188154Y00329302D02*
X00191024Y00326432D01*
X0019729Y0032016D02*
X00199796D01*
X00206756Y003132D01*
X00195174Y00307138D02*
Y00311098D01*
X00193732Y0031254D02*
X00195174Y00311098D01*
X00396494Y00306832D02*
X00507238D01*
X00447594Y00268224D02*
X00465836D01*
X00403606Y00174244D02*
X00407924Y00178562D01*
X00436118D01*
X00472694Y00194564D02*
X00509016D01*
X00435356Y00179324D02*
X00436118Y00178562D01*
X0039116Y00032988D02*
Y00080518D01*
X00074676Y00246634D02*
X00086821Y00234489D01*
X00176648Y00034376D02*
Y00051054D01*
Y00066548D01*
Y00032988D02*
X0018796D01*
X00133756Y00209042D02*
Y00209244D01*
X00086821Y00234489D02*
X00090989D01*
X00092084Y00231394D02*
Y00233394D01*
X00090989Y00234489D02*
X00092084Y00233394D01*
X00108068Y00231394D02*
X00108104Y00231358D01*
X0013052D02*
X00130556Y00231322D01*
X00202874Y00169164D02*
Y00181864D01*
X00188154Y00329302D02*
Y00333248D01*
X00194056Y0030602D02*
X00195174Y00307138D01*
X00194056Y00285822D02*
Y0030602D01*
X00176174Y00310388D02*
Y00313638D01*
X00175454Y00314358D02*
X00176174Y00313638D01*
X00130556Y00212444D02*
X00133756Y00209244D01*
D48*
X0034441Y0030734D02*
X0038658D01*
X00338575Y00301505D02*
X0034441Y0030734D01*
X0038658D02*
X00389049Y00309809D01*
Y00309916D01*
X0032385Y00286962D02*
X00324044Y00287155D01*
Y00297374D01*
X00328175Y00301505D01*
X00338575D01*
X00357532Y00267414D02*
X00388414D01*
X00397304Y00258524D02*
X00422656D01*
X00388414Y00267414D02*
X00397304Y00258524D01*
X00389049Y00309916D02*
X00392001Y00312868D01*
Y00332601D01*
X00391354Y00333248D02*
X00392001Y00332601D01*
D49*
X00497586Y00278892D02*
X00509406D01*
X00108104Y00231358D02*
X0013052D01*
X00175454Y00314358D02*
Y00333248D01*
X00188154D01*
X00130556Y00212444D02*
Y00231322D01*
D50*
X00095504Y00265684D02*
X00098376Y00268556D01*
X00122476D01*
X00459826Y00079255D02*
X00467875D01*
X004784Y0008978D01*
Y00102362D01*
X00458826Y00076454D02*
Y00078255D01*
X00459826Y00079255D01*
X00453898Y00140462D02*
X00466598D01*
X00436118D02*
X00453898D01*
X00473456Y00112014D02*
Y00133604D01*
X00466598Y00140462D02*
X00473456Y00133604D01*
X00453898Y00140462D02*
Y00183642D01*
X00473456Y00112014D02*
X00480754Y00104716D01*
X00482608Y00102862D01*
X0037084Y00204724D02*
Y00218608D01*
X00348627Y00197739D02*
X00363855D01*
X0037084Y00204724D01*
X00376126Y00220608D02*
X00397013D01*
X00397764Y00219857D01*
X0037184Y00219608D02*
X00373126D01*
X0037084Y00218608D02*
X0037184Y00219608D01*
X00322508Y00186944D02*
X00337832D01*
X00348627Y00197739D01*
X00397764Y00219857D02*
Y00232156D01*
X00165618Y00265682D02*
X00171468Y00259832D01*
X00135803Y00265682D02*
X00165618D01*
X00171468Y00259832D02*
X00196098D01*
X00204216Y00251714D01*
X004784Y00102362D02*
X00480754Y00104716D01*
X00482608Y00102862D02*
X00496572D01*
X00497072Y00102362D01*
X00448056Y00189484D02*
X00453898Y00183642D01*
X00413766Y00189484D02*
X00448056D01*
X00398089Y00205161D02*
X00413766Y00189484D01*
X00398089Y00205161D02*
Y00219532D01*
X00397764Y00219857D02*
X00398089Y00219532D01*
X00066906Y00071224D02*
X00102616D01*
X00064627Y00068945D02*
X00066906Y00071224D01*
X00134531Y00266954D02*
X00135803Y00265682D01*
X00124079Y00266954D02*
X00134531D01*
X00122476Y00268556D02*
X00124079Y00266954D01*
D51*
X00227076Y00285822D02*
X0026976D01*
X00071757Y00216533D02*
X00092599Y00195691D01*
Y0018542D02*
Y00195691D01*
X00092473Y00296147D02*
X00093709D01*
X00122417Y00324855D01*
X00145277D01*
X00219456Y00285822D02*
X00227076D01*
X00093654Y0018542D02*
X0010541D01*
X00092599D02*
X00093654D01*
X0026976Y00285822D02*
X0027051Y00285072D01*
X0010541Y0018542D02*
X00110236Y00180594D01*
Y00165354D02*
Y00180594D01*
X00105149Y00160267D02*
X00110236Y00165354D01*
X00093654Y0016002D02*
X00093901Y00160267D01*
X00105149D01*
D52*
X00467554Y00333248D02*
D03*
X0017526Y00032988D02*
D03*
D53*
X00454854Y00333248D02*
D03*
X00442154D02*
D03*
X00429454D02*
D03*
X00416754D02*
D03*
X00404054D02*
D03*
X00391354D02*
D03*
X00378654D02*
D03*
X00365954D02*
D03*
X00353254D02*
D03*
X00340554D02*
D03*
X00327854D02*
D03*
X00315154D02*
D03*
X00302454D02*
D03*
X00289754D02*
D03*
X00277054D02*
D03*
X00264354D02*
D03*
X00251654D02*
D03*
X00238954D02*
D03*
X00226254D02*
D03*
X00213554D02*
D03*
X00200854D02*
D03*
X00188154D02*
D03*
X00175454D02*
D03*
X0018796Y00032988D02*
D03*
X0020066D02*
D03*
X0021336D02*
D03*
X0022606D02*
D03*
X0023876D02*
D03*
X0025146D02*
D03*
X0026416D02*
D03*
X0027686D02*
D03*
X0028956D02*
D03*
X0030226D02*
D03*
X0031496D02*
D03*
X0032766D02*
D03*
X0034036D02*
D03*
X0035306D02*
D03*
X0036576D02*
D03*
X0037846D02*
D03*
X0039116D02*
D03*
X0040386D02*
D03*
X0041656D02*
D03*
X0042926D02*
D03*
X0044196D02*
D03*
X0045466D02*
D03*
X0046736D02*
D03*
D54*
X00253238Y00299212D02*
D03*
X00272043Y00269954D02*
D03*
X00095504Y00265684D02*
D03*
X00094996Y00251714D02*
D03*
X00036576Y0021209D02*
D03*
X00356616Y00091694D02*
D03*
X0018542Y00319094D02*
D03*
X00405336Y0013342D02*
D03*
X0037084Y00204724D02*
D03*
X00350879Y00217709D02*
D03*
X00383286Y00288544D02*
D03*
X00355346D02*
D03*
X00268986Y00101346D02*
D03*
X00140648Y00058237D02*
D03*
X00397256Y00119634D02*
D03*
X00413258Y00074422D02*
D03*
X00347726Y00300127D02*
D03*
X00383089Y00314636D02*
D03*
X00285014Y00315674D02*
D03*
X00246574Y00213152D02*
D03*
X00295656Y00115062D02*
D03*
X00404876Y00098552D02*
D03*
X00071628Y00286517D02*
D03*
X00497586Y00278892D02*
D03*
X00205232Y00216154D02*
D03*
X00027686Y00249174D02*
D03*
X00071757Y00216533D02*
D03*
X00146053Y0005004D02*
D03*
X0034876Y00185088D02*
D03*
X00513763Y00231394D02*
D03*
X00162306Y00026924D02*
D03*
X0026914Y00240246D02*
D03*
X00115104Y00259016D02*
D03*
X00226378Y0006008D02*
D03*
X00305816Y00091186D02*
D03*
X00289481Y00084569D02*
D03*
X00221996Y00072898D02*
D03*
X00178816Y00134874D02*
D03*
X00173736Y00078994D02*
D03*
X00262663Y00189886D02*
D03*
X00225696Y00261112D02*
D03*
X00227272Y00239014D02*
D03*
X00248206Y00263144D02*
D03*
X00255016Y00272034D02*
D03*
X00234236Y00251714D02*
D03*
X00244856Y00231394D02*
D03*
X00244798Y00221505D02*
D03*
X00341376Y00259334D02*
D03*
X00331216Y00261874D02*
D03*
X00357532Y00267414D02*
D03*
X00422656Y00258524D02*
D03*
X00427736Y00272034D02*
D03*
X00292847Y00266772D02*
D03*
X00379476Y00279654D02*
D03*
X00097536Y00038354D02*
D03*
X00111506Y00202184D02*
D03*
X00241114Y00200064D02*
D03*
X00183737Y00172034D02*
D03*
X00187438Y00164332D02*
D03*
X0022119Y00319489D02*
D03*
X00092473Y00296147D02*
D03*
X00133096Y00315214D02*
D03*
X00145277Y00324855D02*
D03*
X00218186Y00298704D02*
D03*
X00227076Y00285822D02*
D03*
X00138176Y00020574D02*
D03*
X00293116Y00051054D02*
D03*
X00396494Y00306832D02*
D03*
X00449326Y00131064D02*
D03*
X00472646Y00156606D02*
D03*
X00464566Y00178054D02*
D03*
X00453136Y00114554D02*
D03*
X00467106Y00098044D02*
D03*
X00465836Y00268224D02*
D03*
X00422656Y00089154D02*
D03*
X00415036Y00065024D02*
D03*
X00439166Y00063754D02*
D03*
X00403606Y00174244D02*
D03*
X0043561Y00198524D02*
D03*
X00384556Y00202184D02*
D03*
X00235886Y00207107D02*
D03*
X00293099Y00076489D02*
D03*
X00509016Y00194564D02*
D03*
X00484886Y00256794D02*
D03*
X00519176Y00153924D02*
D03*
X00514096Y00146304D02*
D03*
X00433857Y00265914D02*
D03*
X00472694Y00194564D02*
D03*
X00268209Y00138509D02*
D03*
X00364236Y00174244D02*
D03*
X00345186Y00208534D02*
D03*
X00295656Y00167894D02*
D03*
X00343916Y00178054D02*
D03*
X00323412Y0005087D02*
D03*
X0025827Y00051308D02*
D03*
X00416306Y00053594D02*
D03*
X0027898Y00212598D02*
D03*
X00290576Y00193294D02*
D03*
X00331964Y00206151D02*
D03*
X00290201Y00296974D02*
D03*
X00190246Y00179222D02*
D03*
X00163551Y00254409D02*
D03*
X00171196Y00198097D02*
D03*
X00213106Y00190754D02*
D03*
X00293116Y00312674D02*
D03*
X00364236Y00096774D02*
D03*
X00343916Y00145034D02*
D03*
X00240314Y00129178D02*
D03*
X00232966Y00150114D02*
D03*
X00239776Y00157734D02*
D03*
X00247929Y00155194D02*
D03*
X00244856Y00142494D02*
D03*
X00143256Y00086614D02*
D03*
X00145621Y00073152D02*
D03*
X00064627Y00068945D02*
D03*
X00077216Y00104394D02*
D03*
X00082296Y00091694D02*
D03*
X00102616Y00071224D02*
D03*
X00092195Y00086614D02*
D03*
X00395224Y00361188D02*
D03*
X00121491Y00279654D02*
D03*
X00168402Y00213868D02*
D03*
X00204216Y00251714D02*
D03*
X00140716Y00249792D02*
D03*
X00072136Y00134874D02*
D03*
X00079756Y00193294D02*
D03*
X00143256Y00216154D02*
D03*
D55*
X00219456Y00231322D02*
D03*
X00206756D02*
D03*
X00194056D02*
D03*
X00181356D02*
D03*
X00168656D02*
D03*
X00155956D02*
D03*
X00143256D02*
D03*
X00130556D02*
D03*
X00219456Y00285822D02*
D03*
X00206756D02*
D03*
X00194056D02*
D03*
X00181356D02*
D03*
X00168656D02*
D03*
X00155956D02*
D03*
X00143256D02*
D03*
X00130556D02*
D03*
D56*
X0026035Y00232722D02*
D03*
X0027305D02*
D03*
X0028575D02*
D03*
X0029845D02*
D03*
X0031115D02*
D03*
X0032385D02*
D03*
X0033655D02*
D03*
X0034925D02*
D03*
Y00286962D02*
D03*
X0033655D02*
D03*
X0032385D02*
D03*
X0031115D02*
D03*
X0029845D02*
D03*
X0028575D02*
D03*
X0027305D02*
D03*
X0026035D02*
D03*
D57*
X00436118Y00102362D02*
D03*
Y00115062D02*
D03*
Y00127762D02*
D03*
Y00140462D02*
D03*
Y00153162D02*
D03*
Y00165862D02*
D03*
Y00178562D02*
D03*
X00497072Y00102362D02*
D03*
Y00115062D02*
D03*
Y00127762D02*
D03*
Y00140462D02*
D03*
Y00153162D02*
D03*
Y00165862D02*
D03*
X00496818Y00178562D02*
D03*
D58*
X00397764Y00287643D02*
D03*
D59*
X00410464Y00287893D02*
D03*
X00423164Y00288143D02*
D03*
X00435864D02*
D03*
X00448564D02*
D03*
X00461264D02*
D03*
X00473964Y00288139D02*
D03*
X00486664D02*
D03*
Y00219861D02*
D03*
X00473964Y00219857D02*
D03*
X00461264D02*
D03*
X00448564D02*
D03*
X00435864D02*
D03*
X00423164D02*
D03*
X00410464D02*
D03*
X00397764D02*
D03*
D60*
X00054483Y00310134D02*
D03*
X00018669D02*
D03*
D61*
X00239776Y00054356D02*
D03*
X00264776Y00063856D02*
D03*
D62*
X00239776Y00073356D02*
D03*
D63*
X00202874Y00105664D02*
D03*
Y00118364D02*
D03*
Y00131064D02*
D03*
Y00143764D02*
D03*
Y00156464D02*
D03*
Y00169164D02*
D03*
Y00181864D02*
D03*
X00257374Y00105664D02*
D03*
Y00118364D02*
D03*
Y00131064D02*
D03*
Y00143764D02*
D03*
Y00156464D02*
D03*
Y00169164D02*
D03*
Y00181864D02*
D03*
M02*
