G04*
G04 #@! TF.GenerationSoftware,Altium Limited,Altium Designer,23.0.1 (38)*
G04*
G04 Layer_Color=16711935*
%FSLAX25Y25*%
%MOIN*%
G70*
G04*
G04 #@! TF.SameCoordinates,9BF97A08-6F66-48D1-9A7C-BDF13F6F14C4*
G04*
G04*
G04 #@! TF.FilePolarity,Positive*
G04*
G01*
G75*
%ADD68C,0.00394*%
D68*
X42838Y34258D02*
G03*
X42838Y34258I-1969J0D01*
G01*
X41027Y101102D02*
G03*
X41027Y101102I-1969J0D01*
G01*
X84299Y34658D02*
G03*
X84299Y34658I-1969J0D01*
G01*
X48699Y34858D02*
G03*
X48699Y34858I-1969J0D01*
G01*
X72810Y103202D02*
G03*
X72810Y103202I-1969J0D01*
G01*
X157299Y32758D02*
G03*
X157299Y32758I-1969J0D01*
G01*
X156899Y64081D02*
G03*
X156899Y64081I-1969J0D01*
G01*
X86299Y64280D02*
G03*
X86299Y64280I-1969J0D01*
G01*
X120999Y66542D02*
G03*
X120999Y66542I-1969J0D01*
G01*
X159510Y102931D02*
G03*
X159510Y102931I-1969J0D01*
G01*
X121099Y37920D02*
G03*
X121099Y37920I-1969J0D01*
G01*
X113848Y102331D02*
G03*
X113848Y102331I-1969J0D01*
G01*
X37326Y70085D02*
X53074D01*
X37326Y30715D02*
X53074D01*
Y70085D01*
X37326Y30715D02*
Y70085D01*
X35515Y104646D02*
X74885D01*
X35515Y88898D02*
X74885D01*
X35515D02*
Y104646D01*
X74885Y88898D02*
Y104646D01*
X70126Y70485D02*
X85874D01*
X70126Y31115D02*
X85874D01*
X70126D02*
Y70485D01*
X85874Y31115D02*
Y70485D01*
X50274Y31315D02*
Y70685D01*
X34526Y31315D02*
Y70685D01*
Y31315D02*
X50274D01*
X34526Y70685D02*
X50274D01*
X108107Y19307D02*
X121493D01*
X108107Y26394D02*
X121493D01*
X108107Y19307D02*
Y26394D01*
X121493Y19307D02*
Y26394D01*
X35015Y106746D02*
X74385D01*
X35015Y90998D02*
X74385D01*
Y106746D01*
X35015Y90998D02*
Y106746D01*
X20993Y90057D02*
Y97143D01*
X7607Y90057D02*
Y97143D01*
X20993D01*
X7607Y90057D02*
X20993D01*
X20893Y75485D02*
Y82572D01*
X7507Y75485D02*
Y82572D01*
X20893D01*
X7507Y75485D02*
X20893D01*
X7507Y63914D02*
X20893D01*
X7507Y71000D02*
X20893D01*
X7507Y63914D02*
Y71000D01*
X20893Y63914D02*
Y71000D01*
X7507Y52342D02*
X20893D01*
X7507Y59429D02*
X20893D01*
X7507Y52342D02*
Y59429D01*
X20893Y52342D02*
Y59429D01*
X7507Y40771D02*
X20893D01*
X7507Y47858D02*
X20893D01*
X7507Y40771D02*
Y47858D01*
X20893Y40771D02*
Y47858D01*
X7507Y29199D02*
X20893D01*
X7507Y36286D02*
X20893D01*
X7507Y29199D02*
Y36286D01*
X20893Y29199D02*
Y36286D01*
Y17628D02*
Y24715D01*
X7507Y17628D02*
Y24715D01*
X20893D01*
X7507Y17628D02*
X20893D01*
Y6057D02*
Y13143D01*
X7507Y6057D02*
Y13143D01*
X20893D01*
X7507Y6057D02*
X20893D01*
X78812Y100377D02*
X83812Y105377D01*
X78812D02*
X117788D01*
Y90023D02*
Y105377D01*
X78812Y90023D02*
X117788D01*
X78812D02*
Y105377D01*
X5923Y54757D02*
X19309D01*
X5923Y61843D02*
X19309D01*
Y54757D02*
Y61843D01*
X5923Y54757D02*
Y61843D01*
Y42496D02*
X19309D01*
X5923Y49582D02*
X19309D01*
Y42496D02*
Y49582D01*
X5923Y42496D02*
Y49582D01*
X143126Y68585D02*
X158874D01*
X143126Y29215D02*
X158874D01*
X143126D02*
Y68585D01*
X158874Y29215D02*
Y68585D01*
X158474Y33176D02*
Y67624D01*
X142726Y33176D02*
Y67624D01*
X158474D01*
X142726Y33176D02*
X158474D01*
X5923Y66757D02*
Y73843D01*
X19309Y66757D02*
Y73843D01*
X5923D02*
X19309D01*
X5923Y66757D02*
X19309D01*
X5923Y30735D02*
Y37822D01*
X19309Y30735D02*
Y37822D01*
X5923D02*
X19309D01*
X5923Y30735D02*
X19309D01*
X72126Y33276D02*
X87874D01*
X72126Y67724D02*
X87874D01*
X72126Y33276D02*
Y67724D01*
X87874Y33276D02*
Y67724D01*
X122574Y30715D02*
Y70085D01*
X106826Y30715D02*
Y70085D01*
X122574D01*
X106826Y30715D02*
X122574D01*
X121715Y90726D02*
Y106474D01*
X161085Y90726D02*
Y106474D01*
X121715Y90726D02*
X161085D01*
X121715Y106474D02*
X161085D01*
X122674Y34476D02*
Y68924D01*
X106926Y34476D02*
Y68924D01*
Y34476D02*
X122674D01*
X106926Y68924D02*
X122674D01*
X80876Y105874D02*
X115324D01*
X80876Y90126D02*
X115324D01*
Y105874D01*
X80876Y90126D02*
Y105874D01*
M02*
