G04*
G04 #@! TF.GenerationSoftware,Altium Limited,Altium Designer,23.0.1 (38)*
G04*
G04 Layer_Physical_Order=1*
G04 Layer_Color=255*
%FSLAX25Y25*%
%MOIN*%
G70*
G04*
G04 #@! TF.SameCoordinates,9BF97A08-6F66-48D1-9A7C-BDF13F6F14C4*
G04*
G04*
G04 #@! TF.FilePolarity,Positive*
G04*
G01*
G75*
%ADD15C,0.01000*%
%ADD16O,0.06299X0.02559*%
%ADD17R,0.06299X0.02559*%
%ADD18R,0.06299X0.01968*%
%ADD19O,0.06299X0.01968*%
%ADD20R,0.02559X0.05118*%
%ADD21R,0.03937X0.02362*%
%ADD22R,0.03543X0.05118*%
%ADD23R,0.01968X0.06299*%
%ADD24O,0.01968X0.06299*%
%ADD25R,0.04528X0.07087*%
%ADD26O,0.05709X0.02362*%
%ADD27O,0.01968X0.05709*%
%ADD42C,0.01500*%
%ADD43C,0.02000*%
%ADD44C,0.01200*%
%ADD45O,0.03740X0.05906*%
%ADD46R,0.03740X0.05906*%
%ADD47C,0.02362*%
G36*
X26910Y34700D02*
X26911Y34697D01*
X26995Y34500D01*
X31172D01*
X35348D01*
X35432Y34697D01*
X35434Y34700D01*
X42500D01*
Y26559D01*
X40860D01*
Y23000D01*
Y19441D01*
X42500D01*
Y14400D01*
X42400Y14300D01*
X24100D01*
Y34700D01*
X26910D01*
D02*
G37*
G36*
X58900Y56800D02*
X57646D01*
X57378Y57300D01*
X57512Y57500D01*
X53628D01*
X49745D01*
X49878Y57300D01*
X49611Y56800D01*
X48650D01*
X48596Y66611D01*
X48649Y66664D01*
X48981Y67466D01*
X48981Y68243D01*
X48981Y68243D01*
Y68334D01*
X48951Y68408D01*
X48950Y68408D01*
X48834Y68689D01*
X48649Y69135D01*
X48582Y69203D01*
X48552Y74546D01*
X48905Y74900D01*
X58900D01*
Y56800D01*
D02*
G37*
G36*
X36075Y113900D02*
X35769Y113696D01*
X35331Y113040D01*
X35177Y112265D01*
Y111100D01*
X37200D01*
Y110100D01*
X38200D01*
Y106047D01*
X38500Y105886D01*
Y102700D01*
X29700Y93900D01*
X18700D01*
Y102000D01*
X18800Y102100D01*
X27900D01*
Y114400D01*
X35923D01*
X36075Y113900D01*
D02*
G37*
G36*
X44188Y129700D02*
X44027Y129679D01*
X43329Y129390D01*
X42729Y128930D01*
X42269Y128330D01*
X41980Y127632D01*
X41881Y126883D01*
Y126800D01*
X44776D01*
Y125800D01*
X45776D01*
Y122025D01*
X46224Y122210D01*
X46823Y122670D01*
X47026Y122935D01*
X47526D01*
X47729Y122670D01*
X48329Y122210D01*
X48776Y122025D01*
Y125800D01*
X50776D01*
Y122025D01*
X51224Y122210D01*
X51823Y122670D01*
X52017Y122683D01*
X53600Y121100D01*
X67700D01*
X71600Y117200D01*
Y114800D01*
X67800D01*
X64500Y118100D01*
X43700D01*
X40400Y121400D01*
Y130200D01*
X44155D01*
X44188Y129700D01*
D02*
G37*
G36*
X127250Y112300D02*
X127031Y111973D01*
X126877Y111198D01*
Y110328D01*
X128900D01*
Y108328D01*
X126877D01*
Y107458D01*
X127031Y106684D01*
X127469Y106028D01*
X128126Y105589D01*
X128900Y105435D01*
X128935Y105442D01*
X129181Y104981D01*
X126100Y101900D01*
Y90921D01*
X125600Y90769D01*
X125331Y91172D01*
X124900Y91460D01*
Y87872D01*
Y84283D01*
X125331Y84571D01*
X125600Y84974D01*
X126100Y84823D01*
Y80900D01*
X126800Y80200D01*
X129100D01*
Y79459D01*
X128960D01*
Y75900D01*
Y72341D01*
X129100D01*
Y71400D01*
X117410D01*
X117226Y71675D01*
Y72542D01*
X116894Y73344D01*
X116281Y73958D01*
X115479Y74290D01*
X114611D01*
X113810Y73958D01*
X113196Y73344D01*
X112864Y72542D01*
Y71675D01*
X112680Y71400D01*
X110631D01*
Y75224D01*
X117107Y81700D01*
X120300D01*
Y84119D01*
X120934D01*
X121736Y84451D01*
X121945Y84660D01*
X122442Y84611D01*
X122469Y84571D01*
X122900Y84283D01*
Y87872D01*
Y91460D01*
X122469Y91172D01*
X122031Y90516D01*
X121877Y89742D01*
Y88632D01*
X121377Y88298D01*
X120934Y88481D01*
X120300D01*
Y112800D01*
X121982D01*
X122250Y112300D01*
X122031Y111973D01*
X121877Y111198D01*
Y110328D01*
X125923D01*
Y111198D01*
X125769Y111973D01*
X125550Y112300D01*
X125818Y112800D01*
X126982D01*
X127250Y112300D01*
D02*
G37*
G36*
X154900Y105740D02*
X155331Y106028D01*
X155700Y106581D01*
X156200Y106482D01*
Y102000D01*
X159200Y99000D01*
X165700D01*
X169200Y95500D01*
Y61300D01*
X167100Y59200D01*
X164935D01*
X164783Y59700D01*
X164974Y59828D01*
X165357Y60400D01*
X161728D01*
Y62400D01*
X165384D01*
X165300Y62800D01*
X166600Y64100D01*
Y67712D01*
X166630Y67812D01*
X166625Y67863D01*
X166635Y67912D01*
Y69800D01*
X166600Y69977D01*
Y70900D01*
X165500Y72000D01*
X158271D01*
X157912Y72341D01*
Y79459D01*
X157200D01*
Y84150D01*
X157700Y84417D01*
X157900Y84283D01*
Y87872D01*
Y91460D01*
X157700Y91326D01*
X157200Y91594D01*
Y93400D01*
X152600Y98000D01*
X151600D01*
Y106482D01*
X152100Y106581D01*
X152469Y106028D01*
X152900Y105740D01*
Y109328D01*
X154900D01*
Y105740D01*
D02*
G37*
G36*
X156100Y90921D02*
X155600Y90769D01*
X155331Y91172D01*
X154900Y91460D01*
Y87872D01*
Y84283D01*
X155331Y84571D01*
X155600Y84974D01*
X156100Y84823D01*
Y81700D01*
X153859Y79459D01*
X152368D01*
Y72341D01*
X153859D01*
X156400Y69800D01*
X165616D01*
Y67912D01*
X165116Y67760D01*
X164974Y67972D01*
X164253Y68454D01*
X163402Y68624D01*
X162728D01*
Y66400D01*
X161728D01*
Y65400D01*
X158100D01*
X158367Y65000D01*
X158141Y64500D01*
X157284D01*
X156736Y65049D01*
X155934Y65381D01*
X155066D01*
X154264Y65049D01*
X154200Y64984D01*
X152116D01*
X145259Y71841D01*
X145466Y72341D01*
X146660D01*
Y75900D01*
Y79459D01*
X145166D01*
X144959Y79959D01*
X145892Y80892D01*
X146081Y81019D01*
X147463Y82400D01*
X150900D01*
Y85885D01*
X150923Y86002D01*
Y89742D01*
X150900Y89858D01*
Y92700D01*
X156100D01*
Y90921D01*
D02*
G37*
G36*
X93000Y83200D02*
Y70372D01*
X92500Y70105D01*
X91988Y70447D01*
X91098Y70624D01*
X90228D01*
Y68300D01*
X88228D01*
Y70624D01*
X87358D01*
X86469Y70447D01*
X85715Y69943D01*
X85211Y69189D01*
X85034Y68300D01*
X85117Y67883D01*
X84656Y67637D01*
X84240Y68053D01*
X83438Y68385D01*
X82570D01*
X81769Y68053D01*
X81155Y67440D01*
X80823Y66638D01*
Y65770D01*
X81155Y64969D01*
X81769Y64355D01*
X82045Y64241D01*
X82095Y64037D01*
X82094Y63679D01*
X81551Y63135D01*
X81219Y62334D01*
Y61466D01*
X81551Y60664D01*
X82165Y60051D01*
X82966Y59719D01*
X83834D01*
X84636Y60051D01*
X85249Y60664D01*
X85477Y61214D01*
X86019Y61428D01*
X86063Y61424D01*
X86469Y61153D01*
X86961Y61055D01*
Y60545D01*
X86469Y60447D01*
X85715Y59943D01*
X85285Y59300D01*
X89228D01*
Y57300D01*
X85285D01*
X85715Y56657D01*
X86248Y56300D01*
X86097Y55800D01*
X85000D01*
X84600Y56200D01*
X83484Y55084D01*
X82972D01*
X82181Y55876D01*
X81949Y56436D01*
X81336Y57049D01*
X80534Y57381D01*
X79666D01*
X78865Y57049D01*
X78251Y56436D01*
X77919Y55634D01*
Y54766D01*
X78251Y53965D01*
X78865Y53351D01*
X79666Y53019D01*
X79991D01*
X80972Y52038D01*
X80972Y52038D01*
X81551Y51652D01*
X81853Y51591D01*
X82161Y51030D01*
X82066Y50799D01*
Y49931D01*
X82398Y49130D01*
X82800Y48727D01*
Y45651D01*
X82146Y45380D01*
X81532Y44767D01*
X81200Y43965D01*
Y43097D01*
X81532Y42296D01*
X82146Y41682D01*
X82800Y41411D01*
Y27700D01*
X83479Y27021D01*
X83288Y26559D01*
X82840D01*
Y24000D01*
X84120D01*
Y25727D01*
X84582Y25918D01*
X87100Y23400D01*
X102000Y23400D01*
X107000Y18400D01*
X116300D01*
Y19065D01*
X116769Y19141D01*
Y19141D01*
X118540D01*
Y22700D01*
X119540D01*
Y23700D01*
X122312D01*
Y25700D01*
X123900D01*
Y18400D01*
X124000Y18300D01*
X136900D01*
X137541Y18941D01*
X138531D01*
Y19931D01*
X139969Y21369D01*
X140469Y21161D01*
Y18941D01*
X142240D01*
Y22500D01*
Y26059D01*
X140800D01*
X140469Y26059D01*
X140300Y26489D01*
Y27000D01*
X155340D01*
Y19940D01*
X149784Y14384D01*
X128400D01*
X127717Y14248D01*
X127138Y13862D01*
X127077Y13800D01*
X78500D01*
X75500Y16800D01*
Y19441D01*
X76639D01*
Y26559D01*
X76639Y26559D01*
X76639D01*
X76702Y27033D01*
X76881Y27466D01*
Y28334D01*
X76549Y29136D01*
X75936Y29749D01*
X75500Y29929D01*
Y44245D01*
X75916Y44523D01*
X76166Y44419D01*
X77034D01*
X77836Y44751D01*
X78449Y45364D01*
X78781Y46166D01*
Y47034D01*
X78449Y47835D01*
X77836Y48449D01*
X77034Y48781D01*
X76166D01*
X75916Y48677D01*
X75500Y48955D01*
Y49187D01*
X75781Y49866D01*
Y50734D01*
X75500Y51412D01*
Y54078D01*
X75587Y54164D01*
X75919Y54966D01*
Y55834D01*
X75587Y56635D01*
X75500Y56722D01*
Y73441D01*
X76231D01*
Y80559D01*
X75500D01*
Y83100D01*
X75700Y83300D01*
X80482D01*
X80743Y82800D01*
X80488Y82183D01*
Y81315D01*
X80629Y80975D01*
X80351Y80559D01*
X78168D01*
Y78000D01*
X80940D01*
X83712D01*
Y79820D01*
X83904Y79900D01*
X84518Y80513D01*
X84850Y81315D01*
Y82183D01*
X84794Y82319D01*
X84795Y82324D01*
Y83300D01*
X90500D01*
X93000Y83200D01*
D02*
G37*
G36*
X136800Y63600D02*
X129895Y56695D01*
X129387Y56894D01*
X129256Y57551D01*
X128774Y58272D01*
X128053Y58754D01*
X127202Y58924D01*
X126528D01*
Y56700D01*
X125528D01*
Y55700D01*
X121900D01*
X122283Y55128D01*
X122665Y54872D01*
X122729Y54229D01*
X119481Y50981D01*
X119266D01*
X118465Y50649D01*
X117851Y50036D01*
X117519Y49234D01*
Y49019D01*
X115900Y47400D01*
Y39000D01*
X116400Y38500D01*
X121833D01*
X122101Y38000D01*
X121900Y37700D01*
X125528D01*
Y36700D01*
X126528D01*
Y34476D01*
X127202D01*
X128000Y34635D01*
X128146Y34604D01*
X128500Y34414D01*
Y32500D01*
X124700Y28700D01*
X116000D01*
Y20800D01*
X115500Y20300D01*
X114831D01*
Y21700D01*
X112060D01*
Y22700D01*
D01*
Y21700D01*
X109288D01*
Y20300D01*
X108600D01*
X100600Y28300D01*
Y34677D01*
X101100Y34944D01*
X101547Y34645D01*
X102398Y34476D01*
X103072D01*
Y36700D01*
Y38924D01*
X102398D01*
X101547Y38755D01*
X101100Y38456D01*
X100600Y38723D01*
Y39677D01*
X101100Y39944D01*
X101547Y39645D01*
X102398Y39476D01*
X103072D01*
Y41700D01*
X104072D01*
Y42700D01*
X107700D01*
X107478Y43032D01*
X107413Y43419D01*
X107591Y43691D01*
X108858Y44958D01*
X109328Y45052D01*
X109907Y45438D01*
X117962Y53493D01*
X117962Y53493D01*
X118349Y54072D01*
X118442Y54542D01*
X120973Y57073D01*
X121609Y57008D01*
X121674Y56913D01*
X121800Y57548D01*
X121300Y57597D01*
Y60803D01*
X121800Y60852D01*
X121801Y60849D01*
X122283Y60128D01*
X123004Y59645D01*
X123855Y59476D01*
X124528D01*
Y61700D01*
X125528D01*
Y62700D01*
X129157D01*
X129117Y62759D01*
X129353Y63200D01*
X130300D01*
X132200Y65100D01*
X136800D01*
Y63600D01*
D02*
G37*
%LPC*%
G36*
X30172Y32500D02*
X27288D01*
X27576Y32069D01*
X28232Y31631D01*
X29006Y31477D01*
X30172D01*
Y32500D01*
D02*
G37*
G36*
X35055D02*
X32172D01*
Y31477D01*
X33337D01*
X33520Y31513D01*
X33666Y31032D01*
X33465Y30949D01*
X32851Y30336D01*
X32519Y29534D01*
Y28666D01*
X32851Y27865D01*
X33465Y27251D01*
X34266Y26919D01*
X35134D01*
X35936Y27251D01*
X36549Y27865D01*
X36881Y28666D01*
Y29534D01*
X36549Y30336D01*
X35936Y30949D01*
X35134Y31281D01*
X34488D01*
X34336Y31781D01*
X34768Y32069D01*
X35055Y32500D01*
D02*
G37*
G36*
X38860Y26559D02*
X37088D01*
Y24000D01*
X38860D01*
Y26559D01*
D02*
G37*
G36*
Y22000D02*
X37088D01*
Y19441D01*
X38860D01*
Y22000D01*
D02*
G37*
G36*
X55794Y70523D02*
X54628D01*
Y69500D01*
X57512D01*
X57224Y69931D01*
X56568Y70369D01*
X55794Y70523D01*
D02*
G37*
G36*
X52628D02*
X51463D01*
X50689Y70369D01*
X50032Y69931D01*
X49745Y69500D01*
X52628D01*
Y70523D01*
D02*
G37*
G36*
X57512Y67500D02*
X54628D01*
Y66477D01*
X55794D01*
X56568Y66631D01*
X57224Y67069D01*
X57512Y67500D01*
D02*
G37*
G36*
X52628D02*
X49745D01*
X50032Y67069D01*
X50689Y66631D01*
X51463Y66477D01*
X52628D01*
Y67500D01*
D02*
G37*
G36*
X55794Y65523D02*
X54628D01*
Y64500D01*
X57512D01*
X57224Y64931D01*
X56568Y65369D01*
X55794Y65523D01*
D02*
G37*
G36*
X52628D02*
X51463D01*
X50689Y65369D01*
X50032Y64931D01*
X49745Y64500D01*
X52628D01*
Y65523D01*
D02*
G37*
G36*
X57512Y62500D02*
X54628D01*
Y61477D01*
X55794D01*
X56568Y61631D01*
X57224Y62069D01*
X57512Y62500D01*
D02*
G37*
G36*
X52628D02*
X49745D01*
X50032Y62069D01*
X50689Y61631D01*
X51463Y61477D01*
X52628D01*
Y62500D01*
D02*
G37*
G36*
X55794Y60523D02*
X54628D01*
Y59500D01*
X57512D01*
X57224Y59931D01*
X56568Y60369D01*
X55794Y60523D01*
D02*
G37*
G36*
X52628D02*
X51463D01*
X50689Y60369D01*
X50032Y59931D01*
X49745Y59500D01*
X52628D01*
Y60523D01*
D02*
G37*
G36*
X36200Y109100D02*
X35177D01*
Y107935D01*
X35331Y107160D01*
X35769Y106504D01*
X36200Y106216D01*
Y109100D01*
D02*
G37*
G36*
X25743Y99826D02*
X23775D01*
Y98645D01*
X25743D01*
Y99826D01*
D02*
G37*
G36*
X21775D02*
X19806D01*
Y98645D01*
X21775D01*
Y99826D01*
D02*
G37*
G36*
X25743Y96645D02*
X23775D01*
Y95464D01*
X25743D01*
Y96645D01*
D02*
G37*
G36*
X21775D02*
X19806D01*
Y95464D01*
X21775D01*
Y96645D01*
D02*
G37*
G36*
X43776Y124800D02*
X41881D01*
Y124717D01*
X41980Y123968D01*
X42269Y123270D01*
X42729Y122670D01*
X43329Y122210D01*
X43776Y122025D01*
Y124800D01*
D02*
G37*
G36*
X125923Y108328D02*
X124900D01*
Y105740D01*
X125331Y106028D01*
X125769Y106684D01*
X125923Y107458D01*
Y108328D01*
D02*
G37*
G36*
X122900D02*
X121877D01*
Y107458D01*
X122031Y106684D01*
X122469Y106028D01*
X122900Y105740D01*
Y108328D01*
D02*
G37*
G36*
X126960Y79459D02*
X125680D01*
Y76900D01*
X126960D01*
Y79459D01*
D02*
G37*
G36*
Y74900D02*
X125680D01*
Y72341D01*
X126960D01*
Y74900D01*
D02*
G37*
G36*
X159900Y91460D02*
Y88872D01*
X160923D01*
Y89742D01*
X160769Y90516D01*
X160331Y91172D01*
X159900Y91460D01*
D02*
G37*
G36*
X160923Y86872D02*
X159900D01*
Y84283D01*
X160331Y84571D01*
X160769Y85227D01*
X160923Y86002D01*
Y86872D01*
D02*
G37*
G36*
X152900Y91460D02*
X152469Y91172D01*
X152031Y90516D01*
X151877Y89742D01*
Y88872D01*
X152900D01*
Y91460D01*
D02*
G37*
G36*
Y86872D02*
X151877D01*
Y86002D01*
X152031Y85227D01*
X152469Y84571D01*
X152900Y84283D01*
Y86872D01*
D02*
G37*
G36*
X150432Y79459D02*
X148660D01*
Y76900D01*
X150432D01*
Y79459D01*
D02*
G37*
G36*
Y74900D02*
X148660D01*
Y72341D01*
X150432D01*
Y74900D01*
D02*
G37*
G36*
X160728Y68624D02*
X160055D01*
X159204Y68454D01*
X158483Y67972D01*
X158100Y67400D01*
X160728D01*
Y68624D01*
D02*
G37*
G36*
X83712Y76000D02*
X81940D01*
Y73441D01*
X83712D01*
Y76000D01*
D02*
G37*
G36*
X79940D02*
X78168D01*
Y73441D01*
X79940D01*
Y76000D01*
D02*
G37*
G36*
X80840Y26559D02*
X79561D01*
Y24000D01*
X80840D01*
Y26559D01*
D02*
G37*
G36*
X144240Y26059D02*
Y23500D01*
X146012D01*
Y26059D01*
X144240D01*
D02*
G37*
G36*
X84120Y22000D02*
X82840D01*
Y19441D01*
X84120D01*
Y22000D01*
D02*
G37*
G36*
X80840D02*
X79561D01*
Y19441D01*
X80840D01*
Y22000D01*
D02*
G37*
G36*
X122312Y21700D02*
X120540D01*
Y19141D01*
X122312D01*
Y21700D01*
D02*
G37*
G36*
X146012Y21500D02*
X144240D01*
Y18941D01*
X146012D01*
Y21500D01*
D02*
G37*
G36*
X129157Y60700D02*
X126528D01*
Y59476D01*
X127202D01*
X128053Y59645D01*
X128774Y60128D01*
X129157Y60700D01*
D02*
G37*
G36*
X124528Y58924D02*
X123855D01*
X123004Y58754D01*
X122283Y58272D01*
X121900Y57700D01*
X124528D01*
Y58924D01*
D02*
G37*
G36*
X107700Y40700D02*
X105072D01*
Y39476D01*
X105745D01*
X106596Y39645D01*
X107317Y40128D01*
X107700Y40700D01*
D02*
G37*
G36*
X105745Y38924D02*
X105072D01*
Y37700D01*
X107700D01*
X107317Y38273D01*
X106596Y38755D01*
X105745Y38924D01*
D02*
G37*
G36*
X124528Y35700D02*
X121900D01*
X122283Y35127D01*
X123004Y34645D01*
X123855Y34476D01*
X124528D01*
Y35700D01*
D02*
G37*
G36*
X120934Y35281D02*
X120066D01*
X119264Y34949D01*
X118651Y34336D01*
X118319Y33534D01*
Y32666D01*
X118651Y31865D01*
X119264Y31251D01*
X120066Y30919D01*
X120934D01*
X121736Y31251D01*
X122349Y31865D01*
X122681Y32666D01*
Y33534D01*
X122349Y34336D01*
X121736Y34949D01*
X120934Y35281D01*
D02*
G37*
G36*
X107700Y35700D02*
X105072D01*
Y34476D01*
X105745D01*
X106596Y34645D01*
X107002Y34917D01*
X107039Y34942D01*
X107077Y34958D01*
X107390Y34575D01*
X107051Y34236D01*
X106719Y33434D01*
Y32566D01*
X107051Y31765D01*
X107665Y31151D01*
X108466Y30819D01*
X109334D01*
X110135Y31151D01*
X110749Y31765D01*
X111081Y32566D01*
Y33434D01*
X110749Y34236D01*
X110135Y34849D01*
X109334Y35181D01*
X108466D01*
X107759Y34888D01*
X107456Y35142D01*
X107389Y35235D01*
X107429Y35294D01*
X107700Y35700D01*
D02*
G37*
G36*
X105134Y30581D02*
X104266D01*
X103464Y30249D01*
X102851Y29636D01*
X102519Y28834D01*
Y27966D01*
X102851Y27165D01*
X103464Y26551D01*
X104266Y26219D01*
X105134D01*
X105936Y26551D01*
X106549Y27165D01*
X106881Y27966D01*
Y28834D01*
X106549Y29636D01*
X105936Y30249D01*
X105134Y30581D01*
D02*
G37*
G36*
X114831Y26259D02*
X113060D01*
Y23700D01*
X114831D01*
Y26259D01*
D02*
G37*
G36*
X111060D02*
X109288D01*
Y23700D01*
X111060D01*
Y26259D01*
D02*
G37*
%LPD*%
D15*
X148900Y86000D02*
Y87872D01*
X145000Y82100D02*
X148900Y86000D01*
X134300Y82100D02*
X145000D01*
X130564Y66738D02*
Y67106D01*
X131400Y67943D01*
Y79200D01*
X134300Y82100D01*
X69861Y19161D02*
X71800D01*
X74360Y21721D01*
X69600Y18900D02*
X69861Y19161D01*
X74360Y21721D02*
Y23000D01*
X98581Y32781D02*
Y50519D01*
X95200Y29400D02*
X98581Y32781D01*
X92698Y48002D02*
X95900Y44800D01*
X89527Y48002D02*
X92698D01*
X94800Y54300D02*
X98581Y50519D01*
X89228Y48300D02*
X89527Y48002D01*
X101373Y72341D02*
X102046Y73014D01*
Y73091D02*
X108100Y79145D01*
X102046Y73014D02*
Y73091D01*
X108100Y79145D02*
Y87272D01*
X101373Y71973D02*
Y72341D01*
X94800Y54300D02*
Y79617D01*
X98100Y82917D01*
X102200Y113700D02*
X102569D01*
X104269Y115400D01*
X134600D01*
X89113Y43416D02*
X89228Y43300D01*
X83497Y43416D02*
X89113D01*
X83381Y43531D02*
X83497Y43416D01*
X134600Y115400D02*
X138900Y111100D01*
X83134Y93980D02*
X83520Y93594D01*
X83648D01*
X82766Y93980D02*
X83134D01*
X83648Y93594D02*
X88100Y89142D01*
Y87272D02*
Y89142D01*
X130500Y29400D02*
Y30000D01*
X130700Y30200D01*
Y43000D01*
X125528Y46700D02*
X127000D01*
X130700Y43000D01*
X98736Y66570D02*
X103941D01*
X104072Y66700D01*
X98606Y66439D02*
X98736Y66570D01*
X61581Y70581D02*
X61841Y70320D01*
X62868D02*
X64888Y68300D01*
X61841Y70320D02*
X62868D01*
X99100Y56300D02*
X99469D01*
X99869Y56700D02*
X104072D01*
X99469Y56300D02*
X99869Y56700D01*
X98100Y82917D02*
Y87272D01*
X62591Y39031D02*
X63024Y38598D01*
X62235Y39031D02*
X62591D01*
X63024Y38598D02*
X66473D01*
X66772Y38300D01*
X61900Y45600D02*
X62700Y44800D01*
X42200Y110100D02*
Y114600D01*
X37400Y119400D02*
X42200Y114600D01*
X44700Y98600D02*
X52200Y106100D01*
Y110100D01*
X138900Y109328D02*
Y111100D01*
Y87872D02*
Y101000D01*
X64888Y68300D02*
X66772D01*
X103100Y87272D02*
Y93200D01*
X84800Y63300D02*
X89228D01*
X83400Y61900D02*
X84800Y63300D01*
X62500Y53700D02*
X62602Y53598D01*
X66473D01*
X66772Y53300D01*
X62700Y44800D02*
X62980D01*
X64480Y43300D01*
X66772D01*
D16*
Y68300D02*
D03*
Y63300D02*
D03*
Y58300D02*
D03*
Y53300D02*
D03*
Y48300D02*
D03*
Y43300D02*
D03*
Y38300D02*
D03*
Y33300D02*
D03*
X89228Y68300D02*
D03*
Y63300D02*
D03*
Y58300D02*
D03*
Y53300D02*
D03*
Y48300D02*
D03*
Y43300D02*
D03*
Y38300D02*
D03*
D17*
Y33300D02*
D03*
D18*
X53628Y33500D02*
D03*
D19*
Y38500D02*
D03*
Y43500D02*
D03*
Y48500D02*
D03*
Y53500D02*
D03*
Y58500D02*
D03*
Y63500D02*
D03*
Y68500D02*
D03*
X31172Y33500D02*
D03*
Y38500D02*
D03*
Y43500D02*
D03*
Y48500D02*
D03*
Y53500D02*
D03*
Y58500D02*
D03*
Y63500D02*
D03*
Y68500D02*
D03*
D20*
X74360Y23000D02*
D03*
X81840D02*
D03*
X135440Y75900D02*
D03*
X127960D02*
D03*
D21*
X22775Y97645D02*
D03*
X7825Y97722D02*
D03*
X22775Y84161D02*
D03*
X7825Y84239D02*
D03*
X23375Y111361D02*
D03*
X8425Y111439D02*
D03*
D22*
X20740Y123600D02*
D03*
X13260D02*
D03*
X80940Y77000D02*
D03*
X73460D02*
D03*
X119540Y22700D02*
D03*
X112060D02*
D03*
X47340Y23000D02*
D03*
X39860D02*
D03*
X147660Y75900D02*
D03*
X155140D02*
D03*
X143240Y22500D02*
D03*
X135760D02*
D03*
D23*
X72200Y110100D02*
D03*
D24*
X67200D02*
D03*
X62200D02*
D03*
X57200D02*
D03*
X52200D02*
D03*
X47200D02*
D03*
X42200D02*
D03*
X37200D02*
D03*
X72200Y87643D02*
D03*
X67200D02*
D03*
X62200D02*
D03*
X57200D02*
D03*
X52200D02*
D03*
X47200D02*
D03*
X42200D02*
D03*
X37200D02*
D03*
D25*
X18521Y58300D02*
D03*
X6710D02*
D03*
X18521Y46039D02*
D03*
X6710D02*
D03*
Y70300D02*
D03*
X18521D02*
D03*
X6710Y34278D02*
D03*
X18521D02*
D03*
D26*
X140272Y66400D02*
D03*
Y61400D02*
D03*
Y56400D02*
D03*
Y51400D02*
D03*
Y46400D02*
D03*
Y41400D02*
D03*
Y36400D02*
D03*
Y31400D02*
D03*
X161728Y66400D02*
D03*
Y61400D02*
D03*
Y56400D02*
D03*
Y51400D02*
D03*
Y46400D02*
D03*
Y41400D02*
D03*
Y36400D02*
D03*
Y31400D02*
D03*
X125528Y36700D02*
D03*
Y41700D02*
D03*
Y46700D02*
D03*
Y51700D02*
D03*
Y56700D02*
D03*
Y61700D02*
D03*
Y66700D02*
D03*
X104072Y36700D02*
D03*
Y41700D02*
D03*
Y46700D02*
D03*
Y51700D02*
D03*
Y56700D02*
D03*
Y61700D02*
D03*
Y66700D02*
D03*
D27*
X123900Y87872D02*
D03*
X128900D02*
D03*
X133900D02*
D03*
X138900D02*
D03*
X143900D02*
D03*
X148900D02*
D03*
X153900D02*
D03*
X158900D02*
D03*
X123900Y109328D02*
D03*
X128900D02*
D03*
X133900D02*
D03*
X138900D02*
D03*
X143900D02*
D03*
X148900D02*
D03*
X153900D02*
D03*
X158900D02*
D03*
X113100Y108728D02*
D03*
X108100D02*
D03*
X103100D02*
D03*
X98100D02*
D03*
X93100D02*
D03*
X88100D02*
D03*
X83100D02*
D03*
X113100Y87272D02*
D03*
X108100D02*
D03*
X103100D02*
D03*
X98100D02*
D03*
X93100D02*
D03*
X88100D02*
D03*
X83100D02*
D03*
D42*
X134000Y28600D02*
X135760Y26840D01*
Y22500D02*
Y26840D01*
X140245Y31373D02*
X140272Y31400D01*
X134000Y28600D02*
X136773Y31373D01*
X140245D01*
X134000Y40998D02*
Y45200D01*
X130869Y48331D02*
Y54714D01*
Y48331D02*
X134000Y45200D01*
Y40998D02*
X138598Y36400D01*
X61565Y65035D02*
X62880D01*
X61400Y65200D02*
X61565Y65035D01*
X62880D02*
X64615Y63300D01*
X52500Y72751D02*
X53628Y71623D01*
X52500Y72751D02*
Y72900D01*
X53628Y63500D02*
Y71623D01*
X152700Y12600D02*
X157124Y17024D01*
X128400Y12600D02*
X152700D01*
X124700Y8900D02*
X128400Y12600D01*
X124700Y7587D02*
Y8900D01*
X54700Y115400D02*
X56966Y113134D01*
X47434Y113234D02*
X49600Y115400D01*
X54700D01*
X47200Y110100D02*
Y112392D01*
X47434Y112626D01*
Y113234D01*
X57200Y110100D02*
Y112392D01*
X56966Y112626D02*
X57200Y112392D01*
X56966Y112626D02*
Y113134D01*
X140000Y70000D02*
X143800D01*
X150700Y63100D01*
X8600Y87867D02*
Y88100D01*
X8357Y87624D02*
X8600Y87867D01*
X7825Y84239D02*
X7926D01*
X8357Y84670D01*
Y87624D01*
X24900Y48500D02*
X31172D01*
X15900Y52100D02*
X21300D01*
X24900Y48500D01*
X19660Y44900D02*
X27479D01*
X18521Y46039D02*
X19660Y44900D01*
X27479D02*
X28879Y43500D01*
X13260Y123600D02*
X14061Y122799D01*
X31172Y38500D02*
X42700D01*
X31082Y38410D02*
X31172Y38500D01*
X28879Y43500D02*
X33337D01*
X28010Y38410D02*
X31082D01*
X26672Y37072D02*
X28010Y38410D01*
X20035Y37072D02*
X26672D01*
X25600Y71600D02*
X27800Y73800D01*
X25600Y66906D02*
X29006Y63500D01*
X25600Y66906D02*
Y71600D01*
X27800Y73800D02*
X35100D01*
X42200Y80900D01*
Y87643D01*
X66000Y119400D02*
X69800Y115600D01*
X89228Y38300D02*
X91385D01*
X92585Y37100D01*
X95900D01*
X157124Y33236D02*
X160288Y36400D01*
X157124Y17024D02*
Y33236D01*
X160055Y31400D02*
X161728D01*
X160288Y36400D02*
X161728D01*
X53539Y38590D02*
X53628Y38500D01*
X36055Y53500D02*
X37969Y51586D01*
Y51586D02*
X50965Y38590D01*
X29006Y53500D02*
X36055D01*
X37969Y51586D02*
Y51586D01*
X50965Y38590D02*
X53539D01*
X112500Y63100D02*
X116100Y66700D01*
X125528D01*
X146435Y61498D02*
Y61910D01*
X147500Y60200D02*
Y60433D01*
X146435Y61498D02*
X147500Y60433D01*
X141945Y66400D02*
X146435Y61910D01*
X53700Y119400D02*
X66000D01*
X49776Y125800D02*
X50205Y125371D01*
Y122895D02*
Y125371D01*
Y122895D02*
X53700Y119400D01*
X134300Y118800D02*
X136346D01*
X130205Y122895D02*
X134300Y118800D01*
X130205Y122895D02*
Y125371D01*
X129776Y125800D02*
X130205Y125371D01*
X136346Y118800D02*
X143900Y111246D01*
X146200Y41400D02*
X150700Y45900D01*
Y56400D01*
X140272Y41400D02*
X146200D01*
X85900Y31842D02*
X87358Y33300D01*
X85600Y31300D02*
Y31400D01*
X85900Y31700D01*
Y31842D01*
X35300Y68500D02*
X47200Y80400D01*
X31172Y68500D02*
X35300D01*
X80100Y55200D02*
X80333D01*
X82233Y53300D02*
X89228D01*
X80333Y55200D02*
X82233Y53300D01*
X139776Y121824D02*
Y125800D01*
Y121824D02*
X148864Y112736D01*
Y109364D02*
X148900Y109328D01*
X148864Y109364D02*
Y112736D01*
X148900Y102100D02*
Y109328D01*
X22775Y97645D02*
X27500D01*
X37110Y110010D02*
X37200Y110100D01*
X27500Y97645D02*
X37110Y107255D01*
Y110010D01*
X12800Y111600D02*
Y123140D01*
Y55200D02*
Y111600D01*
X13039Y111361D02*
X23375D01*
X12800Y111600D02*
X13039Y111361D01*
X12800Y123140D02*
X13260Y123600D01*
X83010Y82324D02*
Y87182D01*
X82669Y81749D02*
Y81982D01*
X83010Y82324D01*
X67200Y87643D02*
Y110100D01*
X65265Y30553D02*
Y32976D01*
X65100Y30388D02*
X65265Y30553D01*
X42700Y38500D02*
X47881Y33319D01*
X53448D02*
X53628Y33500D01*
X47881Y33319D02*
X53448D01*
X65265Y32976D02*
X65589Y33300D01*
X137390Y61235D02*
X140107D01*
X130869Y54714D02*
X137390Y61235D01*
X113100Y87272D02*
Y95200D01*
X116600Y58800D02*
X116700Y58700D01*
X108645Y46700D02*
X116700Y54755D01*
Y58700D01*
X104072Y46700D02*
X108645D01*
X109500Y51700D02*
X113500Y55700D01*
X104072Y51700D02*
X109500D01*
X167400Y63400D02*
Y72048D01*
X165665Y61565D02*
X167400Y63300D01*
X135970Y74030D02*
X140000Y70000D01*
X140107Y61235D02*
X140272Y61400D01*
X147600Y100800D02*
X148900Y102100D01*
X135440Y75900D02*
X135970Y75371D01*
Y74030D02*
Y75371D01*
X143900Y87872D02*
Y100900D01*
X113100Y95200D02*
Y108728D01*
X111365Y95165D02*
X113065D01*
X111200Y95000D02*
X111365Y95165D01*
X113065D02*
X113100Y95200D01*
X158900Y95000D02*
Y96000D01*
Y87872D02*
Y95000D01*
X47015Y106615D02*
Y109915D01*
X47200Y110100D01*
X37200Y96800D02*
X47015Y106615D01*
X83010Y87182D02*
X83100Y87272D01*
X118465Y44835D02*
X120720D01*
X118300Y45000D02*
X118465Y44835D01*
X120720D02*
X123855Y41700D01*
X125528D01*
X87358Y33300D02*
X89228D01*
X95205Y123095D02*
Y125371D01*
Y123095D02*
X98100Y120200D01*
X94776Y125800D02*
X95205Y125371D01*
X98100Y108728D02*
Y120200D01*
X150700Y56400D02*
Y63100D01*
X150800Y63200D02*
X155500D01*
X150700Y63100D02*
X150800Y63200D01*
X165931Y73517D02*
X167400Y72048D01*
X156162Y74300D02*
X165500D01*
X161728Y61400D02*
X161893Y61565D01*
X165665D01*
X155140Y75322D02*
Y75900D01*
Y75322D02*
X156162Y74300D01*
X140272Y66400D02*
X141945D01*
X64615Y63300D02*
X66772D01*
X31172Y58500D02*
X39400D01*
X44400Y53500D01*
X49636Y50200D02*
X51336Y48500D01*
X49600Y50200D02*
X49636D01*
X18521Y58300D02*
X24206D01*
X29006Y53500D01*
X36537Y46700D02*
X38710D01*
X38954Y46456D01*
X33337Y43500D02*
X36537Y46700D01*
X63080Y49835D02*
X64615Y48300D01*
X62465Y49835D02*
X63080D01*
X62300Y50000D02*
X62465Y49835D01*
X18521Y35558D02*
X20035Y37072D01*
X150700Y56400D02*
X161728D01*
X138598Y36400D02*
X140272D01*
X155140Y76687D02*
X158900Y80447D01*
Y87872D01*
X155140Y75900D02*
Y76687D01*
X159500Y101800D02*
Y102033D01*
X158900Y102633D02*
Y109328D01*
Y102633D02*
X159500Y102033D01*
X93150Y114150D02*
X93200Y114200D01*
X93100Y108728D02*
X93150Y108778D01*
Y114150D01*
X88100Y106858D02*
X93100Y101858D01*
X88100Y106858D02*
Y108728D01*
X93100Y87272D02*
Y101858D01*
X128900Y87872D02*
Y98700D01*
X133900Y103700D01*
Y109328D01*
X153900Y101000D02*
X158900Y96000D01*
X153900Y101000D02*
Y109328D01*
X143900D02*
Y111246D01*
X134776Y125800D02*
X139776D01*
X108100Y108728D02*
X113100D01*
X61833Y57900D02*
X62031Y58097D01*
X66569D02*
X66772Y58300D01*
X62031Y58097D02*
X66569D01*
X61600Y57900D02*
X61833D01*
X65589Y33300D02*
X66772D01*
X64615Y48300D02*
X66772D01*
X51336Y48500D02*
X53628D01*
X37200Y87643D02*
Y96800D01*
X67200Y110100D02*
X72200D01*
X62200D02*
X67200D01*
X57200D02*
X62200D01*
X12800Y55200D02*
X15900Y52100D01*
X158900Y109328D02*
Y114700D01*
X159776Y115576D01*
Y125800D01*
X149776D02*
X154776D01*
X7994Y97722D02*
X8425Y98154D01*
Y111439D01*
X7825Y97722D02*
X7994D01*
X53628Y58500D02*
Y63500D01*
X44400Y53500D02*
X53628D01*
X47200Y80400D02*
Y87643D01*
X29006Y63500D02*
X31172D01*
X18521Y69020D02*
X29042Y58500D01*
X31172D01*
X18521Y69020D02*
Y70300D01*
Y34278D02*
Y35558D01*
D43*
X92181Y16400D02*
X119400D01*
X21800Y1700D02*
X151500D01*
X154271Y4471D01*
X6710Y16790D02*
X21800Y1700D01*
X154271Y7159D02*
X154700Y7587D01*
X154271Y4471D02*
Y7159D01*
X29640Y132500D02*
X140400D01*
X144443Y126133D02*
X144776Y125800D01*
X140400Y132500D02*
X144443Y128457D01*
Y126133D02*
Y128457D01*
X81840Y21721D02*
X85591Y17969D01*
X87069Y17831D02*
X90750D01*
X92181Y16400D01*
X85591Y17969D02*
X86931D01*
X87069Y17831D01*
X115301Y77100D02*
X125200D01*
X112151Y73949D02*
X115301Y77100D01*
X123900Y78498D02*
Y87872D01*
X125200Y77100D02*
Y77198D01*
X123900Y78498D02*
X125200Y77198D01*
X143866Y76100D02*
X143935Y76031D01*
X147529D01*
X119540Y16900D02*
Y22700D01*
Y16400D02*
X137927D01*
X143240Y21713D01*
X76919Y52381D02*
Y59519D01*
X78700Y61300D01*
X81700Y58300D01*
X76919Y52381D02*
X80200Y49100D01*
X81700Y58300D02*
X89228D01*
X72200Y83231D02*
Y87643D01*
X70369Y81400D02*
X72200Y83231D01*
X71846Y79731D02*
X72688Y78889D01*
X70300Y81331D02*
X71846Y79785D01*
X72688Y77772D02*
X73460Y77000D01*
X72688Y77772D02*
Y78889D01*
X71846Y79731D02*
Y79785D01*
X85731Y104369D02*
X85800Y104300D01*
X85850Y104250D01*
X80200Y28800D02*
X81840Y27160D01*
X80200Y28800D02*
Y49100D01*
X81840Y21721D02*
Y27160D01*
X125269Y77031D02*
X127680D01*
Y77000D02*
Y77031D01*
X125200Y77100D02*
X125269Y77031D01*
X78700Y61300D02*
Y68100D01*
X85800Y80600D02*
X85900Y80700D01*
X85800Y77000D02*
Y80600D01*
X83100Y106890D02*
X85620Y104369D01*
X85731D01*
X83100Y106890D02*
Y108728D01*
X89228Y68300D02*
Y75100D01*
X85800Y77000D02*
X87328D01*
X89228Y75100D01*
X80940Y77000D02*
X85800D01*
X80940Y70340D02*
Y77000D01*
X78700Y68100D02*
X80940Y70340D01*
X122831Y56631D02*
X125459D01*
X113700Y36700D02*
Y47500D01*
X125459Y56631D02*
X125528Y56700D01*
X113700Y47500D02*
X122831Y56631D01*
X40631Y18068D02*
Y22228D01*
Y18068D02*
X41400Y17300D01*
X39860Y23000D02*
X40631Y22228D01*
X113700Y29000D02*
Y36700D01*
Y25128D02*
Y29000D01*
X111400Y28900D02*
X111500Y29000D01*
X113700D01*
X133802Y64300D02*
X133900D01*
X131271Y61769D02*
X133802Y64300D01*
X125598Y61769D02*
X131271D01*
X125528Y61700D02*
X125598Y61769D01*
X112060Y23487D02*
X113700Y25128D01*
X112060Y22700D02*
Y23487D01*
X113700Y36700D02*
X125528D01*
X104072D02*
X113700D01*
X123900Y87872D02*
Y109328D01*
X128900D01*
X156372Y66400D02*
X161728D01*
X147660Y75113D02*
X156372Y66400D01*
X143290Y22550D02*
X152050D01*
X152100Y22600D01*
X143240Y22500D02*
X143290Y22550D01*
X149219Y77459D02*
X153900Y82140D01*
X147660Y76687D02*
X148432Y77459D01*
X153900Y82140D02*
Y87872D01*
X148432Y77459D02*
X149219D01*
X143240Y21713D02*
Y22500D01*
X104072Y36700D02*
Y41700D01*
X125528Y56700D02*
Y61700D01*
X46569Y18566D02*
Y22228D01*
X46000Y17900D02*
Y17998D01*
X46569Y22228D02*
X47340Y23000D01*
X46000Y17998D02*
X46569Y18566D01*
X20740Y124387D02*
X21512Y125159D01*
X20740Y123600D02*
Y124387D01*
X21512Y125159D02*
X22299D01*
X29640Y132500D01*
X6710Y16790D02*
Y34278D01*
X18456Y84342D02*
X22594D01*
X16298Y86500D02*
X18456Y84342D01*
X16200Y86500D02*
X16298D01*
X22594Y84342D02*
X22775Y84161D01*
X6710Y58300D02*
Y70300D01*
Y46039D02*
Y58300D01*
Y34278D02*
Y46039D01*
X39860Y23000D02*
Y30940D01*
X37300Y33500D02*
X39860Y30940D01*
X31172Y33500D02*
X37300D01*
D44*
X55800Y43500D02*
X58800Y40500D01*
Y36517D02*
Y40500D01*
X53628Y43500D02*
X55800D01*
X120278Y86078D02*
X120500Y86300D01*
X109000Y75900D02*
X119178Y86078D01*
X109000Y64955D02*
Y75900D01*
X119178Y86078D02*
X120278D01*
X105745Y61700D02*
X109000Y64955D01*
X104072Y61700D02*
X105745D01*
X58800Y36517D02*
X60700Y34617D01*
Y29400D02*
Y34617D01*
D45*
X159776Y125800D02*
D03*
X154776D02*
D03*
X149776D02*
D03*
X144776D02*
D03*
X139776D02*
D03*
X134776D02*
D03*
X129776D02*
D03*
X124776D02*
D03*
X119776D02*
D03*
X114776D02*
D03*
X109776D02*
D03*
X104776D02*
D03*
X99776D02*
D03*
X94776D02*
D03*
X89776D02*
D03*
X84776D02*
D03*
X79776D02*
D03*
X74776D02*
D03*
X69776D02*
D03*
X64776D02*
D03*
X59776D02*
D03*
X54776D02*
D03*
X49776D02*
D03*
X44776D02*
D03*
X49700Y7587D02*
D03*
X54700D02*
D03*
X59700D02*
D03*
X64700D02*
D03*
X69700D02*
D03*
X74700D02*
D03*
X79700D02*
D03*
X84700D02*
D03*
X89700D02*
D03*
X94700D02*
D03*
X99700D02*
D03*
X104700D02*
D03*
X109700D02*
D03*
X114700D02*
D03*
X119700D02*
D03*
X124700D02*
D03*
X129700D02*
D03*
X134700D02*
D03*
X139700D02*
D03*
X144700D02*
D03*
X149700D02*
D03*
X154700D02*
D03*
X159700D02*
D03*
D46*
X44700D02*
D03*
D47*
X61400Y65200D02*
D03*
X46800Y67900D02*
D03*
X52500Y72900D02*
D03*
X26200Y51800D02*
D03*
X22920Y40220D02*
D03*
X26200Y41100D02*
D03*
X119400Y16900D02*
D03*
X69800Y115600D02*
D03*
X72019Y65600D02*
D03*
X95900Y44800D02*
D03*
Y37100D02*
D03*
X104700Y28400D02*
D03*
X163300Y26900D02*
D03*
X155522Y35778D02*
D03*
X160055Y31400D02*
D03*
X134000Y28600D02*
D03*
X38900Y62900D02*
D03*
X38600Y43100D02*
D03*
X43600Y60581D02*
D03*
X40900Y52800D02*
D03*
X112500Y63100D02*
D03*
X69600Y18900D02*
D03*
X87000Y17900D02*
D03*
X61147Y42256D02*
D03*
X112151Y73949D02*
D03*
X115045Y72109D02*
D03*
X143866Y76100D02*
D03*
X147500Y60200D02*
D03*
X83004Y66204D02*
D03*
X130564Y66738D02*
D03*
X145600Y49600D02*
D03*
X133477Y98223D02*
D03*
X36800Y81500D02*
D03*
X85600Y31300D02*
D03*
X120500Y86300D02*
D03*
X102200Y113700D02*
D03*
X108900Y100800D02*
D03*
X96300Y102300D02*
D03*
X47500Y95400D02*
D03*
X52000Y95000D02*
D03*
X57400Y78300D02*
D03*
X73738Y55400D02*
D03*
X83381Y43531D02*
D03*
X80100Y55200D02*
D03*
X84247Y50365D02*
D03*
X34700Y29100D02*
D03*
X60400Y81500D02*
D03*
X70300Y81331D02*
D03*
X76500Y94400D02*
D03*
X82766Y93980D02*
D03*
X85800Y104300D02*
D03*
X91400Y27631D02*
D03*
X130500Y29400D02*
D03*
X125200Y77100D02*
D03*
X73600Y50300D02*
D03*
X76600Y46600D02*
D03*
X73200Y36931D02*
D03*
X82669Y81749D02*
D03*
X101373Y71973D02*
D03*
X98606Y66439D02*
D03*
X98000Y61800D02*
D03*
X85900Y80700D02*
D03*
X61581Y70581D02*
D03*
X99100Y56300D02*
D03*
X67000Y99900D02*
D03*
X52600Y101700D02*
D03*
X57600Y94800D02*
D03*
X141100Y78800D02*
D03*
X65100Y30388D02*
D03*
X49199Y36250D02*
D03*
X62235Y39031D02*
D03*
X74700Y27900D02*
D03*
X61900Y45600D02*
D03*
X133800Y53500D02*
D03*
X37400Y119400D02*
D03*
X44700Y98600D02*
D03*
X95200Y29400D02*
D03*
X116600Y58800D02*
D03*
X113500Y55700D02*
D03*
X41400Y17300D02*
D03*
X111400Y28900D02*
D03*
X133900Y64300D02*
D03*
X147600Y100800D02*
D03*
X143900Y100900D02*
D03*
X138900Y101000D02*
D03*
X111200Y95000D02*
D03*
X158900D02*
D03*
X119700Y48800D02*
D03*
X108900Y33000D02*
D03*
X103100Y93200D02*
D03*
X118300Y45000D02*
D03*
X120500Y33100D02*
D03*
X155500Y63200D02*
D03*
X165500Y74300D02*
D03*
X60700Y29400D02*
D03*
X156000Y45400D02*
D03*
X118800Y41000D02*
D03*
X83400Y61900D02*
D03*
X49600Y50200D02*
D03*
X27500Y97700D02*
D03*
X38954Y46456D02*
D03*
X62300Y50000D02*
D03*
X38300Y5900D02*
D03*
X155800Y40300D02*
D03*
X159500Y101800D02*
D03*
X93200Y114200D02*
D03*
X152100Y22600D02*
D03*
X62500Y53700D02*
D03*
X61600Y57900D02*
D03*
X94500Y40600D02*
D03*
X46000Y17900D02*
D03*
X16200Y86500D02*
D03*
X8600Y88100D02*
D03*
M02*
