G04*
G04 #@! TF.GenerationSoftware,Altium Limited,Altium Designer,23.0.1 (38)*
G04*
G04 Layer_Color=128*
%FSLAX25Y25*%
%MOIN*%
G70*
G04*
G04 #@! TF.SameCoordinates,9BF97A08-6F66-48D1-9A7C-BDF13F6F14C4*
G04*
G04*
G04 #@! TF.FilePolarity,Positive*
G04*
G01*
G75*
%ADD13C,0.00500*%
D13*
X158202Y125800D02*
X161351D01*
X159776Y124225D02*
Y127375D01*
X153202Y125800D02*
X156351D01*
X154776Y124225D02*
Y127375D01*
X148202Y125800D02*
X151351D01*
X149776Y124225D02*
Y127375D01*
X143202Y125800D02*
X146351D01*
X144776Y124225D02*
Y127375D01*
X138202Y125800D02*
X141351D01*
X139776Y124225D02*
Y127375D01*
X133202Y125800D02*
X136351D01*
X134776Y124225D02*
Y127375D01*
X128202Y125800D02*
X131351D01*
X129776Y124225D02*
Y127375D01*
X123202Y125800D02*
X126351D01*
X124776Y124225D02*
Y127375D01*
X118202Y125800D02*
X121351D01*
X119776Y124225D02*
Y127375D01*
X113202Y125800D02*
X116351D01*
X114776Y124225D02*
Y127375D01*
X108202Y125800D02*
X111351D01*
X109776Y124225D02*
Y127375D01*
X103202Y125800D02*
X106351D01*
X104776Y124225D02*
Y127375D01*
X98202Y125800D02*
X101351D01*
X99776Y124225D02*
Y127375D01*
X93202Y125800D02*
X96351D01*
X94776Y124225D02*
Y127375D01*
X88202Y125800D02*
X91351D01*
X89776Y124225D02*
Y127375D01*
X83202Y125800D02*
X86351D01*
X84776Y124225D02*
Y127375D01*
X78202Y125800D02*
X81351D01*
X79776Y124225D02*
Y127375D01*
X73202Y125800D02*
X76351D01*
X74776Y124225D02*
Y127375D01*
X68202Y125800D02*
X71351D01*
X69776Y124225D02*
Y127375D01*
X63202Y125800D02*
X66351D01*
X64776Y124225D02*
Y127375D01*
X58202Y125800D02*
X61351D01*
X59776Y124225D02*
Y127375D01*
X53202Y125800D02*
X56351D01*
X54776Y124225D02*
Y127375D01*
X48202Y125800D02*
X51351D01*
X49776Y124225D02*
Y127375D01*
X43202Y125800D02*
X46351D01*
X44776Y124225D02*
Y127375D01*
X43125Y7587D02*
X46275D01*
X44700Y6013D02*
Y9162D01*
X48125Y7587D02*
X51275D01*
X49700Y6013D02*
Y9162D01*
X53125Y7587D02*
X56275D01*
X54700Y6013D02*
Y9162D01*
X58125Y7587D02*
X61275D01*
X59700Y6013D02*
Y9162D01*
X63125Y7587D02*
X66275D01*
X64700Y6013D02*
Y9162D01*
X68125Y7587D02*
X71275D01*
X69700Y6013D02*
Y9162D01*
X73125Y7587D02*
X76275D01*
X74700Y6013D02*
Y9162D01*
X78125Y7587D02*
X81275D01*
X79700Y6013D02*
Y9162D01*
X83125Y7587D02*
X86275D01*
X84700Y6013D02*
Y9162D01*
X88125Y7587D02*
X91275D01*
X89700Y6013D02*
Y9162D01*
X93125Y7587D02*
X96275D01*
X94700Y6013D02*
Y9162D01*
X98125Y7587D02*
X101275D01*
X99700Y6013D02*
Y9162D01*
X103125Y7587D02*
X106275D01*
X104700Y6013D02*
Y9162D01*
X108125Y7587D02*
X111275D01*
X109700Y6013D02*
Y9162D01*
X113125Y7587D02*
X116275D01*
X114700Y6013D02*
Y9162D01*
X118125Y7587D02*
X121275D01*
X119700Y6013D02*
Y9162D01*
X123125Y7587D02*
X126275D01*
X124700Y6013D02*
Y9162D01*
X128125Y7587D02*
X131275D01*
X129700Y6013D02*
Y9162D01*
X133125Y7587D02*
X136275D01*
X134700Y6013D02*
Y9162D01*
X138125Y7587D02*
X141275D01*
X139700Y6013D02*
Y9162D01*
X143125Y7587D02*
X146275D01*
X144700Y6013D02*
Y9162D01*
X148125Y7587D02*
X151275D01*
X149700Y6013D02*
Y9162D01*
X153125Y7587D02*
X156275D01*
X154700Y6013D02*
Y9162D01*
X158125Y7587D02*
X161275D01*
X159700Y6013D02*
Y9162D01*
X60711Y65200D02*
X62089D01*
X61400Y64511D02*
Y65889D01*
X46111Y67900D02*
X47489D01*
X46800Y67211D02*
Y68589D01*
X51811Y72900D02*
X53189D01*
X52500Y72211D02*
Y73589D01*
X25511Y51800D02*
X26889D01*
X26200Y51111D02*
Y52489D01*
X22231Y40220D02*
X23609D01*
X22920Y39531D02*
Y40909D01*
X25511Y41100D02*
X26889D01*
X26200Y40411D02*
Y41789D01*
X118711Y16900D02*
X120089D01*
X119400Y16211D02*
Y17589D01*
X69111Y115600D02*
X70489D01*
X69800Y114911D02*
Y116289D01*
X71330Y65600D02*
X72708D01*
X72019Y64911D02*
Y66289D01*
X95211Y44800D02*
X96589D01*
X95900Y44111D02*
Y45489D01*
X95211Y37100D02*
X96589D01*
X95900Y36411D02*
Y37789D01*
X104011Y28400D02*
X105389D01*
X104700Y27711D02*
Y29089D01*
X162611Y26900D02*
X163989D01*
X163300Y26211D02*
Y27589D01*
X154833Y35778D02*
X156211D01*
X155522Y35089D02*
Y36467D01*
X159366Y31400D02*
X160744D01*
X160055Y30711D02*
Y32089D01*
X133311Y28600D02*
X134689D01*
X134000Y27911D02*
Y29289D01*
X38211Y62900D02*
X39589D01*
X38900Y62211D02*
Y63589D01*
X37911Y43100D02*
X39289D01*
X38600Y42411D02*
Y43789D01*
X42911Y60581D02*
X44289D01*
X43600Y59892D02*
Y61270D01*
X40211Y52800D02*
X41589D01*
X40900Y52111D02*
Y53489D01*
X111811Y63100D02*
X113189D01*
X112500Y62411D02*
Y63789D01*
X68911Y18900D02*
X70289D01*
X69600Y18211D02*
Y19589D01*
X86311Y17900D02*
X87689D01*
X87000Y17211D02*
Y18589D01*
X60458Y42256D02*
X61836D01*
X61147Y41567D02*
Y42945D01*
X111462Y73949D02*
X112840D01*
X112151Y73260D02*
Y74638D01*
X114356Y72109D02*
X115734D01*
X115045Y71420D02*
Y72798D01*
X143177Y76100D02*
X144555D01*
X143866Y75411D02*
Y76789D01*
X146811Y60200D02*
X148189D01*
X147500Y59511D02*
Y60889D01*
X82315Y66204D02*
X83693D01*
X83004Y65515D02*
Y66893D01*
X129875Y66738D02*
X131253D01*
X130564Y66049D02*
Y67427D01*
X144911Y49600D02*
X146289D01*
X145600Y48911D02*
Y50289D01*
X132788Y98223D02*
X134166D01*
X133477Y97534D02*
Y98912D01*
X36111Y81500D02*
X37489D01*
X36800Y80811D02*
Y82189D01*
X84911Y31300D02*
X86289D01*
X85600Y30611D02*
Y31989D01*
X119811Y86300D02*
X121189D01*
X120500Y85611D02*
Y86989D01*
X101511Y113700D02*
X102889D01*
X102200Y113011D02*
Y114389D01*
X108211Y100800D02*
X109589D01*
X108900Y100111D02*
Y101489D01*
X95611Y102300D02*
X96989D01*
X96300Y101611D02*
Y102989D01*
X46811Y95400D02*
X48189D01*
X47500Y94711D02*
Y96089D01*
X51311Y95000D02*
X52689D01*
X52000Y94311D02*
Y95689D01*
X56711Y78300D02*
X58089D01*
X57400Y77611D02*
Y78989D01*
X73049Y55400D02*
X74427D01*
X73738Y54711D02*
Y56089D01*
X82692Y43531D02*
X84070D01*
X83381Y42842D02*
Y44220D01*
X79411Y55200D02*
X80789D01*
X80100Y54511D02*
Y55889D01*
X83558Y50365D02*
X84936D01*
X84247Y49676D02*
Y51054D01*
X34011Y29100D02*
X35389D01*
X34700Y28411D02*
Y29789D01*
X59711Y81500D02*
X61089D01*
X60400Y80811D02*
Y82189D01*
X69611Y81331D02*
X70989D01*
X70300Y80642D02*
Y82020D01*
X75811Y94400D02*
X77189D01*
X76500Y93711D02*
Y95089D01*
X82077Y93980D02*
X83455D01*
X82766Y93291D02*
Y94669D01*
X85111Y104300D02*
X86489D01*
X85800Y103611D02*
Y104989D01*
X90711Y27631D02*
X92089D01*
X91400Y26942D02*
Y28320D01*
X129811Y29400D02*
X131189D01*
X130500Y28711D02*
Y30089D01*
X124511Y77100D02*
X125889D01*
X125200Y76411D02*
Y77789D01*
X72911Y50300D02*
X74289D01*
X73600Y49611D02*
Y50989D01*
X75911Y46600D02*
X77289D01*
X76600Y45911D02*
Y47289D01*
X72511Y36931D02*
X73889D01*
X73200Y36242D02*
Y37620D01*
X81980Y81749D02*
X83358D01*
X82669Y81060D02*
Y82438D01*
X100684Y71973D02*
X102062D01*
X101373Y71284D02*
Y72662D01*
X97917Y66439D02*
X99295D01*
X98606Y65750D02*
Y67128D01*
X97311Y61800D02*
X98689D01*
X98000Y61111D02*
Y62489D01*
X85211Y80700D02*
X86589D01*
X85900Y80011D02*
Y81389D01*
X60892Y70581D02*
X62270D01*
X61581Y69892D02*
Y71270D01*
X98411Y56300D02*
X99789D01*
X99100Y55611D02*
Y56989D01*
X66311Y99900D02*
X67689D01*
X67000Y99211D02*
Y100589D01*
X51911Y101700D02*
X53289D01*
X52600Y101011D02*
Y102389D01*
X56911Y94800D02*
X58289D01*
X57600Y94111D02*
Y95489D01*
X140411Y78800D02*
X141789D01*
X141100Y78111D02*
Y79489D01*
X64411Y30388D02*
X65789D01*
X65100Y29699D02*
Y31077D01*
X48510Y36250D02*
X49888D01*
X49199Y35561D02*
Y36939D01*
X61546Y39031D02*
X62924D01*
X62235Y38342D02*
Y39720D01*
X74011Y27900D02*
X75389D01*
X74700Y27211D02*
Y28589D01*
X61211Y45600D02*
X62589D01*
X61900Y44911D02*
Y46289D01*
X133111Y53500D02*
X134489D01*
X133800Y52811D02*
Y54189D01*
X36711Y119400D02*
X38089D01*
X37400Y118711D02*
Y120089D01*
X44011Y98600D02*
X45389D01*
X44700Y97911D02*
Y99289D01*
X94511Y29400D02*
X95889D01*
X95200Y28711D02*
Y30089D01*
X115911Y58800D02*
X117289D01*
X116600Y58111D02*
Y59489D01*
X112811Y55700D02*
X114189D01*
X113500Y55011D02*
Y56389D01*
X40711Y17300D02*
X42089D01*
X41400Y16611D02*
Y17989D01*
X110711Y28900D02*
X112089D01*
X111400Y28211D02*
Y29589D01*
X133211Y64300D02*
X134589D01*
X133900Y63611D02*
Y64989D01*
X146911Y100800D02*
X148289D01*
X147600Y100111D02*
Y101489D01*
X143211Y100900D02*
X144589D01*
X143900Y100211D02*
Y101589D01*
X138211Y101000D02*
X139589D01*
X138900Y100311D02*
Y101689D01*
X110511Y95000D02*
X111889D01*
X111200Y94311D02*
Y95689D01*
X158211Y95000D02*
X159589D01*
X158900Y94311D02*
Y95689D01*
X119011Y48800D02*
X120389D01*
X119700Y48111D02*
Y49489D01*
X108211Y33000D02*
X109589D01*
X108900Y32311D02*
Y33689D01*
X102411Y93200D02*
X103789D01*
X103100Y92511D02*
Y93889D01*
X117611Y45000D02*
X118989D01*
X118300Y44311D02*
Y45689D01*
X119811Y33100D02*
X121189D01*
X120500Y32411D02*
Y33789D01*
X154811Y63200D02*
X156189D01*
X155500Y62511D02*
Y63889D01*
X164811Y74300D02*
X166189D01*
X165500Y73611D02*
Y74989D01*
X60011Y29400D02*
X61389D01*
X60700Y28711D02*
Y30089D01*
X155311Y45400D02*
X156689D01*
X156000Y44711D02*
Y46089D01*
X118111Y41000D02*
X119489D01*
X118800Y40311D02*
Y41689D01*
X82711Y61900D02*
X84089D01*
X83400Y61211D02*
Y62589D01*
X48911Y50200D02*
X50289D01*
X49600Y49511D02*
Y50889D01*
X26811Y97700D02*
X28189D01*
X27500Y97011D02*
Y98389D01*
X38265Y46456D02*
X39643D01*
X38954Y45767D02*
Y47145D01*
X61611Y50000D02*
X62989D01*
X62300Y49311D02*
Y50689D01*
X37611Y5900D02*
X38989D01*
X38300Y5211D02*
Y6589D01*
X155111Y40300D02*
X156489D01*
X155800Y39611D02*
Y40989D01*
X158811Y101800D02*
X160189D01*
X159500Y101111D02*
Y102489D01*
X92511Y114200D02*
X93889D01*
X93200Y113511D02*
Y114889D01*
X151411Y22600D02*
X152789D01*
X152100Y21911D02*
Y23289D01*
X61811Y53700D02*
X63189D01*
X62500Y53011D02*
Y54389D01*
X60911Y57900D02*
X62289D01*
X61600Y57211D02*
Y58589D01*
X93811Y40600D02*
X95189D01*
X94500Y39911D02*
Y41289D01*
X45311Y17900D02*
X46689D01*
X46000Y17211D02*
Y18589D01*
X15511Y86500D02*
X16889D01*
X16200Y85811D02*
Y87189D01*
X7911Y88100D02*
X9289D01*
X8600Y87411D02*
Y88789D01*
M02*
