G04*
G04 #@! TF.GenerationSoftware,Altium Limited,Altium Designer,23.0.1 (38)*
G04*
G04 Layer_Color=32896*
%FSTAX44Y44*%
%MOMM*%
G71*
G04*
G04 #@! TF.SameCoordinates,E3829BB2-AA37-4C4C-BECC-1D93302A16C3*
G04*
G04*
G04 #@! TF.FilePolarity,Positive*
G04*
G01*
G75*
%ADD10C,0.2500*%
%ADD11C,0.6000*%
%ADD12C,0.2000*%
%ADD13C,0.1270*%
%ADD14C,0.1500*%
%ADD46C,0.3810*%
%ADD51C,0.5000*%
G36*
X00454276Y00101346D02*
X00451736Y00103378D01*
X0045199Y00106934D01*
X00455546Y00108204D01*
X0045834Y00105664D01*
X0045707Y00102108D01*
X0045453Y00101346D01*
X00454276D01*
D02*
G37*
G36*
X00384655Y00286114D02*
X00389735Y00281034D01*
X00384655Y00275954D01*
Y00286114D01*
D02*
G37*
D10*
X00123306Y00285822D02*
G03*
X00123306Y00285822I-0000125J0D01*
G01*
X00096174Y0008752D02*
G03*
X00096174Y0008752I-0000125J0D01*
G01*
X00241026Y00044356D02*
G03*
X00241026Y00044356I-0000125J0D01*
G01*
X00258624Y00190364D02*
G03*
X00258624Y00190364I-0000125J0D01*
G01*
X00378258Y00195444D02*
G03*
X00378258Y00195444I-0000125J0D01*
G01*
D11*
X00138006Y00264572D02*
G03*
X00138006Y00264572I-00003J0D01*
G01*
X00119174Y0010097D02*
G03*
X00119174Y0010097I-00003J0D01*
G01*
X00239124Y00177764D02*
G03*
X00239124Y00177764I-00003J0D01*
G01*
X00358758Y00182494D02*
G03*
X00358758Y00182494I-00003J0D01*
G01*
D12*
X00507492Y00087884D02*
Y00123444D01*
X00527812D01*
Y00087884D02*
Y00123444D01*
X00507492Y00087884D02*
X00527812D01*
X0040132Y00364744D02*
X0043688D01*
Y00344424D02*
Y00364744D01*
X0040132Y00344424D02*
X0043688D01*
X0040132D02*
Y00364744D01*
X00150876Y00056388D02*
X00186436D01*
X00150876D02*
Y00076708D01*
X00186436D01*
Y00056388D02*
Y00076708D01*
X00498348Y00251714D02*
Y00287274D01*
X00518668D01*
Y00251714D02*
Y00287274D01*
X00498348Y00251714D02*
X00518668D01*
X00383286Y00211328D02*
Y00246888D01*
X00362966Y00211328D02*
X00383286D01*
X00362966D02*
Y00246888D01*
X00383286D01*
X00082296Y00241554D02*
X00117856D01*
Y00221234D02*
Y00241554D01*
X00082296Y00221234D02*
X00117856D01*
X00082296D02*
Y00241554D01*
X00431546Y00086614D02*
X00467106D01*
Y00066294D02*
Y00086614D01*
X00431546Y00066294D02*
X00467106D01*
X00431546D02*
Y00086614D01*
X00333576Y000555D02*
X00344576D01*
X00333576Y000715D02*
X00344576D01*
X00126746Y00219202D02*
X00159766D01*
X00126746Y00198882D02*
Y00219202D01*
Y00198882D02*
X00159766D01*
Y00219202D01*
X00225006Y00242572D02*
Y00274572D01*
X00125006Y00242572D02*
Y00274572D01*
Y00242572D02*
X00225006D01*
X00125006Y00274572D02*
X00225006D01*
X002536Y00279342D02*
Y00294592D01*
X002553Y00275842D02*
X003543D01*
Y00243842D02*
Y00275842D01*
X002553Y00243842D02*
X003543D01*
X002553D02*
Y00275842D01*
X00169164Y00297688D02*
X00202184D01*
Y00318008D01*
X00169164D02*
X00202184D01*
X00169164Y00297688D02*
Y00318008D01*
X00308864Y0005334D02*
Y0007366D01*
X00275844Y0005334D02*
X00308864D01*
X00275844D02*
Y0007366D01*
X00308864D01*
X00392176Y00266954D02*
X00491998D01*
X00065659Y00293878D02*
Y00326644D01*
X00008001Y00293878D02*
X00068707D01*
X00008001D02*
Y00326644D01*
X00068707D01*
Y00293878D02*
Y00326644D01*
X00106174Y0009097D02*
Y0019097D01*
X00138174Y0009097D02*
Y0019097D01*
X00106174Y0009097D02*
X00138174D01*
X00106174Y0019097D02*
X00138174D01*
X00264776Y00072356D02*
X00264776Y00076856D01*
X00264776Y00055356D02*
X00264776Y00050856D01*
X00248526D02*
X00264776D01*
X00248526Y00076856D02*
X00264776D01*
X00214124Y00100014D02*
X00246124D01*
X00214124Y00187514D02*
X00246124D01*
X00214124Y00100014D02*
Y00187514D01*
X00246124Y00100014D02*
Y00187514D01*
X00365758Y00092494D02*
Y00192494D01*
X00333758Y00092494D02*
Y00192494D01*
X00365758D01*
X00333758Y00092494D02*
X00365758D01*
D13*
X00458201Y00104648D02*
G03*
X00458201Y00104648I-00003417J0D01*
G01*
X00448163Y00184251D02*
X00448341Y0018443D01*
X00448163Y00097428D02*
X00485264D01*
Y00184404D01*
X0044818Y0009779D02*
Y00183896D01*
X00448163Y00119961D02*
X00448252Y00119872D01*
X00448163Y00119961D02*
Y00184251D01*
X00448341Y0018443D02*
X00485091D01*
Y00097517D02*
Y0018443D01*
D14*
X00007874Y00252194D02*
X00057444D01*
X00008128Y00275816D02*
X00057444Y00276079D01*
X00055372Y00252194D02*
Y0027607D01*
X00007874Y00252194D02*
X00008128Y00275816D01*
X00057444Y00252194D02*
Y00276079D01*
X00007874Y00218379D02*
X00057444D01*
X00008128Y00242001D02*
X00057444Y00242265D01*
X00055372Y00218379D02*
Y00242255D01*
X00007874Y00218379D02*
X00008128Y00242001D01*
X00057444Y00218379D02*
Y00242265D01*
Y00184565D02*
Y00208451D01*
X00007874Y00184565D02*
X00008128Y00208187D01*
X00055372Y00184565D02*
Y00208441D01*
X00008128Y00208187D02*
X00057444Y00208451D01*
X00007874Y00184565D02*
X00057444D01*
Y00150751D02*
Y00174637D01*
X00007874Y00150751D02*
X00008128Y00174373D01*
X00055372Y00150751D02*
Y00174627D01*
X00008128Y00174373D02*
X00057444Y00174637D01*
X00007874Y00150751D02*
X00057444D01*
Y00116937D02*
Y00140822D01*
X00007874Y00116937D02*
X00008128Y00140559D01*
X00055372Y00116937D02*
Y00140813D01*
X00008128Y00140559D02*
X00057444Y00140822D01*
X00007874Y00116937D02*
X00057444D01*
Y00083123D02*
Y00107008D01*
X00007874Y00083123D02*
X00008128Y00106744D01*
X00055372Y00083123D02*
Y00106999D01*
X00008128Y00106744D02*
X00057444Y00107008D01*
X00007874Y00083123D02*
X00057444D01*
X00007874Y00049308D02*
X00057444D01*
X00008128Y0007293D02*
X00057444Y00073194D01*
X00055372Y00049308D02*
Y00073184D01*
X00007874Y00049308D02*
X00008128Y0007293D01*
X00057444Y00049308D02*
Y00073194D01*
X00007874Y00015494D02*
X00057444D01*
X00008128Y00039116D02*
X00057444Y0003938D01*
X00055372Y00015494D02*
Y0003937D01*
X00007874Y00015494D02*
X00008128Y00039116D01*
X00057444Y00015494D02*
Y0003938D01*
D46*
X00392884Y00271492D02*
X00491998D01*
X00391922Y00236394D02*
Y0027137D01*
Y00236394D02*
X00491935D01*
X00491998Y00236331D01*
Y00271492D01*
D51*
X00401464Y0026025D02*
G03*
X00401464Y0026025I-00002J0D01*
G01*
M02*
