G04*
G04 #@! TF.GenerationSoftware,Altium Limited,Altium Designer,23.0.1 (38)*
G04*
G04 Layer_Color=255*
%FSLAX25Y25*%
%MOIN*%
G70*
G04*
G04 #@! TF.SameCoordinates,9BF97A08-6F66-48D1-9A7C-BDF13F6F14C4*
G04*
G04*
G04 #@! TF.FilePolarity,Positive*
G04*
G01*
G75*
%ADD16O,0.06299X0.02559*%
%ADD17R,0.06299X0.02559*%
%ADD18R,0.06299X0.01968*%
%ADD19O,0.06299X0.01968*%
%ADD20R,0.02559X0.05118*%
%ADD21R,0.03937X0.02362*%
%ADD22R,0.03543X0.05118*%
%ADD23R,0.01968X0.06299*%
%ADD24O,0.01968X0.06299*%
%ADD25R,0.04528X0.07087*%
%ADD26O,0.05709X0.02362*%
%ADD27O,0.01968X0.05709*%
%ADD45O,0.03740X0.05906*%
%ADD46R,0.03740X0.05906*%
D16*
X66772Y68300D02*
D03*
Y63300D02*
D03*
Y58300D02*
D03*
Y53300D02*
D03*
Y48300D02*
D03*
Y43300D02*
D03*
Y38300D02*
D03*
Y33300D02*
D03*
X89228Y68300D02*
D03*
Y63300D02*
D03*
Y58300D02*
D03*
Y53300D02*
D03*
Y48300D02*
D03*
Y43300D02*
D03*
Y38300D02*
D03*
D17*
Y33300D02*
D03*
D18*
X53628Y33500D02*
D03*
D19*
Y38500D02*
D03*
Y43500D02*
D03*
Y48500D02*
D03*
Y53500D02*
D03*
Y58500D02*
D03*
Y63500D02*
D03*
Y68500D02*
D03*
X31172Y33500D02*
D03*
Y38500D02*
D03*
Y43500D02*
D03*
Y48500D02*
D03*
Y53500D02*
D03*
Y58500D02*
D03*
Y63500D02*
D03*
Y68500D02*
D03*
D20*
X74360Y23000D02*
D03*
X81840D02*
D03*
X135440Y75900D02*
D03*
X127960D02*
D03*
D21*
X22775Y97645D02*
D03*
X7825Y97722D02*
D03*
X22775Y84161D02*
D03*
X7825Y84239D02*
D03*
X23375Y111361D02*
D03*
X8425Y111439D02*
D03*
D22*
X20740Y123600D02*
D03*
X13260D02*
D03*
X80940Y77000D02*
D03*
X73460D02*
D03*
X119540Y22700D02*
D03*
X112060D02*
D03*
X47340Y23000D02*
D03*
X39860D02*
D03*
X147660Y75900D02*
D03*
X155140D02*
D03*
X143240Y22500D02*
D03*
X135760D02*
D03*
D23*
X72200Y110100D02*
D03*
D24*
X67200D02*
D03*
X62200D02*
D03*
X57200D02*
D03*
X52200D02*
D03*
X47200D02*
D03*
X42200D02*
D03*
X37200D02*
D03*
X72200Y87643D02*
D03*
X67200D02*
D03*
X62200D02*
D03*
X57200D02*
D03*
X52200D02*
D03*
X47200D02*
D03*
X42200D02*
D03*
X37200D02*
D03*
D25*
X18521Y58300D02*
D03*
X6710D02*
D03*
X18521Y46039D02*
D03*
X6710D02*
D03*
Y70300D02*
D03*
X18521D02*
D03*
X6710Y34278D02*
D03*
X18521D02*
D03*
D26*
X140272Y66400D02*
D03*
Y61400D02*
D03*
Y56400D02*
D03*
Y51400D02*
D03*
Y46400D02*
D03*
Y41400D02*
D03*
Y36400D02*
D03*
Y31400D02*
D03*
X161728Y66400D02*
D03*
Y61400D02*
D03*
Y56400D02*
D03*
Y51400D02*
D03*
Y46400D02*
D03*
Y41400D02*
D03*
Y36400D02*
D03*
Y31400D02*
D03*
X125528Y36700D02*
D03*
Y41700D02*
D03*
Y46700D02*
D03*
Y51700D02*
D03*
Y56700D02*
D03*
Y61700D02*
D03*
Y66700D02*
D03*
X104072Y36700D02*
D03*
Y41700D02*
D03*
Y46700D02*
D03*
Y51700D02*
D03*
Y56700D02*
D03*
Y61700D02*
D03*
Y66700D02*
D03*
D27*
X123900Y87872D02*
D03*
X128900D02*
D03*
X133900D02*
D03*
X138900D02*
D03*
X143900D02*
D03*
X148900D02*
D03*
X153900D02*
D03*
X158900D02*
D03*
X123900Y109328D02*
D03*
X128900D02*
D03*
X133900D02*
D03*
X138900D02*
D03*
X143900D02*
D03*
X148900D02*
D03*
X153900D02*
D03*
X158900D02*
D03*
X113100Y108728D02*
D03*
X108100D02*
D03*
X103100D02*
D03*
X98100D02*
D03*
X93100D02*
D03*
X88100D02*
D03*
X83100D02*
D03*
X113100Y87272D02*
D03*
X108100D02*
D03*
X103100D02*
D03*
X98100D02*
D03*
X93100D02*
D03*
X88100D02*
D03*
X83100D02*
D03*
D45*
X159776Y125800D02*
D03*
X154776D02*
D03*
X149776D02*
D03*
X144776D02*
D03*
X139776D02*
D03*
X134776D02*
D03*
X129776D02*
D03*
X124776D02*
D03*
X119776D02*
D03*
X114776D02*
D03*
X109776D02*
D03*
X104776D02*
D03*
X99776D02*
D03*
X94776D02*
D03*
X89776D02*
D03*
X84776D02*
D03*
X79776D02*
D03*
X74776D02*
D03*
X69776D02*
D03*
X64776D02*
D03*
X59776D02*
D03*
X54776D02*
D03*
X49776D02*
D03*
X44776D02*
D03*
X49700Y7587D02*
D03*
X54700D02*
D03*
X59700D02*
D03*
X64700D02*
D03*
X69700D02*
D03*
X74700D02*
D03*
X79700D02*
D03*
X84700D02*
D03*
X89700D02*
D03*
X94700D02*
D03*
X99700D02*
D03*
X104700D02*
D03*
X109700D02*
D03*
X114700D02*
D03*
X119700D02*
D03*
X124700D02*
D03*
X129700D02*
D03*
X134700D02*
D03*
X139700D02*
D03*
X144700D02*
D03*
X149700D02*
D03*
X154700D02*
D03*
X159700D02*
D03*
D46*
X44700D02*
D03*
M02*
