G04*
G04 #@! TF.GenerationSoftware,Altium Limited,Altium Designer,23.0.1 (38)*
G04*
G04 Layer_Color=65535*
%FSTAX44Y44*%
%MOMM*%
G71*
G04*
G04 #@! TF.SameCoordinates,E3829BB2-AA37-4C4C-BECC-1D93302A16C3*
G04*
G04*
G04 #@! TF.FilePolarity,Positive*
G04*
G01*
G75*
%ADD10C,0.2500*%
%ADD11C,0.6000*%
%ADD12C,0.2000*%
%ADD13C,0.1270*%
%ADD14C,0.1500*%
%ADD15C,0.2540*%
D10*
X00213196Y00296744D02*
G03*
X00213196Y00296744I-0000125J0D01*
G01*
X00482216Y00089798D02*
G03*
X00482216Y00089798I-0000125J0D01*
G01*
X00157478Y00088282D02*
G03*
X00157478Y00088282I-0000125J0D01*
G01*
X00278944Y00086758D02*
G03*
X00278944Y00086758I-0000125J0D01*
G01*
X00495144Y00283028D02*
G03*
X00495144Y00283028I-0000125J0D01*
G01*
X0038664Y00098688D02*
G03*
X0038664Y00098688I-0000125J0D01*
G01*
X0035265Y00277948D02*
G03*
X0035265Y00277948I-0000125J0D01*
G01*
D11*
X00201496Y00275494D02*
G03*
X00201496Y00275494I-00003J0D01*
G01*
X00462716Y00102748D02*
G03*
X00462716Y00102748I-00003J0D01*
G01*
X00137978Y00101732D02*
G03*
X00137978Y00101732I-00003J0D01*
G01*
X00259444Y00100208D02*
G03*
X00259444Y00100208I-00003J0D01*
G01*
X00483944Y00261778D02*
G03*
X00483944Y00261778I-00003J0D01*
G01*
X0036714Y00111288D02*
G03*
X0036714Y00111288I-00003J0D01*
G01*
X003418Y00256698D02*
G03*
X003418Y00256698I-00003J0D01*
G01*
D12*
X00074644Y00254155D02*
Y00289715D01*
Y00254155D02*
X00094964D01*
Y00289715D01*
X00074644D02*
X00094964D01*
X00334264Y00084328D02*
X00369824D01*
X00334264Y00064008D02*
Y00084328D01*
Y00064008D02*
X00369824D01*
Y00084328D01*
X0010287D02*
X0013843D01*
X0010287Y00064008D02*
Y00084328D01*
Y00064008D02*
X0013843D01*
Y00084328D01*
X00516508Y00215138D02*
Y00250698D01*
X00496188D02*
X00516508D01*
X00496188Y00215138D02*
Y00250698D01*
Y00215138D02*
X00516508D01*
X00372872Y00064008D02*
X00408432D01*
Y00084328D01*
X00372872D02*
X00408432D01*
X00372872Y00064008D02*
Y00084328D01*
X00190246Y0004826D02*
X00223266D01*
X00190246D02*
Y0006858D01*
X00223266D01*
Y0004826D02*
Y0006858D01*
X00108496Y00285494D02*
X00208496D01*
X00108496Y00253494D02*
X00208496D01*
Y00285494D01*
X00108496Y00253494D02*
Y00285494D01*
X00437716Y00192748D02*
X00469716D01*
X00437716Y00092748D02*
X00469716D01*
X00437716D02*
Y00192748D01*
X00469716Y00092748D02*
Y00192748D01*
X00112978Y00191732D02*
X00144978D01*
X00112978Y00091732D02*
X00144978D01*
X00112978D02*
Y00191732D01*
X00144978Y00091732D02*
Y00191732D01*
X00498348Y00154788D02*
X00518668D01*
Y00187808D01*
X00498348D02*
X00518668D01*
X00498348Y00154788D02*
Y00187808D01*
X00266444Y00090208D02*
Y00190208D01*
X00234444Y00090208D02*
Y00190208D01*
Y00090208D02*
X00266444D01*
X00234444Y00190208D02*
X00266444D01*
X00390944Y00239778D02*
Y00271778D01*
X00490944Y00239778D02*
Y00271778D01*
X00390944Y00239778D02*
X00490944D01*
X00390944Y00271778D02*
X00490944D01*
X0037414Y00101538D02*
Y00189038D01*
X0034214Y00101538D02*
Y00189038D01*
Y00101538D02*
X0037414D01*
X0034214Y00189038D02*
X0037414D01*
X0026105Y00266698D02*
X0034855D01*
X0026105Y00234698D02*
X0034855D01*
Y00266698D01*
X0026105Y00234698D02*
Y00266698D01*
D13*
X00044512Y00264646D02*
Y00280111D01*
X00046778Y00264745D02*
Y00279225D01*
X00055484Y00264351D02*
Y00266715D01*
X00018643Y00264253D02*
X00055385D01*
X00018643D02*
Y00266715D01*
X00055385Y00277157D02*
Y00280111D01*
X00018643D02*
X00055385D01*
X00018544Y00280013D02*
X00018643Y00280111D01*
X00018544Y00277353D02*
Y00280013D01*
X00052698Y00199285D02*
Y00201945D01*
X00052599Y00199187D02*
X00052698Y00199285D01*
X00015857Y00199187D02*
X00052599D01*
X00015857D02*
Y00202141D01*
X00052599Y00212583D02*
Y00215045D01*
X00015857D02*
X00052599D01*
X00015758Y00212583D02*
Y00214947D01*
X00024464Y00200073D02*
Y00214553D01*
X0002673Y00199187D02*
Y00214652D01*
X00054608Y00231818D02*
Y00234478D01*
X00054509Y0023172D02*
X00054608Y00231818D01*
X00017767Y0023172D02*
X00054509D01*
X00017767D02*
Y00234674D01*
X00054509Y00245116D02*
Y00247578D01*
X00017767D02*
X00054509D01*
X00017668Y00245116D02*
Y0024748D01*
X00026374Y00232606D02*
Y00247086D01*
X0002864Y0023172D02*
Y00247185D01*
D14*
X00010414Y00138176D02*
Y00162062D01*
X0005973Y00161798D02*
X00059984Y00138176D01*
X00012486D02*
Y00162052D01*
X00010414Y00162062D02*
X0005973Y00161798D01*
X00010414Y00138176D02*
X00059984D01*
X00010414Y00107034D02*
Y00130919D01*
X0005973Y00130656D02*
X00059984Y00107034D01*
X00012486D02*
Y0013091D01*
X00010414Y00130919D02*
X0005973Y00130656D01*
X00010414Y00107034D02*
X00059984D01*
X00010414Y00168656D02*
X00059984D01*
X00010414Y00192542D02*
X0005973Y00192278D01*
X00012486Y00168656D02*
Y00192532D01*
X0005973Y00192278D02*
X00059984Y00168656D01*
X00010414D02*
Y00192542D01*
Y00077161D02*
X00059984D01*
X00010414Y00101047D02*
X0005973Y00100783D01*
X00012486Y00077161D02*
Y00101037D01*
X0005973Y00100783D02*
X00059984Y00077161D01*
X00010414D02*
Y00101047D01*
D15*
X00476444Y00345948D02*
X00476504Y00321248D01*
X00461204Y00345948D02*
X00476444D01*
X00166564D02*
X00461204D01*
X00166564Y00320548D02*
Y00345948D01*
Y00320548D02*
X00476444D01*
X0016631Y00044988D02*
X0016637Y00020288D01*
X0018161D01*
X0047625D01*
Y00045688D01*
X0016637D02*
X0047625D01*
M02*
