G04*
G04 #@! TF.GenerationSoftware,Altium Limited,Altium Designer,23.0.1 (38)*
G04*
G04 Layer_Physical_Order=3*
G04 Layer_Color=16440176*
%FSLAX25Y25*%
%MOIN*%
G70*
G04*
G04 #@! TF.SameCoordinates,9BF97A08-6F66-48D1-9A7C-BDF13F6F14C4*
G04*
G04*
G04 #@! TF.FilePolarity,Positive*
G04*
G01*
G75*
%ADD15C,0.01000*%
%ADD42C,0.01500*%
%ADD43C,0.02000*%
%ADD45O,0.03740X0.05906*%
%ADD46R,0.03740X0.05906*%
%ADD47C,0.02362*%
%ADD48C,0.03000*%
G36*
X33000Y98800D02*
X53300Y78500D01*
Y72100D01*
X49500D01*
X28800Y92800D01*
X25600D01*
Y98483D01*
X26018Y98897D01*
X33000Y98800D01*
D02*
G37*
G36*
X113550Y74350D02*
X113523Y73670D01*
X113196Y73344D01*
X112864Y72542D01*
Y71675D01*
X112897Y71596D01*
X111600Y70300D01*
Y65088D01*
X111265Y64949D01*
X110651Y64336D01*
X110319Y63534D01*
Y62666D01*
X110651Y61865D01*
X111265Y61251D01*
X111600Y61112D01*
Y56813D01*
X111319Y56134D01*
Y55266D01*
X111600Y54588D01*
Y46300D01*
X116619Y41281D01*
Y40566D01*
X116951Y39764D01*
X117564Y39151D01*
X118366Y38819D01*
X119081D01*
X122400Y35500D01*
Y34992D01*
X121900Y34784D01*
X121736Y34949D01*
X120934Y35281D01*
X120066D01*
X119264Y34949D01*
X118651Y34336D01*
X118319Y33534D01*
Y32666D01*
X118651Y31865D01*
X119264Y31251D01*
X120066Y30919D01*
X120934D01*
X121736Y31251D01*
X121900Y31416D01*
X122400Y31208D01*
Y13300D01*
X113500D01*
Y28270D01*
X113581Y28466D01*
Y29334D01*
X113500Y29530D01*
Y31700D01*
X103600Y41600D01*
Y71400D01*
X109582Y77809D01*
X110082Y77818D01*
X113550Y74350D01*
D02*
G37*
G36*
X58800Y79352D02*
X59921Y79337D01*
X59966Y79319D01*
X60834D01*
X60849Y79325D01*
X62800Y79300D01*
X63300D01*
X73400Y69200D01*
Y64600D01*
X68200Y59400D01*
Y45500D01*
X69600Y44100D01*
Y28800D01*
X65300D01*
X64300Y27800D01*
X63300Y28800D01*
X63100D01*
X62881Y29019D01*
Y29219D01*
Y29834D01*
X62549Y30635D01*
X61936Y31249D01*
X61134Y31581D01*
X60319D01*
X55100Y36800D01*
Y37000D01*
Y79044D01*
D01*
Y79400D01*
X58800D01*
Y79352D01*
D02*
G37*
G36*
X138800Y59800D02*
X140400Y58200D01*
Y26200D01*
X140359Y26100D01*
X132300D01*
Y28115D01*
X132349Y28164D01*
X132681Y28966D01*
Y29834D01*
X132349Y30635D01*
X132300Y30685D01*
Y32100D01*
X135200Y35000D01*
Y51815D01*
X135649Y52264D01*
X135981Y53066D01*
Y53934D01*
X135649Y54735D01*
X135200Y55185D01*
Y62515D01*
X135749Y63064D01*
X136081Y63866D01*
Y64734D01*
X135749Y65535D01*
X135200Y66084D01*
Y71100D01*
X132003Y74297D01*
Y98800D01*
X138800D01*
Y59800D01*
D02*
G37*
G36*
X49600Y52381D02*
X49166D01*
X48364Y52049D01*
X47751Y51436D01*
X47419Y50634D01*
Y49766D01*
X47751Y48965D01*
X48364Y48351D01*
X49166Y48019D01*
X49600D01*
Y38432D01*
X48765D01*
X47964Y38100D01*
X47350Y37486D01*
X47018Y36684D01*
Y35817D01*
X47350Y35015D01*
X47964Y34401D01*
X48765Y34069D01*
X49600D01*
Y17600D01*
X45000D01*
X41400Y21200D01*
Y50646D01*
X42136Y50951D01*
X42749Y51565D01*
X43081Y52366D01*
Y53234D01*
X42749Y54036D01*
X42136Y54649D01*
X41400Y54954D01*
Y63700D01*
X49600D01*
Y52381D01*
D02*
G37*
G36*
X112200Y21300D02*
X103000Y12100D01*
X40300D01*
Y17800D01*
X41400Y18800D01*
X44600Y15600D01*
X95300D01*
X109300Y29600D01*
X112200D01*
Y21300D01*
D02*
G37*
%LPC*%
G36*
X62014Y72762D02*
X61147D01*
X60345Y72430D01*
X59732Y71817D01*
X59399Y71015D01*
Y70147D01*
X59732Y69346D01*
X60345Y68732D01*
X61147Y68400D01*
X62014D01*
X62816Y68732D01*
X63430Y69346D01*
X63762Y70147D01*
Y71015D01*
X63430Y71817D01*
X62816Y72430D01*
X62014Y72762D01*
D02*
G37*
G36*
X61834Y67381D02*
X60966D01*
X60164Y67049D01*
X59551Y66435D01*
X59219Y65634D01*
Y64766D01*
X59551Y63964D01*
X60164Y63351D01*
X60966Y63019D01*
X61834D01*
X62635Y63351D01*
X63249Y63964D01*
X63581Y64766D01*
Y65634D01*
X63249Y66435D01*
X62635Y67049D01*
X61834Y67381D01*
D02*
G37*
G36*
X62034Y60081D02*
X61166D01*
X60365Y59749D01*
X59751Y59136D01*
X59419Y58334D01*
Y57466D01*
X59751Y56665D01*
X60365Y56051D01*
X60856Y55848D01*
X60973Y55258D01*
X60651Y54935D01*
X60319Y54134D01*
Y53266D01*
X60651Y52464D01*
X61098Y52017D01*
X61064Y51849D01*
X60451Y51236D01*
X60119Y50434D01*
Y49566D01*
X60451Y48765D01*
X61064Y48151D01*
X61058Y47612D01*
X60664Y47449D01*
X60051Y46836D01*
X59719Y46034D01*
Y45166D01*
X59931Y44654D01*
X59912Y44105D01*
X59298Y43491D01*
X58966Y42690D01*
Y41822D01*
X59298Y41020D01*
X59912Y40407D01*
X60366Y40219D01*
X60053Y39465D01*
Y38597D01*
X60386Y37796D01*
X60999Y37182D01*
X61801Y36850D01*
X62669D01*
X63470Y37182D01*
X64084Y37796D01*
X64416Y38597D01*
Y39465D01*
X64084Y40267D01*
X63470Y40880D01*
X63016Y41068D01*
X63328Y41822D01*
Y42690D01*
X63116Y43202D01*
X63135Y43751D01*
X63749Y44365D01*
X64081Y45166D01*
Y46034D01*
X63749Y46836D01*
X63135Y47449D01*
X63142Y47988D01*
X63535Y48151D01*
X64149Y48765D01*
X64481Y49566D01*
Y50434D01*
X64149Y51236D01*
X63702Y51683D01*
X63736Y51851D01*
X64349Y52464D01*
X64681Y53266D01*
Y54134D01*
X64349Y54935D01*
X63736Y55549D01*
X63244Y55752D01*
X63127Y56342D01*
X63449Y56665D01*
X63781Y57466D01*
Y58334D01*
X63449Y59136D01*
X62836Y59749D01*
X62034Y60081D01*
D02*
G37*
%LPD*%
D15*
X76300Y62800D02*
Y69500D01*
X64300Y81500D02*
X76300Y69500D01*
X60400Y81500D02*
X64300D01*
X47761Y94139D02*
X60400Y81500D01*
X71057Y57557D02*
X76300Y62800D01*
X78700Y89914D02*
X82729Y93943D01*
X78700Y60362D02*
Y89914D01*
X73800Y55462D02*
X78700Y60362D01*
X71057Y52843D02*
Y57557D01*
Y52843D02*
X73600Y50300D01*
X83004Y66204D02*
X90300Y73500D01*
X130474Y66827D02*
Y100126D01*
Y66827D02*
X130564Y66738D01*
X47761Y94139D02*
Y95139D01*
X47500Y95400D02*
X47761Y95139D01*
X109700Y108700D02*
X124500Y93900D01*
Y83200D02*
Y93900D01*
X86700Y108700D02*
X109700D01*
X121100Y79800D02*
X124500Y83200D01*
X121100Y66200D02*
Y79800D01*
X114776Y125800D02*
Y127624D01*
X113864Y128537D02*
X114776Y127624D01*
X110400Y132200D02*
X113864Y128736D01*
Y128537D02*
Y128736D01*
X41400Y132200D02*
X110400D01*
X79776Y115624D02*
Y125800D01*
Y115624D02*
X86700Y108700D01*
X37400Y128200D02*
X41400Y132200D01*
X37400Y119400D02*
Y128200D01*
X85000Y97100D02*
X90300Y91800D01*
Y73500D02*
Y91800D01*
X64200Y97100D02*
X85000D01*
X106100Y100800D02*
X108900D01*
X98606Y93306D02*
X106100Y100800D01*
X73800Y55400D02*
Y55462D01*
X73738Y55400D02*
X79400Y49738D01*
Y25400D02*
Y49738D01*
X69600Y18900D02*
X72900D01*
X121100Y66200D02*
X133800Y53500D01*
X98606Y66439D02*
Y93306D01*
X52600Y101700D02*
X59600D01*
X64200Y97100D01*
X72900Y18900D02*
X79400Y25400D01*
X109776Y120824D02*
Y125800D01*
Y120824D02*
X130474Y100126D01*
D42*
X52400Y72900D02*
X52500D01*
X27600Y97700D02*
X52400Y72900D01*
X27500Y97700D02*
X27600D01*
X100000Y33100D02*
X104700Y28400D01*
X83400Y61700D02*
X100000Y45100D01*
Y33100D02*
Y45100D01*
X134000Y28600D02*
X137400Y32000D01*
X38435Y42325D02*
Y42935D01*
X38600Y43100D01*
X38300Y5900D02*
Y42190D01*
X38435Y42325D01*
X147550Y100750D02*
X147600Y100800D01*
X147500Y60200D02*
X147550Y60250D01*
Y100750D01*
X133477Y78023D02*
Y98223D01*
Y78023D02*
X137400Y74100D01*
Y32000D02*
Y74100D01*
X145500Y20200D02*
Y49600D01*
X129402Y7886D02*
X129700Y7587D01*
X129402Y7886D02*
Y11198D01*
X125700Y14900D02*
X129402Y11198D01*
X125700Y14900D02*
Y41000D01*
X94200Y61200D02*
Y92600D01*
X67000Y99900D02*
X86900D01*
X94200Y92600D01*
X47631Y111431D02*
X54776Y118576D01*
Y125800D01*
X47500Y95400D02*
X47631Y95531D01*
Y111431D01*
X57400Y78300D02*
X57500Y78200D01*
Y37988D02*
Y78200D01*
Y37988D02*
X65100Y30388D01*
X154776Y64157D02*
Y125800D01*
Y64157D02*
X155500Y63433D01*
Y63200D02*
Y63433D01*
X94200Y61200D02*
X99100Y56300D01*
X83400Y61700D02*
Y61900D01*
X121731Y44969D02*
X125700Y41000D01*
X118300Y45000D02*
X118331Y44969D01*
X121731D01*
X139700Y7587D02*
Y14400D01*
X145500Y20200D01*
D43*
X116300Y20000D02*
X119400Y16900D01*
X116300Y20000D02*
Y35900D01*
X45300Y18698D02*
Y58783D01*
X43600Y60483D02*
Y60581D01*
Y60483D02*
X45300Y58783D01*
X46000Y17900D02*
Y17998D01*
X45300Y18698D02*
X46000Y17998D01*
X45400Y13300D02*
X95800D01*
X41400Y17300D02*
X45400Y13300D01*
X95800D02*
X111331Y28831D01*
X106823Y45377D02*
Y68621D01*
X112151Y73949D01*
X106823Y45377D02*
X116300Y35900D01*
D45*
X159776Y125800D02*
D03*
X154776D02*
D03*
X149776D02*
D03*
X144776D02*
D03*
X139776D02*
D03*
X134776D02*
D03*
X129776D02*
D03*
X124776D02*
D03*
X119776D02*
D03*
X114776D02*
D03*
X109776D02*
D03*
X104776D02*
D03*
X99776D02*
D03*
X94776D02*
D03*
X89776D02*
D03*
X84776D02*
D03*
X79776D02*
D03*
X74776D02*
D03*
X69776D02*
D03*
X64776D02*
D03*
X59776D02*
D03*
X54776D02*
D03*
X49776D02*
D03*
X44776D02*
D03*
X49700Y7587D02*
D03*
X54700D02*
D03*
X59700D02*
D03*
X64700D02*
D03*
X69700D02*
D03*
X74700D02*
D03*
X79700D02*
D03*
X84700D02*
D03*
X89700D02*
D03*
X94700D02*
D03*
X99700D02*
D03*
X104700D02*
D03*
X109700D02*
D03*
X114700D02*
D03*
X119700D02*
D03*
X124700D02*
D03*
X129700D02*
D03*
X134700D02*
D03*
X139700D02*
D03*
X144700D02*
D03*
X149700D02*
D03*
X154700D02*
D03*
X159700D02*
D03*
D46*
X44700D02*
D03*
D47*
X61400Y65200D02*
D03*
X46800Y67900D02*
D03*
X52500Y72900D02*
D03*
X26200Y51800D02*
D03*
X22920Y40220D02*
D03*
X26200Y41100D02*
D03*
X119400Y16900D02*
D03*
X69800Y115600D02*
D03*
X72019Y65600D02*
D03*
X95900Y44800D02*
D03*
Y37100D02*
D03*
X104700Y28400D02*
D03*
X163300Y26900D02*
D03*
X155522Y35778D02*
D03*
X160055Y31400D02*
D03*
X134000Y28600D02*
D03*
X38900Y62900D02*
D03*
X38600Y43100D02*
D03*
X43600Y60581D02*
D03*
X40900Y52800D02*
D03*
X112500Y63100D02*
D03*
X69600Y18900D02*
D03*
X87000Y17900D02*
D03*
X61147Y42256D02*
D03*
X112151Y73949D02*
D03*
X115045Y72109D02*
D03*
X143866Y76100D02*
D03*
X147500Y60200D02*
D03*
X83004Y66204D02*
D03*
X130564Y66738D02*
D03*
X145600Y49600D02*
D03*
X133477Y98223D02*
D03*
X36800Y81500D02*
D03*
X85600Y31300D02*
D03*
X120500Y86300D02*
D03*
X102200Y113700D02*
D03*
X108900Y100800D02*
D03*
X96300Y102300D02*
D03*
X47500Y95400D02*
D03*
X52000Y95000D02*
D03*
X57400Y78300D02*
D03*
X73738Y55400D02*
D03*
X83381Y43531D02*
D03*
X80100Y55200D02*
D03*
X84247Y50365D02*
D03*
X34700Y29100D02*
D03*
X60400Y81500D02*
D03*
X70300Y81331D02*
D03*
X76500Y94400D02*
D03*
X82766Y93980D02*
D03*
X85800Y104300D02*
D03*
X91400Y27631D02*
D03*
X130500Y29400D02*
D03*
X125200Y77100D02*
D03*
X73600Y50300D02*
D03*
X76600Y46600D02*
D03*
X73200Y36931D02*
D03*
X82669Y81749D02*
D03*
X101373Y71973D02*
D03*
X98606Y66439D02*
D03*
X98000Y61800D02*
D03*
X85900Y80700D02*
D03*
X61581Y70581D02*
D03*
X99100Y56300D02*
D03*
X67000Y99900D02*
D03*
X52600Y101700D02*
D03*
X57600Y94800D02*
D03*
X141100Y78800D02*
D03*
X65100Y30388D02*
D03*
X49199Y36250D02*
D03*
X62235Y39031D02*
D03*
X74700Y27900D02*
D03*
X61900Y45600D02*
D03*
X133800Y53500D02*
D03*
X37400Y119400D02*
D03*
X44700Y98600D02*
D03*
X95200Y29400D02*
D03*
X116600Y58800D02*
D03*
X113500Y55700D02*
D03*
X41400Y17300D02*
D03*
X111400Y28900D02*
D03*
X133900Y64300D02*
D03*
X147600Y100800D02*
D03*
X143900Y100900D02*
D03*
X138900Y101000D02*
D03*
X111200Y95000D02*
D03*
X158900D02*
D03*
X119700Y48800D02*
D03*
X108900Y33000D02*
D03*
X103100Y93200D02*
D03*
X118300Y45000D02*
D03*
X120500Y33100D02*
D03*
X155500Y63200D02*
D03*
X165500Y74300D02*
D03*
X60700Y29400D02*
D03*
X156000Y45400D02*
D03*
X118800Y41000D02*
D03*
X83400Y61900D02*
D03*
X49600Y50200D02*
D03*
X27500Y97700D02*
D03*
X38954Y46456D02*
D03*
X62300Y50000D02*
D03*
X38300Y5900D02*
D03*
X155800Y40300D02*
D03*
X159500Y101800D02*
D03*
X93200Y114200D02*
D03*
X152100Y22600D02*
D03*
X62500Y53700D02*
D03*
X61600Y57900D02*
D03*
X94500Y40600D02*
D03*
X46000Y17900D02*
D03*
X16200Y86500D02*
D03*
X8600Y88100D02*
D03*
D48*
X33800Y62900D02*
X38100D01*
X8600Y88100D02*
X33800Y62900D01*
M02*
