G04*
G04 #@! TF.GenerationSoftware,Altium Limited,Altium Designer,23.0.1 (38)*
G04*
G04 Layer_Color=2752767*
%FSTAX44Y44*%
%MOMM*%
G71*
G04*
G04 #@! TF.SameCoordinates,E3829BB2-AA37-4C4C-BECC-1D93302A16C3*
G04*
G04*
G04 #@! TF.FilePolarity,Positive*
G04*
G01*
G75*
%ADD13C,0.1270*%
%ADD75C,0.1693*%
D13*
X00248158Y00294132D02*
Y00304292D01*
X00258318D01*
Y00294132D01*
X00248158D01*
X00266964Y00264874D02*
Y00275034D01*
X00277124D01*
Y00264874D01*
X00266964D01*
X00090424Y00260604D02*
Y00270764D01*
X00100584D01*
Y00260604D01*
X00090424D01*
X00089916Y00246634D02*
Y00256794D01*
X00100076D01*
Y00246634D01*
X00089916D01*
X00031496Y0020701D02*
Y0021717D01*
X00041656D01*
Y0020701D01*
X00031496D01*
X00351536Y00086614D02*
Y00096774D01*
X00361696D01*
Y00086614D01*
X00351536D01*
X0018034Y00314014D02*
Y00324174D01*
X001905D01*
Y00314014D01*
X0018034D01*
X00400256Y0012834D02*
Y001385D01*
X00410416D01*
Y0012834D01*
X00400256D01*
X0036576Y00199644D02*
Y00209804D01*
X0037592D01*
Y00199644D01*
X0036576D01*
X00345799Y00212629D02*
Y00222789D01*
X00355959D01*
Y00212629D01*
X00345799D01*
X00378206Y00283464D02*
Y00293624D01*
X00388366D01*
Y00283464D01*
X00378206D01*
X00350266D02*
Y00293624D01*
X00360426D01*
Y00283464D01*
X00350266D01*
X00263906Y00096266D02*
Y00106426D01*
X00274066D01*
Y00096266D01*
X00263906D01*
X00135568Y00053157D02*
Y00063317D01*
X00145728D01*
Y00053157D01*
X00135568D01*
X00392176Y00114554D02*
Y00124714D01*
X00402336D01*
Y00114554D01*
X00392176D01*
X00408178Y00069342D02*
Y00079502D01*
X00418338D01*
Y00069342D01*
X00408178D01*
X00342646Y00295047D02*
Y00305207D01*
X00352806D01*
Y00295047D01*
X00342646D01*
X00378009Y00309556D02*
Y00319716D01*
X00388169D01*
Y00309556D01*
X00378009D01*
X00279934Y00310594D02*
Y00320754D01*
X00290094D01*
Y00310594D01*
X00279934D01*
X00241494Y00208072D02*
Y00218232D01*
X00251654D01*
Y00208072D01*
X00241494D01*
X00290576Y00109982D02*
Y00120142D01*
X00300736D01*
Y00109982D01*
X00290576D01*
X00399796Y00093472D02*
Y00103632D01*
X00409956D01*
Y00093472D01*
X00399796D01*
X00066548Y00281437D02*
Y00291597D01*
X00076708D01*
Y00281437D01*
X00066548D01*
X00492506Y00273812D02*
Y00283972D01*
X00502666D01*
Y00273812D01*
X00492506D01*
X00200152Y00211074D02*
Y00221234D01*
X00210312D01*
Y00211074D01*
X00200152D01*
X00022606Y00244094D02*
Y00254254D01*
X00032766D01*
Y00244094D01*
X00022606D01*
X00066677Y00211453D02*
Y00221613D01*
X00076837D01*
Y00211453D01*
X00066677D01*
X00140972Y0004496D02*
Y00055121D01*
X00151132D01*
Y0004496D01*
X00140972D01*
X0034368Y00180008D02*
Y00190168D01*
X0035384D01*
Y00180008D01*
X0034368D01*
X00508683Y00226314D02*
Y00236474D01*
X00518843D01*
Y00226314D01*
X00508683D01*
X00157226Y00021844D02*
Y00032004D01*
X00167386D01*
Y00021844D01*
X00157226D01*
X0026406Y00235166D02*
Y00245326D01*
X0027422D01*
Y00235166D01*
X0026406D01*
X00110024Y00253936D02*
Y00264096D01*
X00120184D01*
Y00253936D01*
X00110024D01*
X00221298Y00055D02*
Y0006516D01*
X00231458D01*
Y00055D01*
X00221298D01*
X00300736Y00086106D02*
Y00096266D01*
X00310896D01*
Y00086106D01*
X00300736D01*
X00284401Y00079489D02*
Y00089649D01*
X00294561D01*
Y00079489D01*
X00284401D01*
X00216916Y00067818D02*
Y00077978D01*
X00227076D01*
Y00067818D01*
X00216916D01*
X00173736Y00129794D02*
Y00139954D01*
X00183896D01*
Y00129794D01*
X00173736D01*
X00168656Y00073914D02*
Y00084074D01*
X00178816D01*
Y00073914D01*
X00168656D01*
X00257583Y00184806D02*
Y00194966D01*
X00267743D01*
Y00184806D01*
X00257583D01*
X00220616Y00256032D02*
Y00266192D01*
X00230776D01*
Y00256032D01*
X00220616D01*
X00222192Y00233934D02*
Y00244094D01*
X00232352D01*
Y00233934D01*
X00222192D01*
X00243126Y00258064D02*
Y00268224D01*
X00253286D01*
Y00258064D01*
X00243126D01*
X00249936Y00266954D02*
Y00277114D01*
X00260096D01*
Y00266954D01*
X00249936D01*
X00229156Y00246634D02*
Y00256794D01*
X00239316D01*
Y00246634D01*
X00229156D01*
X00239776Y00226314D02*
Y00236474D01*
X00249936D01*
Y00226314D01*
X00239776D01*
X00239718Y00216425D02*
Y00226585D01*
X00249878D01*
Y00216425D01*
X00239718D01*
X00336296Y00254254D02*
Y00264414D01*
X00346456D01*
Y00254254D01*
X00336296D01*
X00326136Y00256794D02*
Y00266954D01*
X00336296D01*
Y00256794D01*
X00326136D01*
X00352452Y00262334D02*
Y00272494D01*
X00362612D01*
Y00262334D01*
X00352452D01*
X00417576Y00253444D02*
Y00263604D01*
X00427736D01*
Y00253444D01*
X00417576D01*
X00422656Y00266954D02*
Y00277114D01*
X00432816D01*
Y00266954D01*
X00422656D01*
X00287767Y00261692D02*
Y00271852D01*
X00297927D01*
Y00261692D01*
X00287767D01*
X00374396Y00274574D02*
Y00284734D01*
X00384556D01*
Y00274574D01*
X00374396D01*
X00092456Y00033274D02*
Y00043434D01*
X00102616D01*
Y00033274D01*
X00092456D01*
X00106426Y00197104D02*
Y00207264D01*
X00116586D01*
Y00197104D01*
X00106426D01*
X00236034Y00194984D02*
Y00205144D01*
X00246194D01*
Y00194984D01*
X00236034D01*
X00178657Y00166954D02*
Y00177114D01*
X00188817D01*
Y00166954D01*
X00178657D01*
X00182358Y00159252D02*
Y00169412D01*
X00192518D01*
Y00159252D01*
X00182358D01*
X0021611Y00314408D02*
Y00324568D01*
X00226271D01*
Y00314408D01*
X0021611D01*
X00087393Y00291067D02*
Y00301227D01*
X00097553D01*
Y00291067D01*
X00087393D01*
X00128016Y00310134D02*
Y00320294D01*
X00138176D01*
Y00310134D01*
X00128016D01*
X00140197Y00319775D02*
Y00329935D01*
X00150357D01*
Y00319775D01*
X00140197D01*
X00213106Y00293624D02*
Y00303784D01*
X00223266D01*
Y00293624D01*
X00213106D01*
X00221996Y00280742D02*
Y00290902D01*
X00232156D01*
Y00280742D01*
X00221996D01*
X00133096Y00015494D02*
Y00025654D01*
X00143256D01*
Y00015494D01*
X00133096D01*
X00288036Y00045974D02*
Y00056134D01*
X00298196D01*
Y00045974D01*
X00288036D01*
X00391414Y00301752D02*
Y00311912D01*
X00401574D01*
Y00301752D01*
X00391414D01*
X00444246Y00125984D02*
Y00136144D01*
X00454406D01*
Y00125984D01*
X00444246D01*
X00467566Y00151526D02*
Y00161686D01*
X00477726D01*
Y00151526D01*
X00467566D01*
X00459486Y00172974D02*
Y00183134D01*
X00469646D01*
Y00172974D01*
X00459486D01*
X00448056Y00109474D02*
Y00119634D01*
X00458216D01*
Y00109474D01*
X00448056D01*
X00462026Y00092964D02*
Y00103124D01*
X00472186D01*
Y00092964D01*
X00462026D01*
X00460756Y00263144D02*
Y00273304D01*
X00470916D01*
Y00263144D01*
X00460756D01*
X00417576Y00084074D02*
Y00094234D01*
X00427736D01*
Y00084074D01*
X00417576D01*
X00409956Y00059944D02*
Y00070104D01*
X00420116D01*
Y00059944D01*
X00409956D01*
X00434086Y00058674D02*
Y00068834D01*
X00444246D01*
Y00058674D01*
X00434086D01*
X00398526Y00169164D02*
Y00179324D01*
X00408686D01*
Y00169164D01*
X00398526D01*
X0043053Y00193444D02*
Y00203604D01*
X0044069D01*
Y00193444D01*
X0043053D01*
X00379476Y00197104D02*
Y00207264D01*
X00389636D01*
Y00197104D01*
X00379476D01*
X00230805Y00202027D02*
Y00212187D01*
X00240965D01*
Y00202027D01*
X00230805D01*
X00288019Y00071409D02*
Y00081569D01*
X00298179D01*
Y00071409D01*
X00288019D01*
X00503936Y00189484D02*
Y00199644D01*
X00514096D01*
Y00189484D01*
X00503936D01*
X00479806Y00251714D02*
Y00261874D01*
X00489966D01*
Y00251714D01*
X00479806D01*
X00514096Y00148844D02*
Y00159004D01*
X00524256D01*
Y00148844D01*
X00514096D01*
X00509016Y00141224D02*
Y00151384D01*
X00519176D01*
Y00141224D01*
X00509016D01*
X00428777Y00260833D02*
Y00270993D01*
X00438937D01*
Y00260833D01*
X00428777D01*
X00467614Y00189484D02*
Y00199644D01*
X00477774D01*
Y00189484D01*
X00467614D01*
X00263129Y00133429D02*
Y00143589D01*
X00273289D01*
Y00133429D01*
X00263129D01*
X00359156Y00169164D02*
Y00179324D01*
X00369316D01*
Y00169164D01*
X00359156D01*
X00340106Y00203454D02*
Y00213614D01*
X00350266D01*
Y00203454D01*
X00340106D01*
X00290576Y00162814D02*
Y00172974D01*
X00300736D01*
Y00162814D01*
X00290576D01*
X00338836Y00172974D02*
Y00183134D01*
X00348996D01*
Y00172974D01*
X00338836D01*
X00318332Y0004579D02*
Y0005595D01*
X00328492D01*
Y0004579D01*
X00318332D01*
X0025319Y00046228D02*
Y00056388D01*
X0026335D01*
Y00046228D01*
X0025319D01*
X00411226Y00048514D02*
Y00058674D01*
X00421386D01*
Y00048514D01*
X00411226D01*
X002739Y00207518D02*
Y00217678D01*
X0028406D01*
Y00207518D01*
X002739D01*
X00285496Y00188214D02*
Y00198374D01*
X00295656D01*
Y00188214D01*
X00285496D01*
X00326884Y00201071D02*
Y00211231D01*
X00337044D01*
Y00201071D01*
X00326884D01*
X00285121Y00291894D02*
Y00302054D01*
X00295281D01*
Y00291894D01*
X00285121D01*
X00185166Y00174142D02*
Y00184302D01*
X00195326D01*
Y00174142D01*
X00185166D01*
X00158471Y00249329D02*
Y00259489D01*
X00168631D01*
Y00249329D01*
X00158471D01*
X00166116Y00193017D02*
Y00203177D01*
X00176276D01*
Y00193017D01*
X00166116D01*
X00208026Y00185674D02*
Y00195834D01*
X00218186D01*
Y00185674D01*
X00208026D01*
X00288036Y00307594D02*
Y00317754D01*
X00298196D01*
Y00307594D01*
X00288036D01*
X00359156Y00091694D02*
Y00101854D01*
X00369316D01*
Y00091694D01*
X00359156D01*
X00338836Y00139954D02*
Y00150114D01*
X00348996D01*
Y00139954D01*
X00338836D01*
X00235234Y00124098D02*
Y00134258D01*
X00245394D01*
Y00124098D01*
X00235234D01*
X00227886Y00145034D02*
Y00155194D01*
X00238046D01*
Y00145034D01*
X00227886D01*
X00234696Y00152654D02*
Y00162814D01*
X00244856D01*
Y00152654D01*
X00234696D01*
X0024285Y00150114D02*
Y00160274D01*
X00253009D01*
Y00150114D01*
X0024285D01*
X00239776Y00137414D02*
Y00147574D01*
X00249936D01*
Y00137414D01*
X00239776D01*
X00138176Y00081534D02*
Y00091694D01*
X00148336D01*
Y00081534D01*
X00138176D01*
X00140541Y00068072D02*
Y00078232D01*
X00150701D01*
Y00068072D01*
X00140541D01*
X00059547Y00063865D02*
Y00074025D01*
X00069707D01*
Y00063865D01*
X00059547D01*
X00072136Y00099314D02*
Y00109474D01*
X00082296D01*
Y00099314D01*
X00072136D01*
X00077216Y00086614D02*
Y00096774D01*
X00087376D01*
Y00086614D01*
X00077216D01*
X00097536Y00066144D02*
Y00076304D01*
X00107696D01*
Y00066144D01*
X00097536D01*
X00087115Y00081534D02*
Y00091694D01*
X00097275D01*
Y00081534D01*
X00087115D01*
X00390144Y00356108D02*
Y00366268D01*
X00400304D01*
Y00356108D01*
X00390144D01*
X00116411Y00274574D02*
Y00284734D01*
X00126571D01*
Y00274574D01*
X00116411D01*
X00163322Y00208788D02*
Y00218948D01*
X00173482D01*
Y00208788D01*
X00163322D01*
X00199136Y00246634D02*
Y00256794D01*
X00209296D01*
Y00246634D01*
X00199136D01*
X00135636Y00244712D02*
Y00254872D01*
X00145796D01*
Y00244712D01*
X00135636D01*
X00067056Y00129794D02*
Y00139954D01*
X00077216D01*
Y00129794D01*
X00067056D01*
X00074676Y00188214D02*
Y00198374D01*
X00084836D01*
Y00188214D01*
X00074676D01*
X00138176Y00211074D02*
Y00221234D01*
X00148336D01*
Y00211074D01*
X00138176D01*
D75*
X00472634Y00333248D02*
G03*
X00472634Y00333248I-0000508J0D01*
G01*
X00459934D02*
G03*
X00459934Y00333248I-0000508J0D01*
G01*
X00447234D02*
G03*
X00447234Y00333248I-0000508J0D01*
G01*
X00434534D02*
G03*
X00434534Y00333248I-0000508J0D01*
G01*
X00421834D02*
G03*
X00421834Y00333248I-0000508J0D01*
G01*
X00409134D02*
G03*
X00409134Y00333248I-0000508J0D01*
G01*
X00396434D02*
G03*
X00396434Y00333248I-0000508J0D01*
G01*
X00383734D02*
G03*
X00383734Y00333248I-0000508J0D01*
G01*
X00371034D02*
G03*
X00371034Y00333248I-0000508J0D01*
G01*
X00358334D02*
G03*
X00358334Y00333248I-0000508J0D01*
G01*
X00345634D02*
G03*
X00345634Y00333248I-0000508J0D01*
G01*
X00332934D02*
G03*
X00332934Y00333248I-0000508J0D01*
G01*
X00320234D02*
G03*
X00320234Y00333248I-0000508J0D01*
G01*
X00307534D02*
G03*
X00307534Y00333248I-0000508J0D01*
G01*
X00294834D02*
G03*
X00294834Y00333248I-0000508J0D01*
G01*
X00282134D02*
G03*
X00282134Y00333248I-0000508J0D01*
G01*
X00269434D02*
G03*
X00269434Y00333248I-0000508J0D01*
G01*
X00256734D02*
G03*
X00256734Y00333248I-0000508J0D01*
G01*
X00244034D02*
G03*
X00244034Y00333248I-0000508J0D01*
G01*
X00231334D02*
G03*
X00231334Y00333248I-0000508J0D01*
G01*
X00218634D02*
G03*
X00218634Y00333248I-0000508J0D01*
G01*
X00205934D02*
G03*
X00205934Y00333248I-0000508J0D01*
G01*
X00193234D02*
G03*
X00193234Y00333248I-0000508J0D01*
G01*
X00180534D02*
G03*
X00180534Y00333248I-0000508J0D01*
G01*
X0018034Y00032988D02*
G03*
X0018034Y00032988I-0000508J0D01*
G01*
X0019304D02*
G03*
X0019304Y00032988I-0000508J0D01*
G01*
X0020574D02*
G03*
X0020574Y00032988I-0000508J0D01*
G01*
X0021844D02*
G03*
X0021844Y00032988I-0000508J0D01*
G01*
X0023114D02*
G03*
X0023114Y00032988I-0000508J0D01*
G01*
X0024384D02*
G03*
X0024384Y00032988I-0000508J0D01*
G01*
X0025654D02*
G03*
X0025654Y00032988I-0000508J0D01*
G01*
X0026924D02*
G03*
X0026924Y00032988I-0000508J0D01*
G01*
X0028194D02*
G03*
X0028194Y00032988I-0000508J0D01*
G01*
X0029464D02*
G03*
X0029464Y00032988I-0000508J0D01*
G01*
X0030734D02*
G03*
X0030734Y00032988I-0000508J0D01*
G01*
X0032004D02*
G03*
X0032004Y00032988I-0000508J0D01*
G01*
X0033274D02*
G03*
X0033274Y00032988I-0000508J0D01*
G01*
X0034544D02*
G03*
X0034544Y00032988I-0000508J0D01*
G01*
X0035814D02*
G03*
X0035814Y00032988I-0000508J0D01*
G01*
X0037084D02*
G03*
X0037084Y00032988I-0000508J0D01*
G01*
X0038354D02*
G03*
X0038354Y00032988I-0000508J0D01*
G01*
X0039624D02*
G03*
X0039624Y00032988I-0000508J0D01*
G01*
X0040894D02*
G03*
X0040894Y00032988I-0000508J0D01*
G01*
X0042164D02*
G03*
X0042164Y00032988I-0000508J0D01*
G01*
X0043434D02*
G03*
X0043434Y00032988I-0000508J0D01*
G01*
X0044704D02*
G03*
X0044704Y00032988I-0000508J0D01*
G01*
X0045974D02*
G03*
X0045974Y00032988I-0000508J0D01*
G01*
X0047244D02*
G03*
X0047244Y00032988I-0000508J0D01*
G01*
M02*
