G04*
G04 #@! TF.GenerationSoftware,Altium Limited,Altium Designer,23.0.1 (38)*
G04*
G04 Layer_Color=128*
%FSTAX44Y44*%
%MOMM*%
G71*
G04*
G04 #@! TF.SameCoordinates,E3829BB2-AA37-4C4C-BECC-1D93302A16C3*
G04*
G04*
G04 #@! TF.FilePolarity,Positive*
G04*
G01*
G75*
%ADD16R,1.3000X0.9000*%
%ADD17R,0.9000X1.3000*%
%ADD18R,0.6500X1.3000*%
%ADD22R,1.1500X1.8000*%
%ADD23O,1.4500X0.6000*%
%ADD24O,1.6000X0.5000*%
%ADD25R,1.6000X0.5000*%
%ADD55O,0.6000X1.4500*%
%ADD56R,0.6500X1.5250*%
%ADD57O,1.6000X0.6000*%
%ADD58R,0.6350X2.2860*%
%ADD59O,0.6350X2.2860*%
%ADD60R,1.5000X2.8000*%
%ADD61R,0.9500X0.9000*%
%ADD62R,0.9500X0.9000*%
%ADD63O,1.4500X0.5000*%
D16*
X00517652Y00096164D02*
D03*
Y00115164D02*
D03*
X00508508Y00259994D02*
D03*
Y00278994D02*
D03*
X00373126Y00238608D02*
D03*
Y00219608D02*
D03*
D17*
X004096Y00354584D02*
D03*
X004286D02*
D03*
X00178156Y00066548D02*
D03*
X00159156D02*
D03*
X00090576Y00231394D02*
D03*
X00109576D02*
D03*
X00439826Y00076454D02*
D03*
X00458826D02*
D03*
D18*
X00133756Y00209042D02*
D03*
X00152756D02*
D03*
X00195174Y00307848D02*
D03*
X00176174D02*
D03*
X00301854Y000635D02*
D03*
X00282854D02*
D03*
D22*
X00324076D02*
D03*
X00354076D02*
D03*
X00047004Y00264386D02*
D03*
X00017004D02*
D03*
X00047004Y00230571D02*
D03*
X00017004D02*
D03*
Y00196757D02*
D03*
X00047004D02*
D03*
X00017004Y00162943D02*
D03*
X00047004D02*
D03*
X00017004Y00129129D02*
D03*
X00047004D02*
D03*
X00017004Y00095315D02*
D03*
X00047004D02*
D03*
Y000615D02*
D03*
X00017004D02*
D03*
X00047004Y00027686D02*
D03*
X00017004D02*
D03*
D23*
X00377008Y00186944D02*
D03*
Y00174244D02*
D03*
Y00161544D02*
D03*
Y00148844D02*
D03*
Y00136144D02*
D03*
Y00123444D02*
D03*
Y00110744D02*
D03*
Y00098044D02*
D03*
X00322508Y00186944D02*
D03*
Y00174244D02*
D03*
Y00161544D02*
D03*
Y00148844D02*
D03*
Y00136144D02*
D03*
Y00123444D02*
D03*
Y00110744D02*
D03*
Y00098044D02*
D03*
D24*
X00093654Y0010922D02*
D03*
Y0012192D02*
D03*
Y0013462D02*
D03*
Y0014732D02*
D03*
Y0016002D02*
D03*
Y0017272D02*
D03*
Y0018542D02*
D03*
X00150694Y0009652D02*
D03*
Y0010922D02*
D03*
Y0012192D02*
D03*
Y0013462D02*
D03*
Y0014732D02*
D03*
Y0016002D02*
D03*
Y0017272D02*
D03*
Y0018542D02*
D03*
D25*
X00093654Y0009652D02*
D03*
D55*
X00219456Y00231322D02*
D03*
X00206756D02*
D03*
X00194056D02*
D03*
X00181356D02*
D03*
X00168656D02*
D03*
X00155956D02*
D03*
X00143256D02*
D03*
X00130556D02*
D03*
X00219456Y00285822D02*
D03*
X00206756D02*
D03*
X00194056D02*
D03*
X00181356D02*
D03*
X00168656D02*
D03*
X00155956D02*
D03*
X00143256D02*
D03*
X00130556D02*
D03*
D56*
X0026035Y00232722D02*
D03*
X0027305D02*
D03*
X0028575D02*
D03*
X0029845D02*
D03*
X0031115D02*
D03*
X0032385D02*
D03*
X0033655D02*
D03*
X0034925D02*
D03*
Y00286962D02*
D03*
X0033655D02*
D03*
X0032385D02*
D03*
X0031115D02*
D03*
X0029845D02*
D03*
X0028575D02*
D03*
X0027305D02*
D03*
X0026035D02*
D03*
D57*
X00436118Y00102362D02*
D03*
Y00115062D02*
D03*
Y00127762D02*
D03*
Y00140462D02*
D03*
Y00153162D02*
D03*
Y00165862D02*
D03*
Y00178562D02*
D03*
X00497072Y00102362D02*
D03*
Y00115062D02*
D03*
Y00127762D02*
D03*
Y00140462D02*
D03*
Y00153162D02*
D03*
Y00165862D02*
D03*
X00496818Y00178562D02*
D03*
D58*
X00397764Y00287643D02*
D03*
D59*
X00410464Y00287893D02*
D03*
X00423164Y00288143D02*
D03*
X00435864D02*
D03*
X00448564D02*
D03*
X00461264D02*
D03*
X00473964Y00288139D02*
D03*
X00486664D02*
D03*
Y00219861D02*
D03*
X00473964Y00219857D02*
D03*
X00461264D02*
D03*
X00448564D02*
D03*
X00435864D02*
D03*
X00423164D02*
D03*
X00410464D02*
D03*
X00397764D02*
D03*
D60*
X00054483Y00310134D02*
D03*
X00018669D02*
D03*
D61*
X00239776Y00054356D02*
D03*
X00264776Y00063856D02*
D03*
D62*
X00239776Y00073356D02*
D03*
D63*
X00202874Y00105664D02*
D03*
Y00118364D02*
D03*
Y00131064D02*
D03*
Y00143764D02*
D03*
Y00156464D02*
D03*
Y00169164D02*
D03*
Y00181864D02*
D03*
X00257374Y00105664D02*
D03*
Y00118364D02*
D03*
Y00131064D02*
D03*
Y00143764D02*
D03*
Y00156464D02*
D03*
Y00169164D02*
D03*
Y00181864D02*
D03*
M02*
