G04*
G04 #@! TF.GenerationSoftware,Altium Limited,Altium Designer,23.0.1 (38)*
G04*
G04 Layer_Color=128*
%FSLAX25Y25*%
%MOIN*%
G70*
G04*
G04 #@! TF.SameCoordinates,9BF97A08-6F66-48D1-9A7C-BDF13F6F14C4*
G04*
G04*
G04 #@! TF.FilePolarity,Positive*
G04*
G01*
G75*
%ADD18R,0.06299X0.01968*%
%ADD19O,0.06299X0.01968*%
%ADD20R,0.02559X0.05118*%
%ADD22R,0.03543X0.05118*%
%ADD25R,0.04528X0.07087*%
%ADD26O,0.05709X0.02362*%
%ADD49O,0.02500X0.09000*%
%ADD50R,0.02500X0.09000*%
%ADD51O,0.02362X0.05709*%
%ADD52R,0.05906X0.11024*%
%ADD53R,0.02559X0.06004*%
%ADD54O,0.06299X0.02362*%
%ADD55R,0.03740X0.03543*%
%ADD56R,0.03740X0.03543*%
%ADD57O,0.05709X0.01968*%
D18*
X33972Y32900D02*
D03*
D19*
X56428Y67900D02*
D03*
Y62900D02*
D03*
Y57900D02*
D03*
Y52900D02*
D03*
Y47900D02*
D03*
Y42900D02*
D03*
Y37900D02*
D03*
Y32900D02*
D03*
X33972Y67900D02*
D03*
Y62900D02*
D03*
Y57900D02*
D03*
Y52900D02*
D03*
Y47900D02*
D03*
Y42900D02*
D03*
Y37900D02*
D03*
D20*
X36860Y77100D02*
D03*
X44340D02*
D03*
X60140Y116300D02*
D03*
X52660D02*
D03*
X99040Y22500D02*
D03*
X91560D02*
D03*
D22*
X131860D02*
D03*
X139340D02*
D03*
X49760Y22400D02*
D03*
X57240D02*
D03*
X154860Y74100D02*
D03*
X162340D02*
D03*
X109660Y76900D02*
D03*
X117140D02*
D03*
X13360Y104700D02*
D03*
X20840D02*
D03*
X155760Y22400D02*
D03*
X163240D02*
D03*
D25*
X108895Y22850D02*
D03*
X120705D02*
D03*
X20206Y93600D02*
D03*
X8394D02*
D03*
X20106Y79028D02*
D03*
X8294D02*
D03*
Y67457D02*
D03*
X20106D02*
D03*
X8294Y55886D02*
D03*
X20106D02*
D03*
X8294Y44314D02*
D03*
X20106D02*
D03*
X8294Y32743D02*
D03*
X20106D02*
D03*
Y21171D02*
D03*
X8294D02*
D03*
X20106Y9600D02*
D03*
X8294D02*
D03*
D26*
X125428Y67900D02*
D03*
Y62900D02*
D03*
Y57900D02*
D03*
Y52900D02*
D03*
Y47900D02*
D03*
Y42900D02*
D03*
Y37900D02*
D03*
Y32900D02*
D03*
X103972Y67900D02*
D03*
Y62900D02*
D03*
Y57900D02*
D03*
Y52900D02*
D03*
Y47900D02*
D03*
Y42900D02*
D03*
Y37900D02*
D03*
Y32900D02*
D03*
D49*
X125000Y84658D02*
D03*
X130000D02*
D03*
X135000D02*
D03*
X140000D02*
D03*
X145000D02*
D03*
X150000D02*
D03*
X155000D02*
D03*
X160000Y84659D02*
D03*
Y111541D02*
D03*
X155000D02*
D03*
X150000Y111542D02*
D03*
X145000D02*
D03*
X140000D02*
D03*
X135000D02*
D03*
X130000Y111444D02*
D03*
D50*
X125000Y111345D02*
D03*
D51*
X37700Y107500D02*
D03*
X42700D02*
D03*
X47700D02*
D03*
X52700D02*
D03*
X57700D02*
D03*
X62700D02*
D03*
X67700D02*
D03*
X72700D02*
D03*
X37700Y86043D02*
D03*
X42700D02*
D03*
X47700D02*
D03*
X52700D02*
D03*
X57700D02*
D03*
X62700D02*
D03*
X67700D02*
D03*
X72700D02*
D03*
D52*
X8850Y118000D02*
D03*
X22950D02*
D03*
D53*
X80800Y87023D02*
D03*
X85800D02*
D03*
X90800D02*
D03*
X95800D02*
D03*
X100800D02*
D03*
X105800D02*
D03*
X110800D02*
D03*
X115800D02*
D03*
Y108377D02*
D03*
X110800D02*
D03*
X105800D02*
D03*
X100800D02*
D03*
X95800D02*
D03*
X90800D02*
D03*
X85800D02*
D03*
X80800D02*
D03*
D54*
X162549Y65400D02*
D03*
Y60400D02*
D03*
Y55400D02*
D03*
Y50400D02*
D03*
Y45400D02*
D03*
Y40400D02*
D03*
Y35400D02*
D03*
X138551Y65400D02*
D03*
Y60400D02*
D03*
Y55400D02*
D03*
Y50400D02*
D03*
Y45400D02*
D03*
Y40400D02*
D03*
X138651Y35400D02*
D03*
D55*
X64900Y18900D02*
D03*
X74743Y22640D02*
D03*
D56*
X64900Y26380D02*
D03*
D57*
X69272Y35500D02*
D03*
Y40500D02*
D03*
Y45500D02*
D03*
Y50500D02*
D03*
Y55500D02*
D03*
Y60500D02*
D03*
Y65500D02*
D03*
X90728Y35500D02*
D03*
Y40500D02*
D03*
Y45500D02*
D03*
Y50500D02*
D03*
Y55500D02*
D03*
Y60500D02*
D03*
Y65500D02*
D03*
M02*
