M48
;Layer_Color=9474304
;FILE_FORMAT=2:4
INCH,LZ
;TYPE=PLATED
T1F00S00C0.0138
T2F00S00C0.0315
%
T01
X043704Y015204
X0452Y015294
X045Y014
X0466Y0133
X046697Y014783
X04691Y01446
X046893Y01537
X048Y0156
X0499Y01536
X050073Y014855
X051328Y01451
X0527Y0145
X052699Y015501
X053893Y014493
X05755Y0146
X0575Y01505
X05743Y01542
X05845Y015
X04755Y01355
X0482Y0178
X048539Y01896
X048394Y019263
X04865Y019546
X04955Y02
X04924Y021
X0492Y0224
X050382
X050046Y02277
X050108Y0219
X0508Y0216
X050798Y021211
X050868Y020882
X050447Y020644
X050653Y020367
X051501Y019966
X0526Y0201
X0528Y0191
Y01702
X0532Y01608
X052557Y015819
X05175Y01648
X051719Y017943
X0508Y0181
X050921Y0186
X0506Y0187
X050332Y0184
X050621Y017576
X0547Y0182
Y0195
X054891Y019777
X0555Y01935
X05576Y02055
X0563Y02045
X05475Y0207
X054974Y021061
X054229Y020606
X0542Y0228
X0546Y0227
X055236Y023018
X05515Y02385
X05485Y024306
X05625Y02385
X0561Y0235
X056242Y024877
X05677Y02457
X05672Y02671
X058Y0232
X058241Y022959
X0578Y022668
X0595Y02305
X06025Y0226
X06075Y02347
X061387Y0216
X0612Y02015
X05977
X05945Y0195
X059768Y018656
X05885Y01765
X059Y017
X05955Y01635
X0578Y016
X0571Y01637
X0568Y0172
X057118Y017743
X05705Y01935
X05831Y020306
X0616Y01855
X0614Y01825
X0555Y0163
X0552Y0161
X052143Y02086
X051756Y021948
X05187Y023118
X0512Y0232
X050932Y02285
X05113Y02427
X04975Y02425
X0501Y023743
X049868Y025068
X04846Y025053
X04688Y02528
X047599Y022506
X04779Y02091
X0479Y020289
X052689Y022993
X052585Y024182
X0527Y0248
X052381Y024918
X0464Y0249
X045943Y0235
X045692Y022687
X04492Y02295
X0449Y0224
X044801Y024149
X04398Y02377
X043985Y021015
X0443Y0201
X04555Y02045
X0468Y021
X0467Y022324
X04225Y0223
X0426Y02084
X044Y0178
X0442Y0166
X0444Y0161
X04479Y0159
X0468
T02
X04806Y013789
X04856
X04906
X04956
X05006
X05056
X05106
X05156
X05206
X05256
X05306
X05356
X05406
X05456
X05506
X05556
X05606
X05656
X05706
X05756
X05806
X05856
X05906
X05956
X059568Y02561
X059068
X058568
X058068
X057568
X057068
X056568
X056068
X055568
X055068
X054568
X054068
X053568
X053068
X052568
X052068
X051568
X051068
X050568
X050068
X049568
X049068
X048568
X048068
M30
