M48
;Layer_Color=9474304
;FILE_FORMAT=2:5
INCH,TZ
;TYPE=PLATED
T1F00S00C0.01378
T2F00S00C0.03150
%
T01
X38300Y5900
X41400Y17300
X46000Y17900
X69600Y18900
X87000Y17900
X119400Y16900
X152100Y22600
X163300Y26900
X160055Y31400
X155522Y35778
X155800Y40300
X156000Y45400
X145600Y49600
X147500Y60200
X155500Y63200
X165500Y74300
X143866Y76100
X141100Y78800
X125200Y77100
X120500Y86300
X111200Y95000
X108900Y100800
X103100Y93200
X96300Y102300
X85800Y104300
X82766Y93980
X76500Y94400
X67000Y99900
X57600Y94800
X52000Y95000
X47500Y95400
X44700Y98600
X52600Y101700
X60400Y81500
X57400Y78300
X52500Y72900
X46800Y67900
X43600Y60581
X38900Y62900
X40900Y52800
X38954Y46456
X38600Y43100
X49199Y36250
X49600Y50200
X62300Y50000
X62500Y53700
X61600Y57900
X61400Y65200
X61581Y70581
X72019Y65600
X83004Y66204
X83400Y61900
X80100Y55200
X73738Y55400
X73600Y50300
X76600Y46600
X83381Y43531
X84247Y50365
X95900Y44800
X94500Y40600
X95900Y37100
X95200Y29400
X91400Y27631
X85600Y31300
X74700Y27900
X73200Y36931
X62235Y39031
X61147Y42256
X61900Y45600
X60700Y29400
X65100Y30388
X34700Y29100
X36800Y81500
X70300Y81331
X82669Y81749
X85900Y80700
X101373Y71973
X98606Y66439
X98000Y61800
X99100Y56300
X113500Y55700
X116600Y58800
X112500Y63100
X112151Y73949
X115045Y72109
X130564Y66738
X133900Y64300
X133800Y53500
X119700Y48800
X118300Y45000
X118800Y41000
X120500Y33100
X108900Y33000
X111400Y28900
X104700Y28400
X130500Y29400
X134000Y28600
X133477Y98223
X138900Y101000
X143900Y100900
X147600Y100800
X159500Y101800
X158900Y95000
X102200Y113700
X93200Y114200
X69800Y115600
X37400Y119400
X27500Y97700
X16200Y86500
X8600Y88100
X26200Y51800
Y41100
X22920Y40220
T02
X44700Y7587
X49700
X54700
X59700
X64700
X69700
X74700
X79700
X84700
X89700
X94700
X99700
X104700
X109700
X114700
X119700
X124700
X129700
X134700
X139700
X144700
X149700
X154700
X159700
X159776Y125800
X154776
X149776
X144776
X139776
X134776
X129776
X124776
X119776
X114776
X109776
X104776
X99776
X94776
X89776
X84776
X79776
X74776
X69776
X64776
X59776
X54776
X49776
X44776
M30
